<?xml version="1.0" encoding="utf-8"?>
<svg viewBox="51.916 88.439 268.945 77.33" width="268.945" height="77.33" xmlns="http://www.w3.org/2000/svg">
  <path d="M 98.584 128.886 C 98.791 129.593 98.894 130.369 98.894 131.216 C 97.747 131.129 95.897 131.086 93.344 131.086 C 90.617 131.086 88.697 131.129 87.584 131.216 C 87.584 130.223 87.701 129.446 87.934 128.886 C 88.667 128.799 89.204 128.653 89.544 128.446 C 89.877 128.239 90.044 127.933 90.044 127.526 C 90.044 127.086 89.841 126.409 89.434 125.496 L 87.984 122.066 C 83.437 122.066 79.711 122.139 76.804 122.286 L 75.924 124.576 C 75.544 125.543 75.354 126.349 75.354 126.996 C 75.354 127.583 75.531 128.029 75.884 128.336 C 76.231 128.643 76.771 128.826 77.504 128.886 C 77.744 129.593 77.864 130.369 77.864 131.216 C 76.864 131.129 75.367 131.086 73.374 131.086 C 72.521 131.086 71.257 131.129 69.584 131.216 C 69.584 130.309 69.704 129.546 69.944 128.926 C 70.704 128.779 71.297 128.406 71.724 127.806 C 72.151 127.206 72.731 126.026 73.464 124.266 L 82.614 101.296 C 83.227 101.149 83.944 101.076 84.764 101.076 L 95.064 124.396 C 95.624 125.629 96.077 126.546 96.424 127.146 C 96.777 127.746 97.107 128.173 97.414 128.426 C 97.727 128.673 98.117 128.826 98.584 128.886 Z M 77.774 119.826 L 87.014 119.826 L 84.154 113.136 C 83.361 111.376 82.684 109.629 82.124 107.896 C 81.597 109.596 80.997 111.343 80.324 113.136 L 77.774 119.826 Z" transform="matrix(1, 0, 0, 1, 0, 0)" style="fill: rgb(51, 51, 51); white-space: pre;"/>
  <path d="M 113.873 114.786 C 113.827 115.926 113.917 117.273 114.143 118.826 C 113.697 119.013 113.177 119.099 112.583 119.086 C 112.503 118.079 112.25 117.336 111.823 116.856 C 111.403 116.376 110.753 116.136 109.873 116.136 L 108.813 116.136 L 108.813 127.626 C 108.813 128.239 108.867 128.696 108.973 128.996 C 109.073 129.303 109.26 129.519 109.533 129.646 C 109.807 129.773 110.23 129.853 110.803 129.886 C 110.917 130.173 110.973 130.596 110.973 131.156 C 109.967 131.109 108.773 131.086 107.393 131.086 C 105.793 131.086 104.523 131.109 103.583 131.156 C 103.583 130.596 103.64 130.173 103.753 129.886 C 104.327 129.853 104.757 129.773 105.043 129.646 C 105.33 129.519 105.533 129.303 105.653 128.996 C 105.773 128.696 105.833 128.239 105.833 127.626 L 105.833 116.136 L 104.953 116.136 C 104.26 116.136 103.72 116.246 103.333 116.466 C 102.94 116.693 102.647 117.009 102.453 117.416 C 102.26 117.823 102.083 118.379 101.923 119.086 C 101.237 119.086 100.733 119.006 100.413 118.846 C 100.72 117.293 100.873 115.939 100.873 114.786 C 101.88 114.839 104.047 114.866 107.373 114.866 C 110.7 114.866 112.867 114.839 113.873 114.786 ZM 122.345 129.816 C 123.131 129.816 123.765 129.716 124.245 129.516 C 124.725 129.316 125.111 128.999 125.405 128.566 C 125.705 128.133 125.981 127.516 126.235 126.716 C 126.875 126.829 127.355 127.046 127.675 127.366 C 127.355 128.326 127.108 129.583 126.935 131.136 C 125.521 131.103 123.825 131.086 121.845 131.086 C 118.658 131.086 116.475 131.109 115.295 131.156 C 115.295 130.563 115.341 130.139 115.435 129.886 C 115.881 129.853 116.221 129.773 116.455 129.646 C 116.688 129.519 116.851 129.283 116.945 128.936 C 117.045 128.596 117.095 128.096 117.095 127.436 L 117.095 118.296 C 117.095 117.703 117.045 117.253 116.945 116.946 C 116.851 116.646 116.688 116.433 116.455 116.306 C 116.221 116.173 115.881 116.093 115.435 116.066 C 115.355 115.773 115.315 115.346 115.315 114.786 C 116.388 114.839 117.468 114.866 118.555 114.866 C 119.768 114.866 120.855 114.839 121.815 114.786 C 121.815 115.366 121.768 115.793 121.675 116.066 C 121.228 116.093 120.891 116.173 120.665 116.306 C 120.445 116.433 120.285 116.653 120.185 116.966 C 120.091 117.273 120.045 117.733 120.045 118.346 L 120.045 127.416 C 120.045 128.069 120.101 128.566 120.215 128.906 C 120.321 129.239 120.525 129.473 120.825 129.606 C 121.118 129.746 121.555 129.816 122.135 129.816 L 122.345 129.816 ZM 144.424 129.886 C 144.538 130.273 144.594 130.696 144.594 131.156 C 143.968 131.109 142.958 131.086 141.564 131.086 C 140.078 131.086 139.031 131.109 138.424 131.156 C 138.424 130.616 138.488 130.193 138.614 129.886 C 139.014 129.839 139.308 129.759 139.494 129.646 C 139.674 129.533 139.764 129.366 139.764 129.146 C 139.764 128.906 139.654 128.536 139.434 128.036 L 138.644 126.166 C 136.164 126.166 134.131 126.206 132.544 126.286 L 132.064 127.536 C 131.858 128.063 131.754 128.503 131.754 128.856 C 131.754 129.176 131.851 129.419 132.044 129.586 C 132.231 129.753 132.524 129.853 132.924 129.886 C 133.058 130.273 133.124 130.696 133.124 131.156 C 132.578 131.109 131.761 131.086 130.674 131.086 C 130.208 131.086 129.518 131.109 128.604 131.156 C 128.604 130.663 128.671 130.246 128.804 129.906 C 129.218 129.826 129.541 129.623 129.774 129.296 C 130.008 128.969 130.324 128.326 130.724 127.366 L 135.714 114.836 C 136.048 114.756 136.438 114.716 136.884 114.716 L 142.504 127.436 C 142.811 128.109 143.058 128.609 143.244 128.936 C 143.438 129.263 143.618 129.496 143.784 129.636 C 143.958 129.769 144.171 129.853 144.424 129.886 Z M 133.074 124.946 L 138.114 124.946 L 136.554 121.296 C 136.121 120.336 135.751 119.383 135.444 118.436 C 135.158 119.363 134.831 120.316 134.464 121.296 L 133.074 124.946 ZM 151.623 131.306 C 150.643 131.306 149.753 131.179 148.953 130.926 C 148.153 130.679 147.323 130.309 146.463 129.816 C 146.623 128.903 146.703 127.703 146.703 126.216 C 147.163 126.089 147.746 126.026 148.453 126.026 C 148.533 127.386 148.83 128.376 149.343 128.996 C 149.856 129.623 150.686 129.936 151.833 129.936 C 152.793 129.936 153.51 129.723 153.983 129.296 C 154.456 128.876 154.693 128.336 154.693 127.676 C 154.693 127.149 154.546 126.693 154.253 126.306 C 153.953 125.926 153.58 125.603 153.133 125.336 C 152.686 125.076 152.086 124.769 151.333 124.416 C 150.36 123.969 149.566 123.549 148.953 123.156 C 148.346 122.763 147.833 122.239 147.413 121.586 C 146.986 120.926 146.773 120.109 146.773 119.136 C 146.773 117.709 147.236 116.606 148.163 115.826 C 149.09 115.039 150.33 114.646 151.883 114.646 C 152.703 114.646 153.503 114.746 154.283 114.946 C 155.07 115.146 155.693 115.399 156.153 115.706 C 156.153 117.239 156.203 118.333 156.303 118.986 C 155.903 119.199 155.32 119.306 154.553 119.306 C 154.326 118.026 153.996 117.146 153.563 116.666 C 153.13 116.186 152.53 115.946 151.763 115.946 C 150.996 115.946 150.393 116.129 149.953 116.496 C 149.513 116.863 149.293 117.383 149.293 118.056 C 149.293 118.616 149.45 119.096 149.763 119.496 C 150.076 119.896 150.463 120.233 150.923 120.506 C 151.39 120.773 152.023 121.099 152.823 121.486 C 153.796 121.953 154.586 122.376 155.193 122.756 C 155.806 123.143 156.323 123.653 156.743 124.286 C 157.17 124.913 157.383 125.683 157.383 126.596 C 157.383 127.496 157.17 128.296 156.743 128.996 C 156.323 129.703 155.68 130.263 154.813 130.676 C 153.946 131.096 152.883 131.306 151.623 131.306 ZM 170.96 114.816 C 173.62 114.816 175.783 115.363 177.45 116.456 C 179.123 117.556 179.96 119.593 179.96 122.566 C 179.96 124.933 179.437 126.746 178.39 128.006 C 177.343 129.259 176.157 130.086 174.83 130.486 C 173.497 130.886 172.2 131.086 170.94 131.086 C 167.753 131.086 165.57 131.109 164.39 131.156 C 164.39 130.563 164.437 130.139 164.53 129.886 C 164.977 129.853 165.317 129.773 165.55 129.646 C 165.783 129.519 165.947 129.283 166.04 128.936 C 166.14 128.596 166.19 128.096 166.19 127.436 L 166.19 118.296 C 166.19 117.703 166.14 117.253 166.04 116.946 C 165.947 116.646 165.783 116.433 165.55 116.306 C 165.317 116.173 164.977 116.093 164.53 116.066 C 164.45 115.773 164.41 115.346 164.41 114.786 C 165.257 114.839 166.53 114.866 168.23 114.866 C 168.803 114.866 169.233 114.856 169.52 114.836 L 170.96 114.816 Z M 171.23 129.816 C 172.923 129.816 174.277 129.306 175.29 128.286 C 176.31 127.273 176.82 125.493 176.82 122.946 C 176.82 120.533 176.24 118.766 175.08 117.646 C 173.92 116.526 172.46 115.966 170.7 115.966 C 170.093 115.966 169.573 116.046 169.14 116.206 L 169.14 127.416 C 169.14 128.069 169.197 128.566 169.31 128.906 C 169.417 129.239 169.62 129.473 169.92 129.606 C 170.213 129.746 170.65 129.816 171.23 129.816 ZM 196.495 129.886 C 196.608 130.273 196.665 130.696 196.665 131.156 C 196.038 131.109 195.028 131.086 193.635 131.086 C 192.148 131.086 191.101 131.109 190.495 131.156 C 190.495 130.616 190.558 130.193 190.685 129.886 C 191.085 129.839 191.378 129.759 191.565 129.646 C 191.745 129.533 191.835 129.366 191.835 129.146 C 191.835 128.906 191.725 128.536 191.505 128.036 L 190.715 126.166 C 188.235 126.166 186.201 126.206 184.615 126.286 L 184.135 127.536 C 183.928 128.063 183.825 128.503 183.825 128.856 C 183.825 129.176 183.921 129.419 184.115 129.586 C 184.301 129.753 184.595 129.853 184.995 129.886 C 185.128 130.273 185.195 130.696 185.195 131.156 C 184.648 131.109 183.831 131.086 182.745 131.086 C 182.278 131.086 181.588 131.109 180.675 131.156 C 180.675 130.663 180.741 130.246 180.875 129.906 C 181.288 129.826 181.611 129.623 181.845 129.296 C 182.078 128.969 182.395 128.326 182.795 127.366 L 187.785 114.836 C 188.118 114.756 188.508 114.716 188.955 114.716 L 194.575 127.436 C 194.881 128.109 195.128 128.609 195.315 128.936 C 195.508 129.263 195.688 129.496 195.855 129.636 C 196.028 129.769 196.241 129.853 196.495 129.886 Z M 185.145 124.946 L 190.185 124.946 L 188.625 121.296 C 188.191 120.336 187.821 119.383 187.515 118.436 C 187.228 119.363 186.901 120.316 186.535 121.296 L 185.145 124.946 ZM 216.293 114.866 C 217.233 114.866 218.016 114.839 218.643 114.786 C 218.643 115.346 218.603 115.773 218.523 116.066 C 218.136 116.079 217.843 116.186 217.643 116.386 C 217.443 116.586 217.3 116.926 217.213 117.406 C 217.126 117.886 217.083 118.573 217.083 119.466 L 217.083 131.086 C 216.73 131.199 216.273 131.256 215.713 131.256 L 206.283 118.796 L 206.283 126.386 C 206.283 127.313 206.33 128.019 206.423 128.506 C 206.523 128.993 206.696 129.339 206.943 129.546 C 207.19 129.759 207.546 129.873 208.013 129.886 C 208.106 130.173 208.153 130.596 208.153 131.156 C 207.433 131.109 206.593 131.086 205.633 131.086 C 204.48 131.086 203.616 131.109 203.043 131.156 C 203.043 130.616 203.083 130.193 203.163 129.886 C 203.63 129.873 203.986 129.759 204.233 129.546 C 204.48 129.339 204.656 128.993 204.763 128.506 C 204.863 128.019 204.913 127.313 204.913 126.386 L 204.913 116.996 L 204.743 116.786 C 204.536 116.526 204.333 116.349 204.133 116.256 C 203.933 116.156 203.61 116.093 203.163 116.066 C 203.083 115.726 203.043 115.299 203.043 114.786 C 203.556 114.839 204.276 114.866 205.203 114.866 C 205.99 114.866 206.63 114.839 207.123 114.786 L 215.693 126.266 L 215.693 119.466 C 215.693 118.559 215.643 117.869 215.543 117.396 C 215.45 116.923 215.28 116.586 215.033 116.386 C 214.786 116.186 214.423 116.079 213.943 116.066 C 213.843 115.613 213.793 115.186 213.793 114.786 C 214.5 114.839 215.333 114.866 216.293 114.866 ZM 228.412 131.306 C 226.812 131.306 225.405 130.946 224.192 130.226 C 222.985 129.506 222.052 128.509 221.392 127.236 C 220.725 125.963 220.392 124.526 220.392 122.926 C 220.392 121.293 220.738 119.853 221.432 118.606 C 222.132 117.359 223.088 116.386 224.302 115.686 C 225.522 114.993 226.892 114.646 228.412 114.646 C 229.958 114.646 231.345 114.989 232.572 115.676 C 233.798 116.363 234.752 117.323 235.432 118.556 C 236.112 119.789 236.452 121.213 236.452 122.826 C 236.452 124.426 236.112 125.873 235.432 127.166 C 234.752 128.453 233.802 129.463 232.582 130.196 C 231.368 130.936 229.978 131.306 228.412 131.306 Z M 228.842 129.936 C 229.755 129.936 230.545 129.656 231.212 129.096 C 231.885 128.536 232.402 127.763 232.762 126.776 C 233.122 125.796 233.302 124.679 233.302 123.426 C 233.302 122.053 233.075 120.799 232.622 119.666 C 232.162 118.526 231.525 117.626 230.712 116.966 C 229.898 116.299 228.978 115.966 227.952 115.966 C 227.105 115.966 226.345 116.226 225.672 116.746 C 224.998 117.266 224.475 118.006 224.102 118.966 C 223.722 119.926 223.532 121.039 223.532 122.306 C 223.532 123.666 223.742 124.926 224.162 126.086 C 224.575 127.246 225.182 128.176 225.982 128.876 C 226.782 129.583 227.735 129.936 228.842 129.936 ZM 251.057 114.786 C 251.01 115.926 251.1 117.273 251.327 118.826 C 250.88 119.013 250.36 119.099 249.767 119.086 C 249.687 118.079 249.433 117.336 249.007 116.856 C 248.587 116.376 247.937 116.136 247.057 116.136 L 245.997 116.136 L 245.997 127.626 C 245.997 128.239 246.05 128.696 246.157 128.996 C 246.257 129.303 246.443 129.519 246.717 129.646 C 246.99 129.773 247.413 129.853 247.987 129.886 C 248.1 130.173 248.157 130.596 248.157 131.156 C 247.15 131.109 245.957 131.086 244.577 131.086 C 242.977 131.086 241.707 131.109 240.767 131.156 C 240.767 130.596 240.823 130.173 240.937 129.886 C 241.51 129.853 241.94 129.773 242.227 129.646 C 242.513 129.519 242.717 129.303 242.837 128.996 C 242.957 128.696 243.017 128.239 243.017 127.626 L 243.017 116.136 L 242.137 116.136 C 241.443 116.136 240.903 116.246 240.517 116.466 C 240.123 116.693 239.83 117.009 239.637 117.416 C 239.443 117.823 239.267 118.379 239.107 119.086 C 238.42 119.086 237.917 119.006 237.597 118.846 C 237.903 117.293 238.057 115.939 238.057 114.786 C 239.063 114.839 241.23 114.866 244.557 114.866 C 247.883 114.866 250.05 114.839 251.057 114.786 ZM 254.248 118.296 C 254.248 117.703 254.201 117.253 254.108 116.946 C 254.008 116.646 253.848 116.433 253.628 116.306 C 253.401 116.173 253.065 116.093 252.618 116.066 C 252.525 115.726 252.478 115.299 252.478 114.786 C 253.338 114.839 254.431 114.866 255.758 114.866 C 256.945 114.866 258.018 114.839 258.978 114.786 C 258.978 115.026 258.971 115.259 258.958 115.486 C 258.938 115.713 258.898 115.906 258.838 116.066 C 258.385 116.093 258.048 116.173 257.828 116.306 C 257.601 116.433 257.441 116.646 257.348 116.946 C 257.248 117.253 257.198 117.703 257.198 118.296 L 257.198 127.626 C 257.198 128.239 257.248 128.696 257.348 128.996 C 257.441 129.303 257.601 129.519 257.828 129.646 C 258.048 129.773 258.385 129.853 258.838 129.886 C 258.931 130.139 258.978 130.563 258.978 131.156 C 258.098 131.109 257.051 131.086 255.838 131.086 C 254.491 131.086 253.371 131.109 252.478 131.156 C 252.478 130.616 252.525 130.193 252.618 129.886 C 253.065 129.853 253.401 129.773 253.628 129.646 C 253.848 129.519 254.008 129.303 254.108 128.996 C 254.201 128.696 254.248 128.239 254.248 127.626 L 254.248 118.296 Z M 256.048 113.496 C 255.508 113.496 255.051 113.433 254.678 113.306 C 255.211 112.293 255.668 111.253 256.048 110.186 C 256.561 110.053 257.051 109.986 257.518 109.986 C 257.945 109.986 258.368 110.043 258.788 110.156 C 257.955 111.116 257.041 112.229 256.048 113.496 ZM 268.792 131.306 C 267.272 131.306 265.919 130.949 264.732 130.236 C 263.552 129.523 262.632 128.526 261.972 127.246 C 261.319 125.966 260.992 124.509 260.992 122.876 C 260.992 121.116 261.369 119.616 262.122 118.376 C 262.876 117.136 263.866 116.206 265.092 115.586 C 266.326 114.959 267.656 114.646 269.082 114.646 C 270.022 114.646 270.922 114.749 271.782 114.956 C 272.636 115.163 273.502 115.476 274.382 115.896 C 274.209 116.809 274.122 118.049 274.122 119.616 C 273.782 119.776 273.252 119.856 272.532 119.856 C 272.506 118.369 272.216 117.333 271.662 116.746 C 271.109 116.159 270.306 115.866 269.252 115.866 C 267.539 115.866 266.266 116.476 265.432 117.696 C 264.599 118.909 264.182 120.419 264.182 122.226 C 264.182 123.639 264.406 124.906 264.852 126.026 C 265.306 127.146 265.962 128.026 266.822 128.666 C 267.689 129.306 268.722 129.626 269.922 129.626 C 270.622 129.626 271.342 129.513 272.082 129.286 C 272.816 129.059 273.519 128.739 274.192 128.326 C 274.306 128.419 274.409 128.556 274.502 128.736 C 274.602 128.909 274.666 129.069 274.692 129.216 C 273.812 129.916 272.909 130.439 271.982 130.786 C 271.056 131.133 269.992 131.306 268.792 131.306 ZM 278.652 118.296 C 278.652 117.703 278.605 117.253 278.512 116.946 C 278.412 116.646 278.252 116.433 278.032 116.306 C 277.805 116.173 277.468 116.093 277.022 116.066 C 276.928 115.726 276.882 115.299 276.882 114.786 C 277.742 114.839 278.835 114.866 280.162 114.866 C 281.348 114.866 282.422 114.839 283.382 114.786 C 283.382 115.026 283.375 115.259 283.362 115.486 C 283.342 115.713 283.302 115.906 283.242 116.066 C 282.788 116.093 282.452 116.173 282.232 116.306 C 282.005 116.433 281.845 116.646 281.752 116.946 C 281.652 117.253 281.602 117.703 281.602 118.296 L 281.602 127.626 C 281.602 128.239 281.652 128.696 281.752 128.996 C 281.845 129.303 282.005 129.519 282.232 129.646 C 282.452 129.773 282.788 129.853 283.242 129.886 C 283.335 130.139 283.382 130.563 283.382 131.156 C 282.502 131.109 281.455 131.086 280.242 131.086 C 278.895 131.086 277.775 131.109 276.882 131.156 C 276.882 130.616 276.928 130.193 277.022 129.886 C 277.468 129.853 277.805 129.773 278.032 129.646 C 278.252 129.519 278.412 129.303 278.512 128.996 C 278.605 128.696 278.652 128.239 278.652 127.626 L 278.652 118.296 ZM 300.876 129.886 C 300.989 130.273 301.046 130.696 301.046 131.156 C 300.419 131.109 299.409 131.086 298.016 131.086 C 296.529 131.086 295.483 131.109 294.876 131.156 C 294.876 130.616 294.939 130.193 295.066 129.886 C 295.466 129.839 295.759 129.759 295.946 129.646 C 296.126 129.533 296.216 129.366 296.216 129.146 C 296.216 128.906 296.106 128.536 295.886 128.036 L 295.096 126.166 C 292.616 126.166 290.583 126.206 288.996 126.286 L 288.516 127.536 C 288.309 128.063 288.206 128.503 288.206 128.856 C 288.206 129.176 288.303 129.419 288.496 129.586 C 288.683 129.753 288.976 129.853 289.376 129.886 C 289.509 130.273 289.576 130.696 289.576 131.156 C 289.029 131.109 288.213 131.086 287.126 131.086 C 286.659 131.086 285.969 131.109 285.056 131.156 C 285.056 130.663 285.123 130.246 285.256 129.906 C 285.669 129.826 285.993 129.623 286.226 129.296 C 286.459 128.969 286.776 128.326 287.176 127.366 L 292.166 114.836 C 292.499 114.756 292.889 114.716 293.336 114.716 L 298.956 127.436 C 299.263 128.109 299.509 128.609 299.696 128.936 C 299.889 129.263 300.069 129.496 300.236 129.636 C 300.409 129.769 300.623 129.853 300.876 129.886 Z M 289.526 124.946 L 294.566 124.946 L 293.006 121.296 C 292.573 120.336 292.203 119.383 291.896 118.436 C 291.609 119.363 291.283 120.316 290.916 121.296 L 289.526 124.946 Z" transform="matrix(1, 0, 0, 1, 0, 0)" style="fill: rgb(51, 51, 51); white-space: pre;"/>
  <path d="M 74.559 145.454 C 74.619 145.554 74.669 145.654 74.709 145.754 C 74.749 145.861 74.789 145.971 74.829 146.084 C 74.869 145.971 74.912 145.861 74.959 145.754 C 75.006 145.654 75.056 145.554 75.109 145.454 L 78.019 140.164 C 78.072 140.071 78.126 140.014 78.179 139.994 C 78.239 139.974 78.319 139.964 78.419 139.964 L 79.279 139.964 L 79.279 148.564 L 78.259 148.564 L 78.259 142.244 C 78.259 142.164 78.262 142.074 78.269 141.974 C 78.269 141.881 78.272 141.784 78.279 141.684 L 75.339 147.054 C 75.239 147.234 75.099 147.324 74.919 147.324 L 74.749 147.324 C 74.569 147.324 74.429 147.234 74.329 147.054 L 71.319 141.664 C 71.332 141.771 71.342 141.874 71.349 141.974 C 71.349 142.074 71.349 142.164 71.349 142.244 L 71.349 148.564 L 70.329 148.564 L 70.329 139.964 L 71.189 139.964 C 71.296 139.964 71.376 139.974 71.429 139.994 C 71.489 140.014 71.542 140.071 71.589 140.164 L 74.559 145.454 ZM 85.665 144.674 L 85.665 148.564 L 85.195 148.564 C 85.088 148.564 85.001 148.547 84.935 148.514 C 84.875 148.481 84.835 148.414 84.815 148.314 L 84.695 147.744 C 84.535 147.891 84.378 148.021 84.225 148.134 C 84.071 148.247 83.911 148.344 83.745 148.424 C 83.578 148.504 83.398 148.564 83.205 148.604 C 83.018 148.644 82.808 148.664 82.575 148.664 C 82.341 148.664 82.121 148.631 81.915 148.564 C 81.708 148.497 81.528 148.397 81.375 148.264 C 81.221 148.131 81.101 147.964 81.015 147.764 C 80.921 147.564 80.875 147.324 80.875 147.044 C 80.875 146.804 80.941 146.574 81.075 146.354 C 81.208 146.134 81.421 145.937 81.715 145.764 C 82.008 145.591 82.391 145.447 82.865 145.334 C 83.345 145.227 83.928 145.167 84.615 145.154 L 84.615 144.674 C 84.615 144.201 84.515 143.844 84.315 143.604 C 84.108 143.364 83.808 143.244 83.415 143.244 C 83.155 143.244 82.935 143.277 82.755 143.344 C 82.581 143.411 82.428 143.484 82.295 143.564 C 82.168 143.644 82.058 143.717 81.965 143.784 C 81.865 143.851 81.771 143.884 81.685 143.884 C 81.611 143.884 81.548 143.864 81.495 143.824 C 81.441 143.791 81.398 143.744 81.365 143.684 L 81.175 143.344 C 81.508 143.017 81.868 142.774 82.255 142.614 C 82.641 142.454 83.071 142.374 83.545 142.374 C 83.885 142.374 84.188 142.431 84.455 142.544 C 84.715 142.657 84.935 142.814 85.115 143.014 C 85.295 143.214 85.431 143.457 85.525 143.744 C 85.618 144.024 85.665 144.334 85.665 144.674 Z M 82.895 147.914 C 83.081 147.914 83.251 147.894 83.405 147.854 C 83.565 147.814 83.711 147.761 83.845 147.694 C 83.985 147.621 84.118 147.534 84.245 147.434 C 84.371 147.334 84.495 147.221 84.615 147.094 L 84.615 145.824 C 84.121 145.844 83.705 145.884 83.365 145.944 C 83.018 146.004 82.738 146.084 82.525 146.184 C 82.305 146.284 82.148 146.404 82.055 146.544 C 81.955 146.677 81.905 146.827 81.905 146.994 C 81.905 147.154 81.931 147.294 81.985 147.414 C 82.031 147.527 82.101 147.621 82.195 147.694 C 82.281 147.767 82.385 147.824 82.505 147.864 C 82.625 147.897 82.755 147.914 82.895 147.914 ZM 88.346 150.624 L 87.286 150.624 L 87.286 142.484 L 87.916 142.484 C 88.07 142.484 88.166 142.557 88.206 142.704 L 88.296 143.424 C 88.556 143.111 88.853 142.857 89.186 142.664 C 89.52 142.471 89.906 142.374 90.346 142.374 C 90.693 142.374 91.006 142.441 91.286 142.574 C 91.573 142.714 91.816 142.914 92.016 143.174 C 92.216 143.434 92.37 143.757 92.476 144.144 C 92.583 144.537 92.636 144.984 92.636 145.484 C 92.636 145.931 92.576 146.347 92.456 146.734 C 92.336 147.121 92.166 147.454 91.946 147.734 C 91.72 148.021 91.443 148.244 91.116 148.404 C 90.79 148.564 90.423 148.644 90.016 148.644 C 89.643 148.644 89.323 148.584 89.056 148.464 C 88.79 148.337 88.553 148.161 88.346 147.934 L 88.346 150.624 Z M 89.986 143.244 C 89.64 143.244 89.336 143.324 89.076 143.484 C 88.81 143.644 88.566 143.871 88.346 144.164 L 88.346 147.104 C 88.546 147.364 88.763 147.547 88.996 147.654 C 89.23 147.767 89.49 147.824 89.776 147.824 C 90.343 147.824 90.776 147.621 91.076 147.214 C 91.383 146.807 91.536 146.231 91.536 145.484 C 91.536 145.091 91.503 144.751 91.436 144.464 C 91.363 144.184 91.26 143.951 91.126 143.764 C 90.993 143.584 90.833 143.451 90.646 143.364 C 90.453 143.284 90.233 143.244 89.986 143.244 ZM 96.308 142.394 C 96.674 142.394 97.011 142.454 97.318 142.574 C 97.624 142.694 97.891 142.871 98.118 143.104 C 98.338 143.331 98.511 143.614 98.638 143.954 C 98.764 144.294 98.828 144.677 98.828 145.104 C 98.828 145.277 98.811 145.391 98.778 145.444 C 98.738 145.497 98.668 145.524 98.568 145.524 L 94.528 145.524 C 94.534 145.911 94.588 146.247 94.688 146.534 C 94.781 146.814 94.911 147.051 95.078 147.244 C 95.244 147.431 95.444 147.571 95.678 147.664 C 95.911 147.757 96.171 147.804 96.458 147.804 C 96.724 147.804 96.958 147.774 97.158 147.714 C 97.351 147.654 97.518 147.587 97.658 147.514 C 97.798 147.441 97.914 147.374 98.008 147.314 C 98.101 147.254 98.181 147.224 98.248 147.224 C 98.334 147.224 98.401 147.257 98.448 147.324 L 98.748 147.714 C 98.621 147.874 98.464 148.014 98.278 148.134 C 98.091 148.247 97.894 148.344 97.688 148.424 C 97.474 148.497 97.258 148.554 97.038 148.594 C 96.811 148.627 96.588 148.644 96.368 148.644 C 95.948 148.644 95.561 148.574 95.208 148.434 C 94.854 148.294 94.548 148.087 94.288 147.814 C 94.034 147.541 93.834 147.201 93.688 146.794 C 93.541 146.387 93.468 145.924 93.468 145.404 C 93.468 144.977 93.534 144.581 93.668 144.214 C 93.794 143.847 93.981 143.527 94.228 143.254 C 94.474 142.987 94.771 142.777 95.118 142.624 C 95.471 142.471 95.868 142.394 96.308 142.394 Z M 96.338 143.174 C 95.818 143.174 95.411 143.324 95.118 143.624 C 94.818 143.924 94.634 144.337 94.568 144.864 L 97.868 144.864 C 97.868 144.617 97.834 144.391 97.768 144.184 C 97.701 143.977 97.601 143.797 97.468 143.644 C 97.334 143.497 97.174 143.384 96.988 143.304 C 96.794 143.217 96.578 143.174 96.338 143.174 ZM 104.653 144.674 L 104.653 148.564 L 104.183 148.564 C 104.077 148.564 103.99 148.547 103.923 148.514 C 103.863 148.481 103.823 148.414 103.803 148.314 L 103.683 147.744 C 103.523 147.891 103.367 148.021 103.213 148.134 C 103.06 148.247 102.9 148.344 102.733 148.424 C 102.567 148.504 102.387 148.564 102.193 148.604 C 102.007 148.644 101.797 148.664 101.563 148.664 C 101.33 148.664 101.11 148.631 100.903 148.564 C 100.697 148.497 100.517 148.397 100.363 148.264 C 100.21 148.131 100.09 147.964 100.003 147.764 C 99.91 147.564 99.863 147.324 99.863 147.044 C 99.863 146.804 99.93 146.574 100.063 146.354 C 100.197 146.134 100.41 145.937 100.703 145.764 C 100.997 145.591 101.38 145.447 101.853 145.334 C 102.333 145.227 102.917 145.167 103.603 145.154 L 103.603 144.674 C 103.603 144.201 103.503 143.844 103.303 143.604 C 103.097 143.364 102.797 143.244 102.403 143.244 C 102.143 143.244 101.923 143.277 101.743 143.344 C 101.57 143.411 101.417 143.484 101.283 143.564 C 101.157 143.644 101.047 143.717 100.953 143.784 C 100.853 143.851 100.76 143.884 100.673 143.884 C 100.6 143.884 100.537 143.864 100.483 143.824 C 100.43 143.791 100.387 143.744 100.353 143.684 L 100.163 143.344 C 100.497 143.017 100.857 142.774 101.243 142.614 C 101.63 142.454 102.06 142.374 102.533 142.374 C 102.873 142.374 103.177 142.431 103.443 142.544 C 103.703 142.657 103.923 142.814 104.103 143.014 C 104.283 143.214 104.42 143.457 104.513 143.744 C 104.607 144.024 104.653 144.334 104.653 144.674 Z M 101.883 147.914 C 102.07 147.914 102.24 147.894 102.393 147.854 C 102.553 147.814 102.7 147.761 102.833 147.694 C 102.973 147.621 103.107 147.534 103.233 147.434 C 103.36 147.334 103.483 147.221 103.603 147.094 L 103.603 145.824 C 103.11 145.844 102.693 145.884 102.353 145.944 C 102.007 146.004 101.727 146.084 101.513 146.184 C 101.293 146.284 101.137 146.404 101.043 146.544 C 100.943 146.677 100.893 146.827 100.893 146.994 C 100.893 147.154 100.92 147.294 100.973 147.414 C 101.02 147.527 101.09 147.621 101.183 147.694 C 101.27 147.767 101.373 147.824 101.493 147.864 C 101.613 147.897 101.743 147.914 101.883 147.914 ZM 107.335 148.564 L 106.275 148.564 L 106.275 142.484 L 106.905 142.484 C 107.058 142.484 107.155 142.557 107.195 142.704 L 107.275 143.364 C 107.542 143.077 107.838 142.844 108.165 142.664 C 108.492 142.484 108.868 142.394 109.295 142.394 C 109.628 142.394 109.922 142.447 110.175 142.554 C 110.428 142.667 110.642 142.824 110.815 143.024 C 110.982 143.224 111.108 143.467 111.195 143.754 C 111.282 144.034 111.325 144.347 111.325 144.694 L 111.325 148.564 L 110.265 148.564 L 110.265 144.694 C 110.265 144.234 110.158 143.877 109.945 143.624 C 109.738 143.371 109.418 143.244 108.985 143.244 C 108.665 143.244 108.368 143.321 108.095 143.474 C 107.822 143.621 107.568 143.824 107.335 144.084 L 107.335 148.564 ZM 117.854 148.564 L 117.214 148.564 C 117.068 148.564 116.974 148.491 116.934 148.344 L 116.834 147.604 C 116.574 147.917 116.278 148.171 115.944 148.364 C 115.611 148.551 115.228 148.644 114.794 148.644 C 114.448 148.644 114.131 148.577 113.844 148.444 C 113.564 148.311 113.324 148.114 113.124 147.854 C 112.924 147.594 112.768 147.271 112.654 146.884 C 112.548 146.497 112.494 146.051 112.494 145.544 C 112.494 145.097 112.554 144.681 112.674 144.294 C 112.794 143.907 112.968 143.574 113.194 143.294 C 113.421 143.007 113.698 142.784 114.024 142.624 C 114.344 142.457 114.711 142.374 115.124 142.374 C 115.498 142.374 115.814 142.437 116.074 142.564 C 116.341 142.691 116.578 142.867 116.784 143.094 L 116.784 139.724 L 117.854 139.724 L 117.854 148.564 Z M 115.144 147.784 C 115.498 147.784 115.804 147.704 116.064 147.544 C 116.324 147.384 116.564 147.157 116.784 146.864 L 116.784 143.924 C 116.591 143.664 116.378 143.481 116.144 143.374 C 115.911 143.267 115.651 143.214 115.364 143.214 C 114.798 143.214 114.361 143.414 114.054 143.814 C 113.754 144.221 113.604 144.797 113.604 145.544 C 113.604 145.944 113.638 146.284 113.704 146.564 C 113.771 146.844 113.871 147.077 114.004 147.264 C 114.138 147.444 114.298 147.574 114.484 147.654 C 114.678 147.741 114.898 147.784 115.144 147.784 ZM 122.11 142.394 C 122.55 142.394 122.95 142.467 123.31 142.614 C 123.67 142.761 123.973 142.971 124.22 143.244 C 124.473 143.517 124.666 143.847 124.8 144.234 C 124.933 144.614 125 145.044 125 145.524 C 125 146.004 124.933 146.434 124.8 146.814 C 124.666 147.201 124.473 147.531 124.22 147.804 C 123.973 148.077 123.67 148.284 123.31 148.424 C 122.95 148.571 122.55 148.644 122.11 148.644 C 121.663 148.644 121.26 148.571 120.9 148.424 C 120.546 148.284 120.243 148.077 119.99 147.804 C 119.736 147.531 119.543 147.201 119.41 146.814 C 119.27 146.434 119.2 146.004 119.2 145.524 C 119.2 145.044 119.27 144.614 119.41 144.234 C 119.543 143.847 119.736 143.517 119.99 143.244 C 120.243 142.971 120.546 142.761 120.9 142.614 C 121.26 142.467 121.663 142.394 122.11 142.394 Z M 122.11 147.814 C 122.71 147.814 123.156 147.614 123.45 147.214 C 123.743 146.807 123.89 146.244 123.89 145.524 C 123.89 144.804 123.743 144.241 123.45 143.834 C 123.156 143.434 122.71 143.234 122.11 143.234 C 121.803 143.234 121.536 143.284 121.31 143.384 C 121.09 143.491 120.903 143.641 120.75 143.834 C 120.603 144.034 120.493 144.277 120.42 144.564 C 120.346 144.844 120.31 145.164 120.31 145.524 C 120.31 145.884 120.346 146.207 120.42 146.494 C 120.493 146.781 120.603 147.021 120.75 147.214 C 120.903 147.407 121.09 147.554 121.31 147.654 C 121.536 147.761 121.803 147.814 122.11 147.814 ZM 131.094 142.394 C 131.534 142.394 131.934 142.467 132.294 142.614 C 132.654 142.761 132.958 142.971 133.204 143.244 C 133.458 143.517 133.651 143.847 133.784 144.234 C 133.918 144.614 133.984 145.044 133.984 145.524 C 133.984 146.004 133.918 146.434 133.784 146.814 C 133.651 147.201 133.458 147.531 133.204 147.804 C 132.958 148.077 132.654 148.284 132.294 148.424 C 131.934 148.571 131.534 148.644 131.094 148.644 C 130.648 148.644 130.244 148.571 129.884 148.424 C 129.531 148.284 129.228 148.077 128.974 147.804 C 128.721 147.531 128.528 147.201 128.394 146.814 C 128.254 146.434 128.184 146.004 128.184 145.524 C 128.184 145.044 128.254 144.614 128.394 144.234 C 128.528 143.847 128.721 143.517 128.974 143.244 C 129.228 142.971 129.531 142.761 129.884 142.614 C 130.244 142.467 130.648 142.394 131.094 142.394 Z M 131.094 147.814 C 131.694 147.814 132.141 147.614 132.434 147.214 C 132.728 146.807 132.874 146.244 132.874 145.524 C 132.874 144.804 132.728 144.241 132.434 143.834 C 132.141 143.434 131.694 143.234 131.094 143.234 C 130.788 143.234 130.521 143.284 130.294 143.384 C 130.074 143.491 129.888 143.641 129.734 143.834 C 129.588 144.034 129.478 144.277 129.404 144.564 C 129.331 144.844 129.294 145.164 129.294 145.524 C 129.294 145.884 129.331 146.207 129.404 146.494 C 129.478 146.781 129.588 147.021 129.734 147.214 C 129.888 147.407 130.074 147.554 130.294 147.654 C 130.521 147.761 130.788 147.814 131.094 147.814 ZM 137.739 142.484 L 138.799 142.484 L 138.799 149.014 C 138.799 149.261 138.769 149.487 138.709 149.694 C 138.642 149.907 138.542 150.091 138.409 150.244 C 138.269 150.397 138.089 150.521 137.869 150.614 C 137.649 150.701 137.389 150.744 137.089 150.744 C 136.955 150.744 136.835 150.734 136.729 150.714 C 136.622 150.694 136.512 150.664 136.399 150.624 L 136.449 150.054 C 136.455 150.001 136.475 149.967 136.509 149.954 C 136.535 149.941 136.579 149.934 136.639 149.934 C 136.672 149.934 136.705 149.934 136.739 149.934 C 136.772 149.934 136.815 149.934 136.869 149.934 C 137.182 149.934 137.405 149.864 137.539 149.724 C 137.672 149.577 137.739 149.341 137.739 149.014 L 137.739 142.484 Z M 139.039 140.574 C 139.039 140.681 139.019 140.777 138.979 140.864 C 138.939 140.957 138.882 141.037 138.809 141.104 C 138.742 141.177 138.662 141.234 138.569 141.274 C 138.475 141.314 138.379 141.334 138.279 141.334 C 138.172 141.334 138.075 141.314 137.989 141.274 C 137.895 141.234 137.815 141.177 137.749 141.104 C 137.675 141.037 137.619 140.957 137.579 140.864 C 137.539 140.777 137.519 140.681 137.519 140.574 C 137.519 140.474 137.539 140.377 137.579 140.284 C 137.619 140.191 137.675 140.107 137.749 140.034 C 137.815 139.967 137.895 139.914 137.989 139.874 C 138.075 139.834 138.172 139.814 138.279 139.814 C 138.379 139.814 138.475 139.834 138.569 139.874 C 138.662 139.914 138.742 139.967 138.809 140.034 C 138.882 140.107 138.939 140.191 138.979 140.284 C 139.019 140.377 139.039 140.474 139.039 140.574 ZM 143.126 142.394 C 143.566 142.394 143.966 142.467 144.326 142.614 C 144.686 142.761 144.989 142.971 145.236 143.244 C 145.489 143.517 145.682 143.847 145.816 144.234 C 145.949 144.614 146.016 145.044 146.016 145.524 C 146.016 146.004 145.949 146.434 145.816 146.814 C 145.682 147.201 145.489 147.531 145.236 147.804 C 144.989 148.077 144.686 148.284 144.326 148.424 C 143.966 148.571 143.566 148.644 143.126 148.644 C 142.679 148.644 142.276 148.571 141.916 148.424 C 141.562 148.284 141.259 148.077 141.006 147.804 C 140.752 147.531 140.559 147.201 140.426 146.814 C 140.286 146.434 140.216 146.004 140.216 145.524 C 140.216 145.044 140.286 144.614 140.426 144.234 C 140.559 143.847 140.752 143.517 141.006 143.244 C 141.259 142.971 141.562 142.761 141.916 142.614 C 142.276 142.467 142.679 142.394 143.126 142.394 Z M 143.126 147.814 C 143.726 147.814 144.172 147.614 144.466 147.214 C 144.759 146.807 144.906 146.244 144.906 145.524 C 144.906 144.804 144.759 144.241 144.466 143.834 C 144.172 143.434 143.726 143.234 143.126 143.234 C 142.819 143.234 142.552 143.284 142.326 143.384 C 142.106 143.491 141.919 143.641 141.766 143.834 C 141.619 144.034 141.509 144.277 141.436 144.564 C 141.362 144.844 141.326 145.164 141.326 145.524 C 141.326 145.884 141.362 146.207 141.436 146.494 C 141.509 146.781 141.619 147.021 141.766 147.214 C 141.919 147.407 142.106 147.554 142.326 147.654 C 142.552 147.761 142.819 147.814 143.126 147.814 ZM 148.395 148.564 L 147.335 148.564 L 147.335 142.484 L 147.945 142.484 C 148.058 142.484 148.138 142.507 148.185 142.554 C 148.225 142.594 148.255 142.671 148.275 142.784 L 148.345 143.724 C 148.552 143.304 148.808 142.974 149.115 142.734 C 149.422 142.494 149.782 142.374 150.195 142.374 C 150.362 142.374 150.512 142.394 150.645 142.434 C 150.785 142.474 150.912 142.527 151.025 142.594 L 150.885 143.394 C 150.858 143.494 150.798 143.544 150.705 143.544 C 150.645 143.544 150.558 143.524 150.445 143.484 C 150.332 143.444 150.168 143.424 149.955 143.424 C 149.588 143.424 149.278 143.534 149.025 143.754 C 148.778 143.967 148.568 144.281 148.395 144.694 L 148.395 148.564 ZM 153.229 148.564 L 152.169 148.564 L 152.169 142.484 L 152.799 142.484 C 152.952 142.484 153.049 142.557 153.089 142.704 L 153.169 143.364 C 153.436 143.077 153.732 142.844 154.059 142.664 C 154.386 142.484 154.762 142.394 155.189 142.394 C 155.522 142.394 155.816 142.447 156.069 142.554 C 156.322 142.667 156.536 142.824 156.709 143.024 C 156.876 143.224 157.002 143.467 157.089 143.754 C 157.176 144.034 157.219 144.347 157.219 144.694 L 157.219 148.564 L 156.159 148.564 L 156.159 144.694 C 156.159 144.234 156.052 143.877 155.839 143.624 C 155.632 143.371 155.312 143.244 154.879 143.244 C 154.559 143.244 154.262 143.321 153.989 143.474 C 153.716 143.621 153.462 143.824 153.229 144.084 L 153.229 148.564 ZM 163.298 144.674 L 163.298 148.564 L 162.828 148.564 C 162.722 148.564 162.635 148.547 162.568 148.514 C 162.508 148.481 162.468 148.414 162.448 148.314 L 162.328 147.744 C 162.168 147.891 162.012 148.021 161.858 148.134 C 161.705 148.247 161.545 148.344 161.378 148.424 C 161.212 148.504 161.032 148.564 160.838 148.604 C 160.652 148.644 160.442 148.664 160.208 148.664 C 159.975 148.664 159.755 148.631 159.548 148.564 C 159.342 148.497 159.162 148.397 159.008 148.264 C 158.855 148.131 158.735 147.964 158.648 147.764 C 158.555 147.564 158.508 147.324 158.508 147.044 C 158.508 146.804 158.575 146.574 158.708 146.354 C 158.842 146.134 159.055 145.937 159.348 145.764 C 159.642 145.591 160.025 145.447 160.498 145.334 C 160.978 145.227 161.562 145.167 162.248 145.154 L 162.248 144.674 C 162.248 144.201 162.148 143.844 161.948 143.604 C 161.742 143.364 161.442 143.244 161.048 143.244 C 160.788 143.244 160.568 143.277 160.388 143.344 C 160.215 143.411 160.062 143.484 159.928 143.564 C 159.802 143.644 159.692 143.717 159.598 143.784 C 159.498 143.851 159.405 143.884 159.318 143.884 C 159.245 143.884 159.182 143.864 159.128 143.824 C 159.075 143.791 159.032 143.744 158.998 143.684 L 158.808 143.344 C 159.142 143.017 159.502 142.774 159.888 142.614 C 160.275 142.454 160.705 142.374 161.178 142.374 C 161.518 142.374 161.822 142.431 162.088 142.544 C 162.348 142.657 162.568 142.814 162.748 143.014 C 162.928 143.214 163.065 143.457 163.158 143.744 C 163.252 144.024 163.298 144.334 163.298 144.674 Z M 160.528 147.914 C 160.715 147.914 160.885 147.894 161.038 147.854 C 161.198 147.814 161.345 147.761 161.478 147.694 C 161.618 147.621 161.752 147.534 161.878 147.434 C 162.005 147.334 162.128 147.221 162.248 147.094 L 162.248 145.824 C 161.755 145.844 161.338 145.884 160.998 145.944 C 160.652 146.004 160.372 146.084 160.158 146.184 C 159.938 146.284 159.782 146.404 159.688 146.544 C 159.588 146.677 159.538 146.827 159.538 146.994 C 159.538 147.154 159.565 147.294 159.618 147.414 C 159.665 147.527 159.735 147.621 159.828 147.694 C 159.915 147.767 160.018 147.824 160.138 147.864 C 160.258 147.897 160.388 147.914 160.528 147.914 ZM 165.04 139.724 L 166.1 139.724 L 166.1 148.564 L 165.04 148.564 L 165.04 139.724 ZM 168.111 142.484 L 169.171 142.484 L 169.171 148.564 L 168.111 148.564 L 168.111 142.484 Z M 169.411 140.574 C 169.411 140.681 169.391 140.777 169.351 140.864 C 169.311 140.957 169.254 141.037 169.181 141.104 C 169.114 141.177 169.034 141.234 168.941 141.274 C 168.848 141.314 168.751 141.334 168.651 141.334 C 168.544 141.334 168.448 141.314 168.361 141.274 C 168.268 141.234 168.188 141.177 168.121 141.104 C 168.048 141.037 167.991 140.957 167.951 140.864 C 167.911 140.777 167.891 140.681 167.891 140.574 C 167.891 140.474 167.911 140.377 167.951 140.284 C 167.991 140.191 168.048 140.107 168.121 140.034 C 168.188 139.967 168.268 139.914 168.361 139.874 C 168.448 139.834 168.544 139.814 168.651 139.814 C 168.751 139.814 168.848 139.834 168.941 139.874 C 169.034 139.914 169.114 139.967 169.181 140.034 C 169.254 140.107 169.311 140.191 169.351 140.284 C 169.391 140.377 169.411 140.474 169.411 140.574 ZM 174.782 143.094 L 174.542 143.484 C 174.488 143.577 174.412 143.624 174.312 143.624 C 174.252 143.624 174.185 143.601 174.112 143.554 C 174.038 143.507 173.945 143.457 173.832 143.404 C 173.725 143.351 173.595 143.301 173.442 143.254 C 173.288 143.207 173.108 143.184 172.902 143.184 C 172.722 143.184 172.558 143.207 172.412 143.254 C 172.272 143.301 172.148 143.364 172.042 143.444 C 171.942 143.524 171.865 143.617 171.812 143.724 C 171.758 143.831 171.732 143.947 171.732 144.074 C 171.732 144.227 171.775 144.357 171.862 144.464 C 171.955 144.564 172.075 144.654 172.222 144.734 C 172.368 144.807 172.535 144.874 172.722 144.934 C 172.915 144.987 173.108 145.047 173.302 145.114 C 173.502 145.181 173.695 145.254 173.882 145.334 C 174.068 145.414 174.238 145.514 174.392 145.634 C 174.538 145.754 174.655 145.901 174.742 146.074 C 174.835 146.247 174.882 146.457 174.882 146.704 C 174.882 146.984 174.832 147.244 174.732 147.484 C 174.632 147.717 174.482 147.921 174.282 148.094 C 174.088 148.274 173.848 148.414 173.562 148.514 C 173.282 148.614 172.955 148.664 172.582 148.664 C 172.155 148.664 171.772 148.594 171.432 148.454 C 171.085 148.314 170.792 148.137 170.552 147.924 L 170.802 147.514 C 170.835 147.461 170.875 147.421 170.922 147.394 C 170.962 147.367 171.018 147.354 171.092 147.354 C 171.165 147.354 171.242 147.381 171.322 147.434 C 171.402 147.494 171.498 147.557 171.612 147.624 C 171.725 147.691 171.862 147.751 172.022 147.804 C 172.188 147.864 172.392 147.894 172.632 147.894 C 172.845 147.894 173.028 147.867 173.182 147.814 C 173.335 147.761 173.465 147.687 173.572 147.594 C 173.678 147.501 173.755 147.394 173.802 147.274 C 173.855 147.154 173.882 147.027 173.882 146.894 C 173.882 146.721 173.835 146.581 173.742 146.474 C 173.655 146.361 173.535 146.267 173.382 146.194 C 173.235 146.114 173.068 146.044 172.882 145.984 C 172.688 145.931 172.495 145.871 172.302 145.804 C 172.102 145.737 171.905 145.664 171.712 145.584 C 171.525 145.504 171.358 145.401 171.212 145.274 C 171.058 145.154 170.938 145.001 170.852 144.814 C 170.758 144.634 170.712 144.414 170.712 144.154 C 170.712 143.921 170.762 143.697 170.862 143.484 C 170.955 143.271 171.095 143.084 171.282 142.924 C 171.462 142.757 171.688 142.627 171.962 142.534 C 172.228 142.441 172.532 142.394 172.872 142.394 C 173.272 142.394 173.632 142.454 173.952 142.574 C 174.272 142.701 174.548 142.874 174.782 143.094 ZM 177.328 148.564 L 176.268 148.564 L 176.268 142.484 L 176.898 142.484 C 177.051 142.484 177.148 142.557 177.188 142.704 L 177.268 143.334 C 177.488 143.054 177.738 142.827 178.018 142.654 C 178.298 142.481 178.621 142.394 178.988 142.394 C 179.401 142.394 179.734 142.507 179.988 142.734 C 180.241 142.961 180.424 143.267 180.538 143.654 C 180.618 143.434 180.728 143.244 180.868 143.084 C 181.008 142.924 181.164 142.794 181.338 142.694 C 181.504 142.587 181.688 142.511 181.888 142.464 C 182.081 142.417 182.278 142.394 182.478 142.394 C 182.798 142.394 183.081 142.444 183.328 142.544 C 183.581 142.644 183.794 142.794 183.968 142.994 C 184.141 143.187 184.274 143.427 184.368 143.714 C 184.454 144.001 184.498 144.327 184.498 144.694 L 184.498 148.564 L 183.438 148.564 L 183.438 144.694 C 183.438 144.221 183.331 143.861 183.118 143.614 C 182.911 143.367 182.611 143.244 182.218 143.244 C 182.038 143.244 181.871 143.274 181.718 143.334 C 181.558 143.394 181.418 143.484 181.298 143.604 C 181.178 143.724 181.084 143.877 181.018 144.064 C 180.944 144.244 180.908 144.454 180.908 144.694 L 180.908 148.564 L 179.838 148.564 L 179.838 144.694 C 179.838 144.207 179.741 143.844 179.548 143.604 C 179.348 143.364 179.061 143.244 178.688 143.244 C 178.421 143.244 178.174 143.314 177.948 143.454 C 177.728 143.594 177.521 143.787 177.328 144.034 L 177.328 148.564 ZM 188.576 142.394 C 189.016 142.394 189.416 142.467 189.776 142.614 C 190.136 142.761 190.439 142.971 190.686 143.244 C 190.939 143.517 191.133 143.847 191.266 144.234 C 191.399 144.614 191.466 145.044 191.466 145.524 C 191.466 146.004 191.399 146.434 191.266 146.814 C 191.133 147.201 190.939 147.531 190.686 147.804 C 190.439 148.077 190.136 148.284 189.776 148.424 C 189.416 148.571 189.016 148.644 188.576 148.644 C 188.129 148.644 187.726 148.571 187.366 148.424 C 187.013 148.284 186.709 148.077 186.456 147.804 C 186.203 147.531 186.009 147.201 185.876 146.814 C 185.736 146.434 185.666 146.004 185.666 145.524 C 185.666 145.044 185.736 144.614 185.876 144.234 C 186.009 143.847 186.203 143.517 186.456 143.244 C 186.709 142.971 187.013 142.761 187.366 142.614 C 187.726 142.467 188.129 142.394 188.576 142.394 Z M 188.576 147.814 C 189.176 147.814 189.623 147.614 189.916 147.214 C 190.209 146.807 190.356 146.244 190.356 145.524 C 190.356 144.804 190.209 144.241 189.916 143.834 C 189.623 143.434 189.176 143.234 188.576 143.234 C 188.269 143.234 188.003 143.284 187.776 143.384 C 187.556 143.491 187.369 143.641 187.216 143.834 C 187.069 144.034 186.959 144.277 186.886 144.564 C 186.813 144.844 186.776 145.164 186.776 145.524 C 186.776 145.884 186.813 146.207 186.886 146.494 C 186.959 146.781 187.069 147.021 187.216 147.214 C 187.369 147.407 187.556 147.554 187.776 147.654 C 188.003 147.761 188.269 147.814 188.576 147.814 ZM 195.22 139.724 L 196.28 139.724 L 196.28 148.564 L 195.22 148.564 L 195.22 139.724 ZM 200.631 142.394 C 201.071 142.394 201.471 142.467 201.831 142.614 C 202.191 142.761 202.494 142.971 202.741 143.244 C 202.994 143.517 203.188 143.847 203.321 144.234 C 203.454 144.614 203.521 145.044 203.521 145.524 C 203.521 146.004 203.454 146.434 203.321 146.814 C 203.188 147.201 202.994 147.531 202.741 147.804 C 202.494 148.077 202.191 148.284 201.831 148.424 C 201.471 148.571 201.071 148.644 200.631 148.644 C 200.184 148.644 199.781 148.571 199.421 148.424 C 199.068 148.284 198.764 148.077 198.511 147.804 C 198.258 147.531 198.064 147.201 197.931 146.814 C 197.791 146.434 197.721 146.004 197.721 145.524 C 197.721 145.044 197.791 144.614 197.931 144.234 C 198.064 143.847 198.258 143.517 198.511 143.244 C 198.764 142.971 199.068 142.761 199.421 142.614 C 199.781 142.467 200.184 142.394 200.631 142.394 Z M 200.631 147.814 C 201.231 147.814 201.678 147.614 201.971 147.214 C 202.264 146.807 202.411 146.244 202.411 145.524 C 202.411 144.804 202.264 144.241 201.971 143.834 C 201.678 143.434 201.231 143.234 200.631 143.234 C 200.324 143.234 200.058 143.284 199.831 143.384 C 199.611 143.491 199.424 143.641 199.271 143.834 C 199.124 144.034 199.014 144.277 198.941 144.564 C 198.868 144.844 198.831 145.164 198.831 145.524 C 198.831 145.884 198.868 146.207 198.941 146.494 C 199.014 146.781 199.124 147.021 199.271 147.214 C 199.424 147.407 199.611 147.554 199.831 147.654 C 200.058 147.761 200.324 147.814 200.631 147.814 ZM 209.261 143.184 L 208.981 143.564 C 208.947 143.611 208.917 143.644 208.891 143.664 C 208.857 143.691 208.811 143.704 208.751 143.704 C 208.691 143.704 208.624 143.677 208.551 143.624 C 208.484 143.577 208.397 143.524 208.291 143.464 C 208.177 143.404 208.044 143.351 207.891 143.304 C 207.737 143.251 207.551 143.224 207.331 143.224 C 207.031 143.224 206.767 143.277 206.541 143.384 C 206.314 143.491 206.124 143.644 205.971 143.844 C 205.817 144.044 205.701 144.284 205.621 144.564 C 205.541 144.851 205.501 145.171 205.501 145.524 C 205.501 145.891 205.544 146.217 205.631 146.504 C 205.711 146.791 205.827 147.031 205.981 147.224 C 206.134 147.417 206.321 147.564 206.541 147.664 C 206.754 147.771 206.997 147.824 207.271 147.824 C 207.531 147.824 207.744 147.791 207.911 147.724 C 208.084 147.664 208.224 147.597 208.331 147.524 C 208.444 147.444 208.537 147.374 208.611 147.314 C 208.684 147.254 208.757 147.224 208.831 147.224 C 208.917 147.224 208.984 147.257 209.031 147.324 L 209.331 147.714 C 209.064 148.034 208.734 148.271 208.341 148.424 C 207.947 148.571 207.531 148.644 207.091 148.644 C 206.711 148.644 206.357 148.574 206.031 148.434 C 205.704 148.294 205.421 148.094 205.181 147.834 C 204.941 147.567 204.751 147.237 204.611 146.844 C 204.471 146.457 204.401 146.017 204.401 145.524 C 204.401 145.071 204.464 144.651 204.591 144.264 C 204.717 143.884 204.904 143.554 205.151 143.274 C 205.391 142.994 205.687 142.777 206.041 142.624 C 206.401 142.471 206.811 142.394 207.271 142.394 C 207.691 142.394 208.064 142.461 208.391 142.594 C 208.724 142.734 209.014 142.931 209.261 143.184 ZM 214.902 144.674 L 214.902 148.564 L 214.432 148.564 C 214.326 148.564 214.239 148.547 214.172 148.514 C 214.112 148.481 214.072 148.414 214.052 148.314 L 213.932 147.744 C 213.772 147.891 213.616 148.021 213.462 148.134 C 213.309 148.247 213.149 148.344 212.982 148.424 C 212.816 148.504 212.636 148.564 212.442 148.604 C 212.256 148.644 212.046 148.664 211.812 148.664 C 211.579 148.664 211.359 148.631 211.152 148.564 C 210.946 148.497 210.766 148.397 210.612 148.264 C 210.459 148.131 210.339 147.964 210.252 147.764 C 210.159 147.564 210.112 147.324 210.112 147.044 C 210.112 146.804 210.179 146.574 210.312 146.354 C 210.446 146.134 210.659 145.937 210.952 145.764 C 211.246 145.591 211.629 145.447 212.102 145.334 C 212.582 145.227 213.166 145.167 213.852 145.154 L 213.852 144.674 C 213.852 144.201 213.752 143.844 213.552 143.604 C 213.346 143.364 213.046 143.244 212.652 143.244 C 212.392 143.244 212.172 143.277 211.992 143.344 C 211.819 143.411 211.666 143.484 211.532 143.564 C 211.406 143.644 211.296 143.717 211.202 143.784 C 211.102 143.851 211.009 143.884 210.922 143.884 C 210.849 143.884 210.786 143.864 210.732 143.824 C 210.679 143.791 210.636 143.744 210.602 143.684 L 210.412 143.344 C 210.746 143.017 211.106 142.774 211.492 142.614 C 211.879 142.454 212.309 142.374 212.782 142.374 C 213.122 142.374 213.426 142.431 213.692 142.544 C 213.952 142.657 214.172 142.814 214.352 143.014 C 214.532 143.214 214.669 143.457 214.762 143.744 C 214.856 144.024 214.902 144.334 214.902 144.674 Z M 212.132 147.914 C 212.319 147.914 212.489 147.894 212.642 147.854 C 212.802 147.814 212.949 147.761 213.082 147.694 C 213.222 147.621 213.356 147.534 213.482 147.434 C 213.609 147.334 213.732 147.221 213.852 147.094 L 213.852 145.824 C 213.359 145.844 212.942 145.884 212.602 145.944 C 212.256 146.004 211.976 146.084 211.762 146.184 C 211.542 146.284 211.386 146.404 211.292 146.544 C 211.192 146.677 211.142 146.827 211.142 146.994 C 211.142 147.154 211.169 147.294 211.222 147.414 C 211.269 147.527 211.339 147.621 211.432 147.694 C 211.519 147.767 211.622 147.824 211.742 147.864 C 211.862 147.897 211.992 147.914 212.132 147.914 ZM 216.644 139.724 L 217.704 139.724 L 217.704 148.564 L 216.644 148.564 L 216.644 139.724 ZM 222.97 148.564 L 221.91 148.564 L 221.91 142.484 L 222.54 142.484 C 222.693 142.484 222.79 142.557 222.83 142.704 L 222.91 143.364 C 223.177 143.077 223.473 142.844 223.8 142.664 C 224.127 142.484 224.503 142.394 224.93 142.394 C 225.263 142.394 225.557 142.447 225.81 142.554 C 226.063 142.667 226.277 142.824 226.45 143.024 C 226.617 143.224 226.743 143.467 226.83 143.754 C 226.917 144.034 226.96 144.347 226.96 144.694 L 226.96 148.564 L 225.9 148.564 L 225.9 144.694 C 225.9 144.234 225.793 143.877 225.58 143.624 C 225.373 143.371 225.053 143.244 224.62 143.244 C 224.3 143.244 224.003 143.321 223.73 143.474 C 223.457 143.621 223.203 143.824 222.97 144.084 L 222.97 148.564 ZM 231.039 142.394 C 231.479 142.394 231.879 142.467 232.239 142.614 C 232.599 142.761 232.903 142.971 233.149 143.244 C 233.403 143.517 233.596 143.847 233.729 144.234 C 233.863 144.614 233.929 145.044 233.929 145.524 C 233.929 146.004 233.863 146.434 233.729 146.814 C 233.596 147.201 233.403 147.531 233.149 147.804 C 232.903 148.077 232.599 148.284 232.239 148.424 C 231.879 148.571 231.479 148.644 231.039 148.644 C 230.593 148.644 230.189 148.571 229.829 148.424 C 229.476 148.284 229.173 148.077 228.919 147.804 C 228.666 147.531 228.473 147.201 228.339 146.814 C 228.199 146.434 228.129 146.004 228.129 145.524 C 228.129 145.044 228.199 144.614 228.339 144.234 C 228.473 143.847 228.666 143.517 228.919 143.244 C 229.173 142.971 229.476 142.761 229.829 142.614 C 230.189 142.467 230.593 142.394 231.039 142.394 Z M 231.039 147.814 C 231.639 147.814 232.086 147.614 232.379 147.214 C 232.673 146.807 232.819 146.244 232.819 145.524 C 232.819 144.804 232.673 144.241 232.379 143.834 C 232.086 143.434 231.639 143.234 231.039 143.234 C 230.733 143.234 230.466 143.284 230.239 143.384 C 230.019 143.491 229.833 143.641 229.679 143.834 C 229.533 144.034 229.423 144.277 229.349 144.564 C 229.276 144.844 229.239 145.164 229.239 145.524 C 229.239 145.884 229.276 146.207 229.349 146.494 C 229.423 146.781 229.533 147.021 229.679 147.214 C 229.833 147.407 230.019 147.554 230.239 147.654 C 230.466 147.761 230.733 147.814 231.039 147.814 ZM 240.774 148.564 L 237.724 148.564 L 237.724 139.964 L 240.474 139.964 C 241 139.964 241.454 140.017 241.834 140.124 C 242.214 140.224 242.527 140.371 242.774 140.564 C 243.02 140.757 243.204 140.994 243.324 141.274 C 243.444 141.547 243.504 141.861 243.504 142.214 C 243.504 142.421 243.47 142.624 243.404 142.824 C 243.337 143.017 243.237 143.197 243.104 143.364 C 242.97 143.537 242.8 143.687 242.594 143.814 C 242.394 143.947 242.157 144.057 241.884 144.144 C 242.51 144.264 242.984 144.491 243.304 144.824 C 243.624 145.151 243.784 145.581 243.784 146.114 C 243.784 146.481 243.717 146.814 243.584 147.114 C 243.45 147.414 243.257 147.671 243.004 147.884 C 242.744 148.104 242.427 148.271 242.054 148.384 C 241.68 148.504 241.254 148.564 240.774 148.564 Z M 240.744 144.644 L 238.894 144.644 L 238.894 147.644 L 240.754 147.644 C 241.087 147.644 241.37 147.604 241.604 147.524 C 241.844 147.451 242.04 147.344 242.194 147.204 C 242.347 147.064 242.46 146.901 242.534 146.714 C 242.607 146.521 242.644 146.311 242.644 146.084 C 242.644 145.644 242.487 145.294 242.174 145.034 C 241.86 144.774 241.384 144.644 240.744 144.644 Z M 238.894 140.884 L 238.894 143.814 L 240.424 143.814 C 240.757 143.814 241.044 143.781 241.284 143.714 C 241.524 143.641 241.72 143.541 241.874 143.414 C 242.034 143.281 242.15 143.124 242.224 142.944 C 242.304 142.764 242.344 142.564 242.344 142.344 C 242.344 141.844 242.19 141.474 241.884 141.234 C 241.584 141.001 241.114 140.884 240.474 140.884 L 238.894 140.884 ZM 246.385 148.564 L 245.325 148.564 L 245.325 142.484 L 245.935 142.484 C 246.048 142.484 246.128 142.507 246.175 142.554 C 246.215 142.594 246.245 142.671 246.265 142.784 L 246.335 143.724 C 246.541 143.304 246.798 142.974 247.105 142.734 C 247.411 142.494 247.771 142.374 248.185 142.374 C 248.351 142.374 248.501 142.394 248.635 142.434 C 248.775 142.474 248.901 142.527 249.015 142.594 L 248.875 143.394 C 248.848 143.494 248.788 143.544 248.695 143.544 C 248.635 143.544 248.548 143.524 248.435 143.484 C 248.321 143.444 248.158 143.424 247.945 143.424 C 247.578 143.424 247.268 143.534 247.015 143.754 C 246.768 143.967 246.558 144.281 246.385 144.694 L 246.385 148.564 ZM 254.391 144.674 L 254.391 148.564 L 253.921 148.564 C 253.814 148.564 253.728 148.547 253.661 148.514 C 253.601 148.481 253.561 148.414 253.541 148.314 L 253.421 147.744 C 253.261 147.891 253.104 148.021 252.951 148.134 C 252.798 148.247 252.638 148.344 252.471 148.424 C 252.304 148.504 252.124 148.564 251.931 148.604 C 251.744 148.644 251.534 148.664 251.301 148.664 C 251.068 148.664 250.848 148.631 250.641 148.564 C 250.434 148.497 250.254 148.397 250.101 148.264 C 249.948 148.131 249.828 147.964 249.741 147.764 C 249.648 147.564 249.601 147.324 249.601 147.044 C 249.601 146.804 249.668 146.574 249.801 146.354 C 249.934 146.134 250.148 145.937 250.441 145.764 C 250.734 145.591 251.118 145.447 251.591 145.334 C 252.071 145.227 252.654 145.167 253.341 145.154 L 253.341 144.674 C 253.341 144.201 253.241 143.844 253.041 143.604 C 252.834 143.364 252.534 143.244 252.141 143.244 C 251.881 143.244 251.661 143.277 251.481 143.344 C 251.308 143.411 251.154 143.484 251.021 143.564 C 250.894 143.644 250.784 143.717 250.691 143.784 C 250.591 143.851 250.498 143.884 250.411 143.884 C 250.338 143.884 250.274 143.864 250.221 143.824 C 250.168 143.791 250.124 143.744 250.091 143.684 L 249.901 143.344 C 250.234 143.017 250.594 142.774 250.981 142.614 C 251.368 142.454 251.798 142.374 252.271 142.374 C 252.611 142.374 252.914 142.431 253.181 142.544 C 253.441 142.657 253.661 142.814 253.841 143.014 C 254.021 143.214 254.158 143.457 254.251 143.744 C 254.344 144.024 254.391 144.334 254.391 144.674 Z M 251.621 147.914 C 251.808 147.914 251.978 147.894 252.131 147.854 C 252.291 147.814 252.438 147.761 252.571 147.694 C 252.711 147.621 252.844 147.534 252.971 147.434 C 253.098 147.334 253.221 147.221 253.341 147.094 L 253.341 145.824 C 252.848 145.844 252.431 145.884 252.091 145.944 C 251.744 146.004 251.464 146.084 251.251 146.184 C 251.031 146.284 250.874 146.404 250.781 146.544 C 250.681 146.677 250.631 146.827 250.631 146.994 C 250.631 147.154 250.658 147.294 250.711 147.414 C 250.758 147.527 250.828 147.621 250.921 147.694 C 251.008 147.767 251.111 147.824 251.231 147.864 C 251.351 147.897 251.481 147.914 251.621 147.914 ZM 259.733 143.094 L 259.493 143.484 C 259.439 143.577 259.363 143.624 259.263 143.624 C 259.203 143.624 259.136 143.601 259.063 143.554 C 258.989 143.507 258.896 143.457 258.783 143.404 C 258.676 143.351 258.546 143.301 258.393 143.254 C 258.239 143.207 258.059 143.184 257.853 143.184 C 257.673 143.184 257.509 143.207 257.363 143.254 C 257.223 143.301 257.099 143.364 256.993 143.444 C 256.893 143.524 256.816 143.617 256.763 143.724 C 256.709 143.831 256.683 143.947 256.683 144.074 C 256.683 144.227 256.726 144.357 256.813 144.464 C 256.906 144.564 257.026 144.654 257.173 144.734 C 257.319 144.807 257.486 144.874 257.673 144.934 C 257.866 144.987 258.059 145.047 258.253 145.114 C 258.453 145.181 258.646 145.254 258.833 145.334 C 259.019 145.414 259.189 145.514 259.343 145.634 C 259.489 145.754 259.606 145.901 259.693 146.074 C 259.786 146.247 259.833 146.457 259.833 146.704 C 259.833 146.984 259.783 147.244 259.683 147.484 C 259.583 147.717 259.433 147.921 259.233 148.094 C 259.039 148.274 258.799 148.414 258.513 148.514 C 258.233 148.614 257.906 148.664 257.533 148.664 C 257.106 148.664 256.723 148.594 256.383 148.454 C 256.036 148.314 255.743 148.137 255.503 147.924 L 255.753 147.514 C 255.786 147.461 255.826 147.421 255.873 147.394 C 255.913 147.367 255.969 147.354 256.043 147.354 C 256.116 147.354 256.193 147.381 256.273 147.434 C 256.353 147.494 256.449 147.557 256.563 147.624 C 256.676 147.691 256.813 147.751 256.973 147.804 C 257.139 147.864 257.343 147.894 257.583 147.894 C 257.796 147.894 257.979 147.867 258.133 147.814 C 258.286 147.761 258.416 147.687 258.523 147.594 C 258.629 147.501 258.706 147.394 258.753 147.274 C 258.806 147.154 258.833 147.027 258.833 146.894 C 258.833 146.721 258.786 146.581 258.693 146.474 C 258.606 146.361 258.486 146.267 258.333 146.194 C 258.186 146.114 258.019 146.044 257.833 145.984 C 257.639 145.931 257.446 145.871 257.253 145.804 C 257.053 145.737 256.856 145.664 256.663 145.584 C 256.476 145.504 256.309 145.401 256.163 145.274 C 256.009 145.154 255.889 145.001 255.803 144.814 C 255.709 144.634 255.663 144.414 255.663 144.154 C 255.663 143.921 255.713 143.697 255.813 143.484 C 255.906 143.271 256.046 143.084 256.233 142.924 C 256.413 142.757 256.639 142.627 256.913 142.534 C 257.179 142.441 257.483 142.394 257.823 142.394 C 258.223 142.394 258.583 142.454 258.903 142.574 C 259.223 142.701 259.499 142.874 259.733 143.094 ZM 261.339 142.484 L 262.399 142.484 L 262.399 148.564 L 261.339 148.564 L 261.339 142.484 Z M 262.639 140.574 C 262.639 140.681 262.619 140.777 262.579 140.864 C 262.539 140.957 262.482 141.037 262.409 141.104 C 262.342 141.177 262.262 141.234 262.169 141.274 C 262.075 141.314 261.979 141.334 261.879 141.334 C 261.772 141.334 261.675 141.314 261.589 141.274 C 261.495 141.234 261.415 141.177 261.349 141.104 C 261.275 141.037 261.219 140.957 261.179 140.864 C 261.139 140.777 261.119 140.681 261.119 140.574 C 261.119 140.474 261.139 140.377 261.179 140.284 C 261.219 140.191 261.275 140.107 261.349 140.034 C 261.415 139.967 261.495 139.914 261.589 139.874 C 261.675 139.834 261.772 139.814 261.879 139.814 C 261.979 139.814 262.075 139.834 262.169 139.874 C 262.262 139.914 262.342 139.967 262.409 140.034 C 262.482 140.107 262.539 140.191 262.579 140.284 C 262.619 140.377 262.639 140.474 262.639 140.574 ZM 264.409 139.724 L 265.469 139.724 L 265.469 148.564 L 264.409 148.564 L 264.409 139.724 Z" transform="matrix(1, 0, 0, 1, 0, 0)" style="fill: rgb(85, 85, 85); white-space: pre;"/>
</svg>