<?xml version="1.0" encoding="utf-8"?>
<svg version="1.1" id="Layer_1" x="0px" y="0px" width="820px" height="312px" viewBox="295.533 -11.654 512.345 356.672" enable-background="new 0 0 820 312" xmlns="http://www.w3.org/2000/svg">
  <defs>
    <pattern id="pattern-0" x="0" y="0" width="25" height="25" patternUnits="userSpaceOnUse" viewBox="0 0 100 100">
      <rect x="0" y="0" width="50" height="100" style="fill: black;"/>
    </pattern>
  </defs>
  <g>
    <defs>
      <rect id="SVGID_1_" x="446.188" y="4.71" width="305.296" height="301.553"/>
    </defs>
    <clipPath id="SVGID_2_">
      <rect x="446.188" y="4.71" width="305.296" height="301.553"/>
    </clipPath>
    <g clip-path="url(#SVGID_2_)">
      <path fill="#008696" d="M624.775,290.726c0,1.257-1.016,2.276-2.271,2.276c-1.257,0-2.273-1.02-2.273-2.276 c0-1.254,1.017-2.271,2.273-2.271C623.76,288.454,624.775,289.472,624.775,290.726"/>
    </g>
    <g clip-path="url(#SVGID_2_)">
      <path fill="#008696" d="M613.358,303.989c0,1.256-1.019,2.273-2.273,2.273c-1.256,0-2.274-1.018-2.274-2.273 c0-1.255,1.019-2.272,2.274-2.272C612.34,301.717,613.358,302.734,613.358,303.989"/>
    </g>
    <g clip-path="url(#SVGID_2_)">
      <path fill="#008696" d="M611.109,305.051l-1.396-10.11l-0.07,0.021l0.03-0.176l-10.201-9.521l-0.698-0.455l-0.11,0.023 l-0.016-0.105l-14.717-9.592l11.647-12.791l10.999-10.781l-4.08-10.539l0.002-0.033l0.28-10.108l-0.239-1.262l-0.324,0.8 l-11.221-13.906l14.507,4.896l2.54-6.271l-2.399-2.638l-14.129,3.649l-0.05,0.208l-0.169-0.183l-14.788-1.376l-1.721-16.51 l-0.168-0.183l0.182-0.033l2.03-17.287l-4.392-10.806h-16.661l0.145-0.211l-2.034-17.414l-18.348-6.337l-14.799-4.475 l-0.025-0.085l-5.42-17.277l-15.726,6.696l-0.005-0.002l-0.182,0.078l-0.311,0.083l0.246,0.469l-0.473-0.408l-22.604,6.075 l-1.363-11.931l-11.009,5.672l-0.029,0.118l-0.108-0.046l-0.106,0.054l-0.037-0.116l-9.406-4.03l-0.076,0.082l-5.264-9.5 l-1.388-10.408l7.771-2.378l-0.227-11.649l19.861-7.533l2.38-26.173l-0.03-0.033l0.008-0.016L471.029,50l6.154-4.786l-4.864-6.601 l11.203-1.401l7.964-4.501l8.229,9.944l11.155-3.718l10.082-8.065l-7.62-6.294l-0.066,0.041l-3.607-9.018l13.979,2.379 l9.719-5.852v-0.084l0.126,0.008l11.721-7.058l0.092,0.098l8,8.511l0.402-0.214l-3.882,11.96l8.442,8.105l1.919,0.341l8.709-4.356 l-0.019-0.027l0.198-0.063l0.216-0.108l0.003,0.039l13.76-4.364l0.013-0.024l0.148-0.027l0.02,0.019l14.618-0.678l10.528-3.737 l7.342-12.232l4.876,13.933l0.348,0.056l-0.195,0.12l7.796,7.119l-4.499,9.694l-0.143,0.181l4.094,4.372h12.559l-0.014,0.041 l0.093-0.032l0.018,0.055l6.27,1.253l-0.013-0.04l0.295,0.097l0.346,0.068l-0.039,0.031l14.383,4.682l0.402-0.056l-0.141,0.162 l11.234,4.766l-0.004,0.008l12.472,6.067l0.125-0.023l0.038,0.376l18.524,2.716l0.021-0.057l0.146,0.081l0.083,0.012l0.009,0.04 l14.651,8.177l9.57,6.836l12.877,3.387l0.114-0.128l6.338,16.55l-9.479,0.841l-0.406,1.49l3.596,8.47l6.085-9.536l-3.621,15.34 l0.022,0.054l-0.047,0.046l-0.054,0.234l-0.094-0.086l-13.9,13.737l-8.169,14.331l-6.82,23.96l0.025,0.011l-0.063,0.134 l-1.361,13.265l0.159,0.283l-0.234-0.054l-6.445,14.247l-8.573,18.861l-0.032,0.024l-7.91,6.192l-15.569,1.22l-0.032,0.171 l-0.146-0.135l-15.371,5.913l-9.901,8.89l-7.476,6.783l-0.683,20.851l-0.026,0.039l-8.822,13.236l0.006,0.007l-10.354,13.461 L611.109,305.051z M610.04,294.845l1.297,9.402l10.7-12.969L610.04,294.845z M612.135,282.05l-2.07,12.438l12.228-3.637 l-4.025-10.068L612.135,282.05z M599.238,284.714l0.441,0.287l10.06,9.387l2.043-12.264L599.238,284.714z M618.601,280.715 l3.963,9.909l9.812-12.754L618.601,280.715z M613.778,271.137l-14.411,13.207l12.475-2.576l1.676-10.039L613.778,271.137z M597.33,273.232l1.596,11.061l14.855-13.615L597.33,273.232z M584.647,275.201l13.938,9.087l-1.588-11.005L584.647,275.201z M613.835,271.845l-1.642,9.85l5.945-1.227l-3.856-9.645L613.835,271.845z M614.531,270.541l3.942,9.856l13.977-2.886l-8.96-9.271 L614.531,270.541z M623.864,268.146l8.896,9.202l8.756-13.135l0.674-20.564l-8.749,3.7l7.964,16.998l-1.759-0.632l0.328,0.296 L623.864,268.146z M595.505,262.925l-10.872,11.939l12.318-1.913L595.505,262.925z M595.909,263.385l1.373,9.515l16.382-2.544 L595.909,263.385z M617.933,262.495l-3.372,7.69l8.66-2.222L617.933,262.495z M596.147,263.117l17.869,7.017l-4.652-12.605 L596.147,263.117z M609.676,257.398l4.627,12.54l3.378-7.705l-5.642-5.836L609.676,257.398z M618.08,262.161l5.516,5.707 l15.688-4.027l-0.472-0.426l-18.39-6.597L618.08,262.161z M638.987,263.122l1.771,0.635l-7.626-16.278l-7.83,3.31L638.987,263.122 z M595.544,262.88l0.156,0.062l13.548-5.729l-2.024-5.488l0.457,0.165l-0.623-0.646l14.573-3.312l-10.073-9.078l-8.679,0.562 l-0.042,1.551l4.134,10.681l-11.15,10.93L595.544,262.88z M620.558,256.51l17.596,6.313l-13.191-11.891l-2.405,1.017 L620.558,256.51z M612.371,256.257l5.456,5.645l2.278-5.198l-4.757-1.706L612.371,256.257z M607.787,252.285l1.771,4.797 l2.231-0.944l-3.58-3.702L607.787,252.285z M615.807,254.804l4.434,1.592l1.866-4.256L615.807,254.804z M608.924,252.692 l3.197,3.307l2.762-1.169L608.924,252.692z M608.396,252.146l6.943,2.492l6.964-2.946l0.991-2.26l-1.359-1.225l-14.223,3.232 L608.396,252.146z M623.558,249.669l-0.805,1.834l1.933-0.817L623.558,249.669z M623.699,249.345l1.328,1.195l7.962-3.367 l-0.627-1.335l-7.914,1.798L623.699,249.345z M622.337,248.116l1.102,0.991l0.604-1.38L622.337,248.116z M612.025,238.823 l10.006,9.018l2.178-0.495l4.203-9.585L612.025,238.823z M628.682,237.98l-4.065,9.272l7.6-1.728L628.682,237.98z M632.696,245.761l0.601,1.283l7.254-3.068L632.696,245.761z M629.012,237.9l3.538,7.55l9.271-2.107L629.012,237.9z M628.976,237.52l13.356,5.675l7.23-6.56l-14.57-4.918L628.976,237.52z M603.107,231.238l-0.219,7.84l8.321-0.539L603.107,231.238 z M603.573,231.206l8.104,7.304l15.948-1.035L603.573,231.206z M603.095,230.734l25.077,6.535l-10.309-11.334l-9.547-3.222 l-5.421,6.978L603.095,230.734z M631.155,230.422l-2.114,6.567l5.591-5.393L631.155,230.422z M626.51,228.854l2.183,8.129 l2.146-6.669L626.51,228.854z M618.52,226.157l9.818,10.796l-2.209-8.228L618.52,226.157z M648.389,222.89l1.279,13.649 l0.113-0.103l9.978-8.944l15.242-5.863l-15.165-13.876l-1.513,1.459l0.625,18.922L648.389,222.89z M635.264,231.454l14.034,4.736 l-1.263-13.478l-2.448-1.216L635.264,231.454z M631.259,230.103l3.646,1.23l10.362-9.994l-9.646-4.791L631.259,230.103z M626.405,228.464l4.535,1.532l4.379-13.599l-14.023-6.965L626.405,228.464z M591.983,217.201l10.135,12.564l3.259-8.044 L591.983,217.201z M605.697,221.83l-3.141,7.752l5.423-6.982L605.697,221.83z M618.053,225.645l7.972,2.691l-5.023-18.706 l-0.005,0.533l-0.729-1.241l-0.262-0.13l-1.089,0.281l-7.343,9.449L618.053,225.645z M648.352,222.496l10.241,5.086l-0.596-18.056 l-9.961,9.607L648.352,222.496z M608.535,222.433l8.862,2.992l-6.033-6.633L608.535,222.433z M645.844,221.25l2.154,1.069 l-0.271-2.887L645.844,221.25z M605.822,221.518l2.376,0.802l2.937-3.78l-2.842-3.123L605.822,221.518z M679.358,200.928 l-3.838,20.577l15.377-1.204l7.799-6.104l7.683-16.906l-8.103,6.239l-1.957,4.077l1.909,6.326l-3.717-2.561l-3.715,7.74 l-0.043-9.793l-14.52,11.179l10.608-14.413L679.358,200.928z M660.078,207.519l15.127,13.843l3.852-20.642l-0.743-0.512 l-12.549,1.825L660.078,207.519z M635.726,216.224l9.799,4.868l2.163-2.088l-1.326-14.146l-7.319,1.065L635.726,216.224z M687.119,206.275l-9.201,12.503l12.834-9.881l-0.001-0.118L687.119,206.275z M646.693,204.809l1.303,13.897l9.986-9.633 l-0.103-3.11l-2.623-2.399L646.693,204.809z M608.434,215.07l2.911,3.199l7.038-9.06l-8.46,2.186L608.434,215.07z M691.09,209.062 l0.037,8.587l3.104-6.471l-3.108-2.143L691.09,209.062z M621.18,209.001l14.243,7.072l3.251-10.097l-17.617,2.563L621.18,209.001z M576.812,214.491l14.143,1.315l-6.313-6.839l-6.714,4.698l4.324-7.288l-7.089-7.679L576.812,214.491z M594.968,201.744 l-3.364,14.038l13.785-3.562l-9.877-10.857L594.968,201.744z M584.92,208.773l6.365,6.896l3.269-13.637L584.92,208.773z M606.012,212.407l2.171,2.388l1.336-3.294L606.012,212.407z M694.66,211.065l2.971,2.046l-1.527-5.057L694.66,211.065z M582.489,206.636l-3.478,5.861l5.401-3.777L582.489,206.636z M595.789,201.169l9.967,10.957l3.92-1.012l4.847-11.967 l-4.293-7.306l-1.512,0.28L595.789,201.169z M614.736,199.514l-4.658,11.495l8.643-2.233l0.831-1.069L614.736,199.514z M691.403,208.82l2.977,2.052l1.58-3.294l-0.556-1.84L691.403,208.82z M658.226,206.28l0.083,2.479l1.279-1.234L658.226,206.28z M620.505,208.665l0.169,0.084l0.002-0.131l-0.172,0.044L620.505,208.665z M619.735,208.019l-0.482,0.62l0.735-0.189 L619.735,208.019z M691.087,208.603l0.025,0.018l4.188-3.226l-2.19-7.259l-2.058,2.796L691.087,208.603z M582.668,206.334 l2.022,2.189l9.98-6.982l0.209-0.873l-4.651-5.114l-1.308,0.243L582.668,206.334z M687.318,206.006l3.432,2.364l-0.031-6.984 L687.318,206.006z M619.957,207.731l0.369,0.63l0.312-0.081l-0.004-0.018l0.043-0.007l0.014-1.47L619.957,207.731z M621.032,206.348l-0.018,1.836l0.406-0.105l21.182-14.306l0.444-1.383l-5.946-5.441l-0.756,0.079l-0.029,0.078l-0.308-0.032 L621.032,206.348z M642.436,194.291l-20.382,13.764l16.734-2.435L642.436,194.291z M614.896,199.12l4.877,8.301l0.925-1.188 l0.152-16.361l-2.389,0.443L614.896,199.12z M658.211,205.81l1.618,1.481l5.366-5.175l-7.072,1.029L658.211,205.81z M695.69,205.52l0.484,1.609l1.511-3.146L695.69,205.52z M575.278,198.329l7.152,7.747l6.05-10.199L575.278,198.329z M679.427,200.566l7.614,5.248l3.676-4.993l-0.012-2.418l-11.179,1.628L679.427,200.566z M621.188,189.81l-0.15,15.985 l14.486-18.645L621.188,189.81z M642.883,193.988l-3.727,11.578l7.173-1.044l-0.937-9.986l-1.409-1.29L642.883,193.988z M655.688,203.501l2.177,1.993l-0.076-2.3L655.688,203.501z M693.424,198.009l2.163,7.167l2.422-1.865l3.079-6.417 L693.424,198.009z M645.762,194.874l0.9,9.601l8.275-1.204L645.762,194.874z M645.715,194.375l9.65,8.832l2.412-0.35 l-0.567-17.194l-0.99-0.682l-10.708,7.231L645.715,194.375z M701.489,196.835l-2.89,6.021l8.077-6.218l0.558-1.227l6.417-14.185 l-1.302-0.293h-3.229l-6.32,13.171l4.02,1.955L701.489,196.835z M657.553,185.899l0.559,16.909l7.499-1.092l6.206-5.987 L657.553,185.899z M672.099,195.925l-5.92,5.709l11.729-1.706L672.099,195.925z M595.154,200.97l-0.068,0.281l0.197-0.139 L595.154,200.97z M595.249,200.574l0.312,0.344l12.359-8.647l-11.181,2.075L595.249,200.574z M691.042,198.355l0.009,2.013 l1.66-2.256L691.042,198.355z M678.802,200.138l0.322,0.221l0.052-0.276L678.802,200.138z M590.615,195.481l4.36,4.792l1.403-5.86 L590.615,195.481z M672.346,195.687l6.051,4.17l0.844-0.123l2.436-13.047L672.346,195.687z M682.091,186.286l-2.499,13.396 l11.112-1.617l-0.035-8.021l-0.518-1.718l-6.763-3.29L682.091,186.286z M610.58,191.777l4.101,6.978l3.39-8.367L610.58,191.777z M691.011,191.173l0.03,6.843l1.949-0.284L691.011,191.173z M584.814,189.604l-9.308,8.34l13.202-2.449l0.578-0.974 L584.814,189.604z M577.127,181.15l-1.959,16.646l9.42-8.442L577.127,181.15z M697.647,191.972l-4.188,5.691l7.805-1.135 l1.089-2.269L697.647,191.972z M691.005,189.992l2.234,7.403l4.101-5.573l-6.34-3.085L691.005,189.992z M702.655,194.407 l-0.99,2.062l4.026-0.585L702.655,194.407z M657.497,185.453l14.566,10.038l9.719-9.374l0.318-1.707l-9.635-4.688l-14.288,3.936 l-1.046,0.708L657.497,185.453z M589.524,194.78l-0.376,0.632l0.813-0.15L589.524,194.78z M589.703,194.479l0.647,0.711 l6.114-1.134l2.594-10.827l-2.525-0.263L589.703,194.479z M585.065,189.379l4.401,4.839l6.698-11.29l-3.495-0.364L585.065,189.379 z M644.27,193.052l1.076,0.986l-0.15-1.611L644.27,193.052z M599.396,183.264l-2.57,10.725l11.759-2.182l1.149-0.805l-4.171-7.097 L599.396,183.264z M697.851,191.697l4.647,2.26l6.251-13.023h-2.977L697.851,191.697z M643.317,192.637l-0.269,0.834l0.679-0.459 L643.317,192.637z M643.431,192.284l0.583,0.534l1.146-0.772l-0.372-3.974L643.431,192.284z M637.547,186.9l5.615,5.138 l1.546-4.807l-0.101-1.07L637.547,186.9z M645.048,187.26l0.43,4.571l10.095-6.817l-10.142,1.062L645.048,187.26z M609.906,191.292l-0.523,0.366l0.665-0.123L609.906,191.292z M690.998,188.362l6.545,3.184l7.812-10.612h-14.39L690.998,188.362z M610.181,191.1l0.219,0.369l7.82-1.45l1.864-4.603l-1.55-0.161L610.181,191.1z M605.979,183.949l4.033,6.859l8.013-5.606 L605.979,183.949z M620.433,185.452l-1.82,4.494l2.242-0.416l0.038-4.029L620.433,185.452z M621.229,185.535l-0.037,3.932 l13.59-2.521L621.229,185.535z M577.422,180.978l7.416,8.151l7.381-6.611L577.422,180.978z M690.562,188.525l0.103,0.338 l-0.001-0.29L690.562,188.525z M690.431,188.087l0.23,0.112l-0.032-7.266h-2.357L690.431,188.087z M683.645,184.786l6.375,3.101 l-2.099-6.953h-0.28L683.645,184.786z M621.231,185.198l14.626,1.521l0.489-0.631l3.34-8.652l-9.078-0.629l-9.314,6.517 l-0.046,0.116L621.231,185.198z M636.565,186.457l-0.085,0.219l0.289-0.031L636.565,186.457z M636.695,186.121l0.521,0.477 l7.36-0.77l-0.76-8.104l-3.778-0.262L636.695,186.121z M644.942,186.127l0.027,0.292l0.098-0.306L644.942,186.127z M644.156,177.748l0.754,8.044l0.271-0.027l2.501-7.773L644.156,177.748z M648.024,178.015l-2.482,7.711l10.622-1.112l0.568-0.384 l-1.93-5.743L648.024,178.015z M682.414,184.562l-0.216,1.154l0.867-0.837L682.414,184.562z M620.563,185.129l0.331,0.034 l0.009-0.874L620.563,185.129z M656.52,184.779l0.516,0.355l-0.192-0.574L656.52,184.779z M618.955,184.961l1.261,0.131 l0.572-1.414L618.955,184.961z M605.768,183.589l12.677,1.318l2.47-1.727l0.066-7.041l-19.515-1.353v1.484L605.768,183.589z M682.478,184.218l0.846,0.412l3.834-3.696h-4.067L682.478,184.218z M675.723,180.934l6.442,3.133l0.584-3.133H675.723z M655.164,178.511l1.856,5.524l1.041-0.692l13.428-3.699L655.164,178.511z M599.476,182.934l5.877,0.611l-4.223-7.183v-0.335 L599.476,182.934z M596.722,182.647l2.417,0.251l1.737-7.252L596.722,182.647z M624.117,176.357l-2.591,6.394l8.55-5.981 L624.117,176.357z M593.008,182.261l3.347,0.349l4.241-7.148L593.008,182.261z M621.315,176.163l-0.06,6.36l2.509-6.19 L621.315,176.163z M577.92,180.691l14.637,1.522l8.369-7.499l-1.1-0.184l0.062,0.236L577.92,180.691z M709.587,179.964 l3.971,0.897l-2.374-4.224L709.587,179.964z M672.956,179.588l2.204,1.071v-0.062h7.651l0.734-3.926L672.956,179.588z M709.284,180.597h1.578l-1.424-0.322L709.284,180.597z M706.021,180.597h2.89l0.191-0.398l-2.392-0.54L706.021,180.597z M690.964,180.597h14.639l0.75-1.02l-14.021-3.168l-1.38,1.33L690.964,180.597z M688.17,180.597h2.457l-0.01-2.535l-2.488,2.4 L688.17,180.597z M683.152,180.597h4.353l0.244-0.235l-1.352-4.477l-2.493,0.688L683.152,180.597z M711.361,176.268l2.415,4.296 l1.216-11.861L711.361,176.268z M582.592,171.657l-5.234,8.838l22.254-6.001L582.592,171.657z M572.822,170.029l4.208,10.358 l5.207-8.788L572.822,170.029z M686.722,175.796l1.3,4.304l2.594-2.502l-0.007-1.578l-2.581-0.583L686.722,175.796z M706.927,179.362l2.324,0.525l1.732-3.609l-0.774-1.376L706.927,179.362z M654.809,167.93l17.702,11.433l11.103-3.059 l0.335-1.789L654.809,167.93z M655.049,178.165l16.794,1.166l-17.987-11.617l-0.561-0.126h-1.799L655.049,178.165z M692.62,176.13 l13.95,3.152l3.458-4.7l-2.533-4.508l-12.033,3.314L692.62,176.13z M648.13,177.687l6.557,0.455l-3.423-10.191L648.13,177.687z M644.125,177.408l3.663,0.255l3.244-10.075h-6.783l-0.918,1.364L644.125,177.408z M640.164,177.133l3.621,0.252l-0.727-7.748 L640.164,177.133z M690.944,176.095l0.005,1.18l0.989-0.954L690.944,176.095z M631.047,176.502l8.767,0.607l3.174-8.225 l-0.001-0.021l0.021-0.034l0.371-0.957L631.047,176.502z M624.249,176.029l6.265,0.435l12.516-8.757l-16.544,2.802 L624.249,176.029z M684.273,174.588l-0.302,1.616l2.329-0.641l-0.168-0.556L684.273,174.588z M690.943,175.75l1.285,0.291 l2.556-2.465l-3.846,1.059L690.943,175.75z M621.319,175.827l2.577,0.179l2.2-5.431l-4.736,0.802L621.319,175.827z M710.428,174.607l0.732,1.302l3.171-6.604L710.428,174.607z M602.718,174.536l18.267,1.267l0.04-4.368L602.718,174.536z M688.715,175.247l1.891,0.428l-0.003-0.947L688.715,175.247z M686.509,175.093l0.115,0.382l0.708-0.195L686.509,175.093z M686.398,174.723l1.621,0.366l2.581-0.71l-0.065-14.968l-3.575,0.785l-1.89,10.126L686.398,174.723z M684.336,174.257 l1.685,0.382l-1.084-3.598L684.336,174.257z M582.776,171.349l17.92,2.986l-13.314-10.76L582.776,171.349z M621.143,158.904 l-19.233,15.428l19.119-3.237L621.143,158.904z M690.871,159.337l0.064,14.949l4.355-1.199l9.012-8.693l-0.706-1.256l-10.44-4.304 L690.871,159.337z M707.828,169.982l2.419,4.303l4.588-6.233L707.828,169.982z M591.152,157.21l10.119,17.021l7.174-17.409 l-16.296-1.294L591.152,157.21z M654.088,167.423l29.922,6.761l0.716-3.839l-2.732-9.057L654.088,167.423z M608.798,156.85 l-7.064,17.141l0.269-0.24l-0.086,0.146l19.23-15.425l0.005-0.641L608.798,156.85z M587.555,163.283l13.121,10.603l-9.719-16.347 L587.555,163.283z M704.473,164.697l-8.505,8.204l11.358-3.129L704.473,164.697z M572.927,169.707l9.494,1.581l4.695-7.926 l-3.719-3.007L572.927,169.707z M621.48,158.633l-0.116,12.403l4.88-0.825l3.884-9.59l-4.787-2.458l-2.979-0.236L621.48,158.633z M630.428,160.775l-3.795,9.37l16.574-2.808L630.428,160.775z M704.723,164.456l2.937,5.225l7.081-1.95l-9.397-3.873 L704.723,164.456z M556.416,169.646h15.709l-9.627-8.924L556.416,169.646z M682.322,161.216l2.537,8.41l1.746-9.352 L682.322,161.216z M562.691,160.44l9.756,9.047l3.069-15.282l-8.136-0.646L562.691,160.44z M575.85,154.255l-3.032,15.098 l10.316-9.211L575.85,154.255z M554.317,153.136l1.896,16.212l6.037-8.857L554.317,153.136z M705.607,163.603l9.489,3.909 l0.327-13.378L705.607,163.603z M652.861,167.25h0.438l13.259-2.913L652.861,167.25z M644.474,167.25h6.569l-1.898-6.962 L644.474,167.25z M643.775,167.25h0.293l4.842-7.215l-17.615-1.399l-0.74,1.827L643.775,167.25z M658.594,155.502l-6.991,11.677 l30.228-6.433l-2.268-7.513l-8.845-3.645L658.594,155.502z M649.408,159.98l1.914,7.02l6.725-11.232L649.408,159.98z M715.767,153.865l-0.309,12.578l6.125-21.516l-0.043,0.077l-5.698,8.665l0.041,0.022l-0.104,0.1l0.009,0.069L715.767,153.865z M704.099,163.345l0.454,0.808l0.451-0.435L704.099,163.345z M703.833,162.871l1.436,0.593l9.788-9.443l-14.416,3.169 L703.833,162.871z M583.652,160.129l3.638,2.941l3.472-5.859l-1.119-1.883l-0.564-0.045L583.652,160.129z M693.73,158.708 l9.602,3.957l-3.034-5.399L693.73,158.708z M679.964,153.398l2.196,7.276l4.551-0.97l0.612-3.274L679.964,153.398z M626.21,158.232l4.045,2.077l0.688-1.702L626.21,158.232z M554.258,152.622l8.184,7.587l4.554-6.68l-12.467-0.991l-0.013,0.035 l-0.137-0.047l-0.092-0.007l-0.008-0.028l-0.039-0.013L554.258,152.622z M576.41,154.276l6.978,5.639l5.229-4.669L576.41,154.276z M631.427,158.31l17.384,1.381l-11.814-13.502l-0.976,0.783L631.427,158.31z M687.638,156.561l-0.572,3.07l3.468-0.738 l-0.006-1.141L687.638,156.561z M653.232,142.383l-3.785,17.203l8.915-4.346l5.158-8.617L653.232,142.383z M637.258,145.978 l0.014,0.015l11.677,13.343l-3.309-20.082L637.258,145.978z M646.011,139.407L649.233,159l3.684-16.747L646.011,139.407z M690.864,157.891l0.004,0.931l1.487-0.316L690.864,157.891z M690.862,157.527l2.074,0.854l7.134-1.518l-9.109-16.21l-0.172-0.008 L690.862,157.527z M625.434,157.834l5.643,0.447l4.406-10.879l-11.851,9.506L625.434,157.834z M621.488,157.857l-0.004,0.342 l0.389-0.312L621.488,157.857z M622.744,157.619l1.819,0.146l-1.219-0.626L622.744,157.619z M621.491,157.521l0.765,0.06 l0.761-0.61l-1.514-0.777L621.491,157.521z M608.933,156.523l12.224,0.971l0.014-1.473l-9.93-5.099L608.933,156.523z M687.701,156.223l2.825,1.166l-0.069-15.933L687.701,156.223z M590.054,155.36l0.903,1.521l0.82-1.383L590.054,155.36z M691.384,140.719l9.031,16.07l14.708-3.13L691.384,140.719z M621.508,155.816l1.797,0.924l12.437-9.977l0.557-1.374l-6.492-7.419 l-8.128-0.356L621.508,155.816z M592.34,155.205l16.24,1.29l2.359-5.726l-10.671-5.48l-4.361,3.896L592.34,155.205z M679.838,152.984l7.547,3.11l2.889-15.472l-1.073-0.047l-11.425,5.572L679.838,152.984z M611.369,150.611l9.803,5.034 l0.171-18.046l-4.53-0.199L611.369,150.611z M589.842,155.006l2.125,0.17l3.11-5.25l-5.393,4.816L589.842,155.006z M663.832,146.751l-4.921,8.221l11.392-5.555L663.832,146.751z M575.948,153.903l13.016,1.034l0.291-0.26l-10.084-16.962 l-3.247,16.169L575.948,153.903z M579.271,137.222l10.24,17.226l6.13-5.473l2.754-4.648l-16.47-8.456l-2.361-0.104 L579.271,137.222z M567.6,153.24l7.755,0.616l-5.271-4.26L567.6,153.24z M570.272,149.317l5.356,4.328l3.286-16.362l-0.203-0.343 L570.272,149.317z M692.051,140.701l23.34,12.722l-1.607-11.769L692.051,140.701z M714.125,141.669l1.582,11.593l5.546-8.434 l1.418-2.486l-0.263-0.31L714.125,141.669z M554.648,152.211l12.564,0.999l2.608-3.826l-10.896-8.805L554.648,152.211z M671.122,149.392l8.315,3.427l-1.968-6.522L671.122,149.392z M536.197,145.892l17.648,6.095l-0.173-1.476l-9.442-6.501 L536.197,145.892z M553.995,150.38l0.436,1.45l4.108-11.173l-6.97,1.633L553.995,150.38z M600.538,145.05l10.53,5.407 l5.388-13.072l-6.991-0.306L600.538,145.05z M544.672,143.906l8.861,6.1l-2.292-7.638L544.672,143.906z M664.007,146.459 l6.699,2.761l6.665-3.25l-1.808-5.993l-7.479-0.328L664.007,146.459z M559.329,140.473l10.683,8.633l8.51-12.485l-0.337-0.565 L559.329,140.473z M598.694,144.481l-2.225,3.753l3.482-3.108L598.694,144.481z M636.547,145.674l-0.269,0.659l0.497-0.398 L636.547,145.674z M653.306,142.05l10.39,4.281l4.01-6.698l-13.734-0.603L653.306,142.05z M675.92,139.993l1.758,5.828 l10.819-5.277L675.92,139.993z M636.688,145.324l0.35,0.4l8.249-6.616l-1.246-0.514l-4.546-0.199L636.688,145.324z M536.531,138.708l-0.746,6.935l8.071-1.89L536.531,138.708z M521.012,141.275l14.314,4.329l-3.547-10.168l-2.26-1.555 l-8.83,6.366L521.012,141.275z M532.248,135.759l3.258,9.341l0.71-6.608L532.248,135.759z M630.271,137.991l6.168,7.05 l2.699-6.661L630.271,137.991z M598.866,144.191l1.353,0.695l8.77-7.829l-5.747-0.252L598.866,144.191z M582.729,135.906 l15.837,8.132l4.294-7.249L582.729,135.906z M536.571,138.328l7.727,5.321l6.848-1.604l-3.072-10.236l-3.33-2.691l-7.03-1.141 l-0.032,0.022L536.571,138.328z M548.535,132.182l2.937,9.786l7.111-1.666L548.535,132.182z M645.947,139.017l7.043,2.903 l0.639-2.904l-7.291-0.32l-0.393,0.315L645.947,139.017z M722.623,141.705l0.4,0.018l7.175-12.574l13.364-13.208l-7.255,3.28 l-5.468,8.57l1.896-6.955l-8.88,4.016l5.854,3.82l-10.453-1.74l-0.018,0.007L722.623,141.705z M714.08,141.33l8.033,0.353 l-9.523-11.263L714.08,141.33z M691.38,140.335l22.357,0.981l-1.527-11.197l-21.356,9.657l0.22,0.391L691.38,140.335z M712.619,129.934l9.551,11.297l-3.243-14.149L712.619,129.934z M689.834,140.267l0.502,0.021l0.023-0.127l-0.146-0.08 L689.834,140.267z M675.816,139.652l13.314,0.584l0.721-0.352l-16.517-9.004l-0.109,0.184L675.816,139.652z M562.103,131.937 l-3.033,8.252l18.936-4.436l-0.812-1.365L562.103,131.937z M548.364,131.612l10.407,8.411l2.993-8.141l-14.001-2.274 L548.364,131.612z M515.707,124.372l4.875,15.538l8.644-6.231L515.707,124.372z M673.508,130.592l16.715,9.112l0.08-0.04 l-15.099-11.907L673.508,130.592z M668.281,139.321l7.179,0.315l-2.469-8.182L668.281,139.321z M675.379,127.467l15.068,11.884 l-0.002-0.264l-0.162-16.978l-10.637-1.771L675.379,127.467z M654.043,138.697l13.858,0.608l4.96-8.284l-0.145-0.477l-9.654-5.263 l-7.368,5.909L654.043,138.697z M704.515,124.478l-13.239,14.738l20.8-9.406l-4.009-4.741L704.515,124.478z M690.618,122.165 l0.158,16.713l6.511-15.603L690.618,122.165z M645.025,138.638l0.555,0.229l-0.033-0.206L645.025,138.638z M697.628,123.332 l-6.476,15.519l12.969-14.438L697.628,123.332z M646.736,138.376l6.966,0.306l1.574-7.157L646.736,138.376z M645.834,138.337 l0.392,0.017l9.166-7.352l1.944-8.842l-8.239-4.492l-1.394,0.465l-3.692,9.115L645.834,138.337z M644.113,138.261l1.377,0.061 l-1.723-10.476l-3.566,8.803L644.113,138.261z M639.629,138.065l3.496,0.154l-3.05-1.257L639.629,138.065z M532.061,135.222 l4.197,2.89l1.057-9.849l-6.139,4.424L532.061,135.222z M629.965,137.641l9.308,0.409l0.492-1.216l-16.431-6.77L629.965,137.641z M621.681,137.278l7.82,0.343l-6.865-7.845l-0.881-0.363L621.681,137.278z M616.948,137.07l4.397,0.192l0.075-8.001l-1.026-0.552 L616.948,137.07z M609.824,136.758l6.769,0.297l3.505-8.505l-0.675-0.363L609.824,136.758z M578.92,136.633l0.094,0.159 l0.085-0.42L578.92,136.633z M475.215,125.205l1.32,11.544l0.777-0.209l-0.004-0.005l9.989-8.369L475.215,125.205z M603.436,136.478l5.912,0.259l9.764-8.717l-0.369-0.199l-0.583-0.171l-10.709,2.053L603.436,136.478z M622.837,129.494 l17.054,7.027l3.772-9.312l-1.206-7.328l-21.418,7.141l-0.107,0.294L622.837,129.494z M582.014,135.538l21.041,0.922l3.955-6.674 l-26.357,5.052L582.014,135.538z M487.703,128.265l-9.637,8.073l20.311-5.457L487.703,128.265z M578.528,135.975l0.202,0.339 l0.312-0.46L578.528,135.975z M577.626,134.458l0.722,1.213l0.992-0.251l0.07,0.003l0.232-0.055l-0.014,0.064l1.579,0.069 l-1.092-0.562l-0.853,0.163l-0.073-0.392L577.626,134.458z M529.81,133.672l1.782,1.227l-0.7-2.007L529.81,133.672z M579.323,133.61l0.208,1.101l0.099-0.019l-0.011-0.006l0.154-0.299l0.393,0.202l27.072-5.188l2.507-4.232l-19.604-5.778 L579.323,133.61z M578.793,134.307l0.331,0.053l-0.075-0.39L578.793,134.307z M577.386,134.078l1.397,0.228l0.228-0.545 l-3.532-18.691l-6.474-1.908l-4.041,10.991L577.386,134.078z M562.221,131.615l14.489,2.353l-11.868-9.483L562.221,131.615z M516.543,124.537l12.973,8.933l1.261-0.908l-2.112-6.056L516.543,124.537z M575.84,115.176l3.406,18.02l0.025-0.062l6.278-15.096 L575.84,115.176z M529.041,126.567l2.02,5.79l6.182-4.457L529.041,126.567z M585.874,118.133l-5.792,13.925l9.715-12.769 L585.874,118.133z M547.656,129.25l14.227,2.311l2.683-7.297l-10.293-8.226l-8.698,6.27L547.656,129.25z M545.412,129.227 l2.491,2.012l-0.507-1.69L545.412,129.227z M497.896,122.411l1.025,8.323l0.413-0.12l4.108-7.66L497.896,122.411z M657.644,122.328l-1.835,8.339l6.934-5.561L657.644,122.328z M454.431,126.635l9.024,3.867l-3.216-10.03L454.431,126.635z M466.663,119.752l-2.683,10.73l10.707-5.516L466.663,119.752z M488.022,127.997l10.099,2.474l-6.429-5.549L488.022,127.997z M672.998,130.315l0.215,0.117l1.727-2.883l-3.642-2.871L672.998,130.315z M503.805,122.989l-3.977,7.414l14.902-6.344 L503.805,122.989z M460.503,120.192l3.204,9.996l2.657-10.631l-0.425-0.276l-4.191-0.41L460.503,120.192z M491.952,124.704 l6.246,5.391l-3.876-7.376L491.952,124.704z M663.346,125.054l9.232,5.032l-1.74-5.771l-3.313-2.612L663.346,125.054z M494.587,122.498l3.894,7.411l-0.928-7.531l-2.527-0.247L494.587,122.498z M708.579,125.154l3.814,4.512l6.266-2.833 L708.579,125.154z M610.078,125.266l-2.4,4.05l9.781-1.875L610.078,125.266z M621.661,129.01l0.478,0.197l-1.34-1.532 l-0.276,0.722L621.661,129.01z M544.886,128.801l2.402,0.39l-2.001-6.674l-4.322,3.115L544.886,128.801z M538.098,127.698 l6.119,0.994l-3.534-2.856L538.098,127.698z M719.807,126.683l8.377,1.395l-4.69-3.061L719.807,126.683z M619.857,127.798 l0.484,0.143l0.205-0.555l-0.1-0.114L619.857,127.798z M475.371,124.896l12.246,3.001l3.817-3.198l-3.818-3.295l-7.499-0.734 L475.371,124.896z M618.879,127.51l0.603,0.177l0.419-0.373L618.879,127.51z M528.915,126.207l8.473,1.376l0.436-4.058 l-10.692-8.64l-1.696,1.344L528.915,126.207z M538.136,123.777l-0.407,3.772l2.683-1.933L538.136,123.777z M611.196,123.377 l7.214,3.882l1.809-0.347l-4.915-10.466L611.196,123.377z M671.128,124.116l3.985,3.143l4.178-6.98l-8.274-1.378l-1.177,0.944 L671.128,124.116z M610.254,124.968l7.05,2.079l-6.279-3.38L610.254,124.968z M615.51,116.097l5.031,10.71l0.209-0.116 l0.709-16.04l-2.478-0.412L615.51,116.097z M642.78,119.774l1.124,6.837l3.378-8.338L642.78,119.774z M719.154,126.574l0.056,0.01 l3.949-1.785l-5.188-3.387L719.154,126.574z M708.244,124.758l10.552,1.757l-1.23-5.368l-6.341-4.139l-4.912,5.467 L708.244,124.758z M621.792,110.707l-0.696,15.793l20.576-11.392l-0.184-1.122l-6.663-1.109l-13.116,13.281l-0.12-0.117 l-0.159-0.053l4.706-14.558L621.792,110.707z M449.313,117.653l4.864,8.759l5.944-6.306l-0.461-1.439L449.313,117.653z M641.729,115.456l-19.597,10.849l20.27-6.757L641.729,115.456z M515.895,124.092l12.643,2.053l-3.382-9.696l-9.472,7.498 L515.895,124.092z M733.134,120.657l-1.39,5.09l4.004-6.272L733.134,120.657z M626.472,111.485l-4.505,13.933l12.451-12.609 L626.472,111.485z M538.178,123.379l2.516,2.033l4.491-3.237l-5.064-16.88L538.178,123.379z M657.72,121.986l5.306,2.893 l4.229-3.391l-5.165-4.073l-3.245-0.54L657.72,121.986z M590.358,119.104l19.562,5.766l0.808-1.363l-16.828-9.059L590.358,119.104 z M466.749,119.406l8.256,5.367l4.657-4.147l-12.902-1.263L466.749,119.406z M704.78,124.182l2.951,0.491l-1.646-1.946 L704.78,124.182z M717.863,120.94l5.658,3.694l9.328-4.219l3.365-12.338l-8.077-7.502l-2.34,0.208l-10.003,11.137L717.863,120.94z M488.196,121.461l3.499,3.021l2.468-2.067l-0.206-0.389L488.196,121.461z M697.76,123.013l6.627,1.103l1.48-1.647l-5.275-6.24 L697.76,123.013z M554.556,115.834l10.132,8.097l3.995-10.865l-7.302-2.152L554.556,115.834z M667.793,121.486l2.875,2.267 l-1.11-3.681L667.793,121.486z M503.978,122.669l10.979,1.075l-7.486-7.584L503.978,122.669z M507.635,115.85l7.781,7.882 l9.622-7.618l-1.419-4.068l-8.428-6.81l-3.382,2.833L507.635,115.85z M594.106,114.177l16.795,9.041l4.229-7.14l-3.303-7.031 l-12.267-2.042L594.106,114.177z M527.401,114.67l10.465,8.458l1.966-18.298L527.401,114.67z M690.616,121.823l6.804,1.133 l2.928-7.017l-9.899-11.708L690.616,121.823z M497.854,122.069l5.762,0.564l3.607-6.724l-2.16-2.188l-7.467,6.255L497.854,122.069 z M700.737,115.879l5.356,6.336l4.846-5.394l-8.328-5.435L700.737,115.879z M495.386,121.828l2.126,0.208l-0.222-1.802 L495.386,121.828z M540.355,104.917l5.117,17.052l8.527-6.147L540.355,104.917z M649.532,117.523l7.879,4.295l1.101-4.999 l-4.582-0.762L649.532,117.523z M494.172,121.708l0.746,0.073l2.322-1.946l-1.6-12.989l-6.321,5.629L494.172,121.708z M679.832,120.028l10.447,1.739l-0.168-17.773l-0.85,0.283L679.832,120.028z M487.755,121.08l6.016,0.589l-4.71-8.962 l-5.417,4.825L487.755,121.08z M662.776,117.529l4.746,3.743l1.93-1.548l-0.344-1.142L662.776,117.529z M480.459,120.366 l6.716,0.657l-3.785-3.267L480.459,120.366z M711.451,116.755l6.006,3.92l-1.938-8.45L711.451,116.755z M466.842,119.033 l13.162,1.289l3.13-2.787l-11.098-9.578l-3.301,3.501L466.842,119.033z M736.492,108.336l-3.244,11.9l2.829-1.28l4.41-6.91 L736.492,108.336z M671.368,118.619l8.109,1.351l9.045-15.11L671.368,118.619z M460.026,118.703l0.36,1.124l0.939-0.997 L460.026,118.703z M495.946,106.576l1.601,13.003l7.279-6.098l-7.782-7.883L495.946,106.576z M669.477,118.645l0.258,0.853 l0.837-0.671L669.477,118.645z M642.041,115.283l0.684,4.157l4.723-1.574l0.364-0.898l-4.44-2.421L642.041,115.283z M586.004,117.821l4.01,1.182l3.588-4.716l-5.007-2.695L586.004,117.821z M466.054,118.955l0.45,0.044l1.761-7.041l-4.93,5.23 L466.054,118.955z M462.04,118.562l3.289,0.322l-2.229-1.447L462.04,118.562z M740.736,112.279l-4.098,6.424l7.408-3.35 L740.736,112.279z M669.369,118.286l1.554,0.259l17.395-13.952l-20.971,6.991L669.369,118.286z M459.914,118.354l1.703,0.167 l1.196-1.271l-4.109-2.671L459.914,118.354z M449.159,117.301l10.39,1.017l-1.291-4.029l-10.4-6.761L449.159,117.301z M662.229,117.097l6.771,1.127l-1.971-6.534l-7.603,2.534l-0.124,0.564L662.229,117.097z M648.107,117.13l-0.24,0.597l0.828-0.277 L648.107,117.13z M575.77,114.805l9.91,2.92l2.617-6.293l-14.581-7.849l0.031,0.515L575.77,114.805z M472.268,107.712 l11.119,9.597l5.513-4.909l-3.69-7.022l-10.608-0.141L472.268,107.712z M648.236,116.817l0.896,0.489l4.097-1.366l-4.345-0.723 L648.236,116.817z M458.542,114.072l4.507,2.93l5.382-5.711l1.326-5.302l-0.959-0.829l-13.168-0.175L458.542,114.072z M658.915,116.546l2.624,0.437l-2.317-1.828L658.915,116.546z M643.725,114.358l4.215,2.297l0.605-1.495L643.725,114.358z M702.743,111.071l8.423,5.498l4.262-4.744l-2.275-9.92l-6.839,0.607L702.743,111.071z M654.611,115.83l3.973,0.662l0.345-1.568 l-0.476-0.375L654.611,115.83z M524.115,112.447l1.201,3.446l1.548-1.225L524.115,112.447z M612.23,109.115l3.107,6.614 l3.288-5.549L612.23,109.115z M649.013,114.897l4.896,0.815l4.231-1.411l-5.909-4.66l-1.405,0.777L649.013,114.897z M540.812,104.853l13.472,10.764l6.689-4.822L540.812,104.853z M505.321,113.505l2.066,2.095l3.729-6.95L505.321,113.505z M690.613,103.906l9.879,11.685l1.833-4.391l-11.239-7.336L690.613,103.906z M641.838,114.043l0.146,0.891l1.04-0.576l-0.31-0.169 L641.838,114.043z M742.219,109.958l2.082,4.906l3.061-12.966L742.219,109.958z M644.189,114.094l4.484,0.747l1.686-4.162 L644.189,114.094z M740.922,111.991l2.963,2.752l-1.886-4.441L740.922,111.991z M569.121,112.845l6.287,1.853l-1.995-10.559 l-0.044-0.743l-0.646-0.348L569.121,112.845z M658.835,114.422l0.173,0.137l0.047-0.21L658.835,114.422z M523.904,111.845 l3.23,2.61l12.616-9.988l-1.185-0.729l-17.277,0.609L523.904,111.845z M652.55,109.465l5.973,4.709l0.615-0.205l2.042-9.282 L652.55,109.465z M588.724,111.281l5.084,2.736l5.381-7.073l-8.1-1.349L588.724,111.281z M642.825,113.867l0.835,0.139 l6.898-3.819l0.572-1.413l-6.89-5.434l-3.57,3.615l1.037,6.303L642.825,113.867z M661.571,104.471l-2.062,9.375l7.423-2.475 l-2.552-8.456L661.571,104.471z M448.036,107.244l10.061,6.539l-2.808-8.759L448.036,107.244z M635.113,112.583l6.316,1.052 l-0.027-0.16l-4.661-2.541L635.113,112.583z M497.294,105.375l7.79,7.891l6.46-5.412l1.729-3.225l-15.764,0.555L497.294,105.375z M636.988,110.686l4.346,2.369l-0.954-5.804L636.988,110.686z M561.727,110.666l7.072,2.084l3.592-9.771L561.727,110.666z M626.576,111.162l8.132,1.354l1.726-1.749l-8.271-4.509L626.576,111.162z M485.592,105.382l3.566,6.788l6.434-5.729l-0.115-0.927 L485.592,105.382z M736.592,107.97l4.079,3.789l1.169-1.831l-3.52-8.291L736.592,107.97z M713.491,101.875l2.211,9.644 l9.605-10.693L713.491,101.875z M515.454,105.016l7.954,6.429l-2.471-7.086l-4.905,0.173L515.454,105.016z M664.681,102.749 l2.57,8.516l21.433-7.144l-14.66-6.544L664.681,102.749z M573.691,103.189l14.736,7.932l2.321-5.583l-17.086-2.845 L573.691,103.189z M621.807,110.368l4.435,0.738l1.621-5.012l-4.857-2.648l-0.965,1.629L621.807,110.368z M691.626,103.816 l10.831,7.069l3.479-8.339L691.626,103.816z M470.042,106.235l-1.139,4.556l2.88-3.054L470.042,106.235z M540.372,104.372 l20.945,6.173l10.831-7.806l-0.321-0.172l-30.674,1.08L540.372,104.372z M628.268,105.932l8.413,4.586l3.631-3.677l-1.247-7.582 l-6.885-5.429L628.268,105.932z M619.164,109.928l2.309,0.384l0.204-4.625L619.164,109.928z M651.405,108.991l-0.38,0.938 l0.922-0.51L651.405,108.991z M612.057,108.745l6.752,1.124l2.9-4.894l0.096-2.184l-13.457-7.336l-1.565,2.058L612.057,108.745z M651.537,108.667l0.729,0.575l9.008-4.988l1.48-6.727l-1.736-5.756l-2.233-0.997L651.537,108.667z M599.792,106.703l11.863,1.975 l-5.103-10.863L599.792,106.703z M644.479,103.1l6.783,5.35l7.215-17.812l-1.174-0.524L644.479,103.1z M728.589,100.535 l7.726,7.177l1.793-6.576l-0.592-1.393L728.589,100.535z M470.134,105.87l1.879,1.623l2.131-2.262l-3.838-0.05L470.134,105.87z M513.662,104.615l-1.426,2.658l2.688-2.252l-0.533-0.432L513.662,104.615z M591.222,105.276l8.196,1.365l6.975-9.167 l-1.948-4.145l-2.336-1.273l-6.338,2.284L591.222,105.276z M639.456,99.567l1.148,6.978l3.371-3.414L639.456,99.567z M495.815,105.518l0.08,0.652l0.721-0.641L495.815,105.518z M623.177,103.157l4.79,2.611l3.933-12.16l-2.09-1.647L623.177,103.157 z M469.319,105.167l0.528,0.457l0.113-0.448L469.319,105.167z M573.642,102.35l17.239,2.869l4.462-10.726l-21.703,7.82 L573.642,102.35z M485.414,105.044l10.021,0.133l-0.119-0.969l-11.96-3.078L485.414,105.044z M474.913,104.905l10.118,0.134 l-2.114-4.022l-3.492-0.899L474.913,104.905z M495.665,104.297l0.076,0.612l0.601-0.021l-0.55-0.558L495.665,104.297z M470.39,104.845l4.067,0.054l4.597-4.876l-7.008-1.804L470.39,104.845z M496.424,104.493l0.375,0.378l0.578-0.021l0.354-0.316 l-0.688,0.117L496.424,104.493z M468.923,104.825l1.121,0.015l1.677-6.706l-15.03-3.868L468.923,104.825z M498.355,104.43 l-0.452,0.403l15.554-0.547l0.169-0.315l-2.184-1.765L498.355,104.43z M455.563,104.648l12.838,0.17l-13.017-11.235l16.418,4.225 l2.978-11.909l-19.439,7.372L455.563,104.648z M514.903,104.571l0.286,0.229l0.297-0.25L514.903,104.571z M622.133,102.971 l-0.061,1.391l0.638-1.077L622.133,102.971z M495.965,104.028l1.093,0.281l1.147-0.194l7.421-6.609l-11.99-9.69l1.954,15.864 L495.965,104.028z M514.055,103.885l0.45,0.364l1.401-0.049l3.851-3.226l-0.06-0.17l-4.39,0.746L514.055,103.885z M519.875,101.312l-3.423,2.868l4.369-0.154L519.875,101.312z M539.888,103.691l0.17,0.379l0.214-0.393L539.888,103.691z M662.953,98.187l-1.285,5.85l2.614-1.448L662.953,98.187z M539.17,103.717l0.5,0.308l-0.143-0.32L539.17,103.717z M520.15,101.082l1.023,2.932l16.875-0.593l-7.303-4.495l-10.063,1.71L520.15,101.082z M505.893,97.72l-7.062,6.288l12.264-2.084 L505.893,97.72z M674.392,97.373l14.729,6.575l0.65-0.522l-0.12,0.201l0.414-0.261l-0.019-0.181l-1.036-0.675l-0.019-0.047 l-4.558-10.651L674.392,97.373z M483.146,100.729l12.126,3.121l-0.001-0.003l-10.535-9.362l-3.128,3.318L483.146,100.729z M511.884,102.131l1.904,1.539l1.1-2.049L511.884,102.131z M690.819,103.29l0.358,0.233l14.902-1.324l4.608-11.043l-0.071-0.309 L690.819,103.29z M531.247,98.841l7.406,4.558l0.727-0.025l-2.448-5.498L531.247,98.841z M537.273,97.817l2.467,5.543l0.719-0.025 l3.635-6.677L537.273,97.817z M484.966,94.24l10.244,9.102l-1.949-15.83l-1.109-0.896L484.966,94.24z M544.516,96.586 l-3.668,6.735l0.168-0.006l8.076-7.506L544.516,96.586z M549.694,95.707l-8.166,7.591l29.738-1.046l-13.896-7.849L549.694,95.707z M572.84,102.73l0.506,0.272l-0.021-0.365l-0.373-0.062l-0.074,0.053L572.84,102.73z M690.364,102.992l0.011,0.007l6.556-18.104 l-7.988,4.422L690.364,102.992z M622.149,102.598l0.731,0.398l6.662-11.245l-6.683-5.271L622.149,102.598z M697.377,84.648 l-6.62,18.285L710.538,90.5l-1.828-7.971l-2.754-2.558l-0.134,0.002L697.377,84.648z M639.376,99.076l4.837,3.815l12.763-12.925 l-20.099-8.971l-0.475,0.007L639.376,99.076z M689.281,102.285l0.721,0.47l-1.378-13.26l-3.894,2.155L689.281,102.285z M571.949,102.25l0.502,0.271l0.146-0.106l0.581-1.578l-1.41-1.042l0.198-0.271l0.969,0.715l-3.779-7.839l-11.259,1.913 L571.949,102.25L571.949,102.25z M663.102,97.514l1.481,4.909l9.061-5.016l-9.579-4.275L663.102,97.514z M608.553,95.186 l13.268,7.232l0.715-16.194l-1.33-1.049l-6.939,2.501L608.553,95.186z M710.817,91.719l-4.359,10.447l6.62-0.588L710.817,91.719z M573.271,101.755l-0.108,0.373l0.127-0.046L573.271,101.755z M573.549,100.799l0.07,1.164l21.898-7.89l1.902-4.574l-2.66-1.45 l-17.624,2.995L573.549,100.799z M506.146,97.493l5.39,4.356l3.554-0.604l2.886-5.38l-2.132-6.109l-0.597-0.368L506.146,97.493z M711.041,91.186l2.374,10.361l12.22-1.085l1.083-1.205l-11.896-11.052l-3.439,2.161L711.041,91.186z M518.125,96.297 l-2.616,4.877l4.076-0.692L518.125,96.297z M479.688,99.838l3.018,0.777l-1.343-2.554L479.688,99.838z M737.867,99.711 l0.383,0.902l0.262-0.959L737.867,99.711z M518.341,95.895l1.581,4.53l0.614-0.104l5.282-4.426l-5.621-3.459L518.341,95.895z M726.964,99.485l-0.838,0.933l1.682-0.149L726.964,99.485z M727.189,99.234l1.069,0.994l9.12-0.81l-3.324-7.828L727.189,99.234z M526.121,96.08l-4.929,4.128l9.119-1.549L526.121,96.08z M573.01,91.745l0.489,8.218l3.256-8.854L573.01,91.745z M569.502,92.341 l3.661,7.596l-0.485-8.136L569.502,92.341z M472.127,97.892l7.19,1.851l1.881-1.997l-6.121-11.65L472.127,97.892z M734.304,91.314 l3.427,8.072l0.875-0.078l2.158-7.915l-3.412-3.473L734.304,91.314z M741.037,91.672l-2.074,7.605l8.779-0.78L741.037,91.672z M715.115,88.019l11.827,10.987l6.968-7.757l-5.042-11.874L715.115,88.019z M632.29,93.489l6.694,5.278l-2.833-17.219 L632.29,93.489z M526.392,95.853l4.421,2.721l5.979-1.016l-3.378-7.589L526.392,95.853z M741.138,91.296l6.528,6.644 l-4.871-12.718L741.138,91.296z M533.682,89.746l3.451,7.754l7.165-1.218l3.859-7.086l-8.255-4.663L533.682,89.746z M475.598,86.366l5.844,11.121l3.042-3.227L475.598,86.366z M493.576,87.335l12.305,9.944l9.067-8.074l-15.973-9.829l-5.643,5.985 L493.576,87.335z M664.14,92.796l9.871,4.406l10.291-5.699l-4.767-11.141l-12.702,0.188L664.14,92.796z M604.944,93.601 l1.678,3.571l1.428-1.878L604.944,93.601z M661.424,91.952l1.479,4.902l0.851-3.862L661.424,91.952z M548.449,89.362l-3.729,6.849 l4.819-0.819l3.622-3.368L548.449,89.362z M520.355,92.138l5.734,3.529l7.183-6.017l-5.199-11.683l-0.22,0.196L520.355,92.138z M516.297,90.035l1.894,5.429l1.719-3.206L516.297,90.035z M553.47,92.197l-3.326,3.092l6.765-1.149L553.47,92.197z M604.702,93.086l3.555,1.937l5.431-7.14l-9.775,3.521L604.702,93.086z M553.729,91.957l3.705,2.093l11.571-1.966l-4.77-9.895 L553.729,91.957z M475.29,85.642l9.424,8.374l7.176-7.612l-8.319-6.724L475.29,85.642z M597.717,89.662l-1.771,4.257l5.769-2.078 L597.717,89.662z M629.982,91.669l2.026,1.598l3.572-11.048L629.982,91.669z M602.532,91.903l1.671,0.912l-0.607-1.294 L602.532,91.903z M661.295,91.527l2.531,1.13l2.589-11.771l-6.146,6.223l-0.176,0.435L661.295,91.527z M564.492,81.95 l4.857,10.076l3.309-0.562l-0.953-15.982l-0.16-0.086L564.492,81.95z M516.123,89.533l3.945,2.429l7.054-13.148l-11.246,10.015 L516.123,89.533z M548.61,89.066l4.812,2.718l10.661-9.912l-5.424-11.256L548.61,89.066z M597.847,89.35l4.291,2.339l1.314-0.474 l-2.02-4.299l-2.77,0.471L597.847,89.35z M622.879,86.067l6.837,5.392l6.159-10.395l-6.167,1.048l-6.763,2.437L622.879,86.067z M572.051,75.671l0.938,15.736l3.899-0.662l3.81-10.361L572.051,75.671z M658.912,90.463l1.978,0.883l-0.998-3.306L658.912,90.463 z M679.897,80.357l4.7,10.983l3.986-2.207l-0.924-8.892L679.897,80.357z M601.775,86.857l1.994,4.244l10.293-3.709l2.29-3.01 L601.775,86.857z M737.576,87.67l3.29,3.349l1.726-6.329l-0.699-1.825L737.576,87.67z M729.446,79.876l4.712,11.098l2.957-3.292 L729.446,79.876z M580.995,80.546l-3.725,10.134l17.013-2.891L580.995,80.546z M657.555,89.858l1.049,0.468l1.052-2.594 L657.555,89.858z M709.147,82.935l1.691,7.375l0.274-0.172l1.617-3.876L709.147,82.935z M712.992,86.506l-1.386,3.321l2.96-1.86 L712.992,86.506z M637.676,80.984l19.552,8.727l2.428-2.458l-1.981-6.566L637.676,80.984z M528.492,78.087l5.048,11.339 l6.052-5.069L528.492,78.087z M595.295,87.959l2.256,1.229l0.721-1.735L595.295,87.959z M499.211,79.126l15.999,9.846l0.274-0.245 l-4.511-12.932l-9.937,1.395L499.211,79.126z M687.998,80.237l0.907,8.719l8.198-4.54l1.571-4.338L687.998,80.237z M540.18,84.303 l8.139,4.598l10.155-18.647l-0.527-0.835L540.18,84.303z M511.313,75.748l4.443,12.737l11.827-10.532l0.156-0.291l-5.981-3.379 L511.313,75.748z M713.131,86.175l1.73,1.607l12.944-8.136l-12.025,0.179L713.131,86.175z M581.112,80.227l13.705,7.472 l3.607-0.613l1.449-3.487l-11.22-23.887L581.112,80.227z M729.494,79.445l7.846,7.986l4.303-4.79L729.494,79.445z M616.834,84.299 l-2.194,2.884l6.254-2.253l-1.378-1.087L616.834,84.299z M492.383,86.371l0.819,0.662l-0.167-1.354L492.383,86.371z M600.067,84.01l-1.252,3.01l2.47-0.419L600.067,84.01z M658.023,80.682l1.9,6.299l0.059-0.061l2.555-6.306L658.023,80.682z M600.242,83.59l1.387,2.952l15.021-2.553l1.144-1.504l-12.871-10.15L600.242,83.59z M662.902,80.609l-2.304,5.688l5.666-5.738 L662.902,80.609z M483.981,79.582l8.139,6.578l0.868-0.921l-0.226-6.888L483.981,79.582z M709.015,82.352l3.854,3.579l2.545-6.102 l-6.954,0.103L709.015,82.352z M621.578,85.042l0.976,0.769l0.05-1.139L621.578,85.042z M477.549,59.674l-2.327,25.603 l7.704-5.547l-0.039,0.005l0.404-0.275l-6.35-4.938l5.213-0.131l-3.251-13.228L477.549,59.674z M493.097,78.303l0.216,6.591 l5.37-5.698l-2.218-1.366L493.097,78.303z M619.963,83.768l1.304,1.028l1.354-0.488l0.043-1L619.963,83.768z M623.002,83.251 l-0.041,0.935l4.871-1.755L623.002,83.251z M699.034,80.073l-1.483,4.096l7.56-4.186L699.034,80.073z M528.325,77.606l11.54,6.52 l17.566-14.715l-28.026,7.731l8.722-5.155l-8.781,1.231L528.325,77.606z M618.057,82.692l-0.926,1.215l2.03-0.345L618.057,82.692z M618.261,82.425l1.347,1.062l3.07-0.522l0.3-6.74L618.261,82.425z M589.09,59.85l10.959,23.33l4.601-11.061L589.09,59.85z M623.333,75.755l-0.315,7.152l6.604-1.122l4.995-1.799l-10.826-4.833L623.333,75.755z M605.058,72.013l12.94,10.205l5.004-6.577 l0.036-0.823l-16.149-7.208L605.058,72.013z M706.443,79.963l2.133,1.982l-0.46-2.006L706.443,79.963z M558.855,70.254 l5.485,11.379l6.893-6.408l-11.633-6.341L558.855,70.254z M635.06,80.184l-3.562,1.282l4.488-0.763l-0.039-0.123L635.06,80.184z M655.05,71.993l-18.083,8.665l20.605-0.306L655.05,71.993z M636.223,80.335l0.332,0.148l18.397-8.815l-2.978-9.87l-15.33,17.815 l-0.583,0.21L636.223,80.335z M655.357,71.846l2.564,8.501l4.753-0.07l6.001-14.813L655.357,71.846z M669.125,65.248 l-6.085,15.023l3.521-0.052l3.379-15.362L669.125,65.248z M675.725,71.458l-8.643,8.753l12.311-0.183L675.725,71.458z M635.515,80.019l0.298,0.133l-0.068-0.215L635.515,80.019z M572.028,75.275l8.786,4.79l7.421-20.187L572.01,74.963 L572.028,75.275z M675.98,71.199l3.774,8.824l7.871-0.116l-1.313-12.633l-5.05-1.424L675.98,71.199z M686.66,67.372l1.303,12.529 l10.834-0.161l1.739-4.805l-5.642-5.24L686.66,67.372z M670.325,64.673l-3.332,15.149l8.589-8.698l-3.186-7.444L670.325,64.673z M624,74.879l11.072,4.942l0.572-0.206l-4.464-14.177L624,74.879z M700.805,75.184l-1.647,4.551l6.442-0.096L700.805,75.184z M707.865,78.842l-1.418,0.785l1.592-0.024L707.865,78.842z M708.171,78.673l0.212,0.925l7.173-0.106l1.48-3.55l-2.605-0.735 L708.171,78.673z M700.929,74.841l5.03,4.673l1.828-1.012l-1.268-5.528l-4.459-1.258L700.929,74.841z M631.43,65.11l4.53,14.392 l0.488-0.176l15.41-17.91l-0.417-1.387l-19.594,4.534L631.43,65.11z M717.362,76.034l-1.441,3.453l12.913-0.192l-0.011-0.027 L717.362,76.034z M491.108,74.535l-6.844,4.667l8.486-1.19l-0.082-2.517L491.108,74.535z M482.58,74.717l1.101,4.477l6.857-4.677 L482.58,74.717z M477.892,74.834l5.405,4.205l-1.061-4.314L477.892,74.834z M496.985,77.758l1.934,1.189l1.585-1.683 L496.985,77.758z M717.492,75.721l10.573,2.982l-8.797-6.284l-14.371-8.02l1.905,8.305l7.587,2.141l4.511-2.497L717.492,75.721z M706.889,73.078l1.204,5.254l5.88-3.255L706.889,73.078z M493.013,75.707l0.074,2.259l2.927-0.411L493.013,75.707z M492.999,75.304l3.539,2.178l4.335-0.608l7.274-7.718l-15.194,4.775l0.002,0.022L492.999,75.304z M522.307,74.206l5.467,3.089 l-1.615-3.629L522.307,74.206z M526.504,73.618l1.579,3.547l0.907-3.896L526.504,73.618z M508.645,69.119l-7.239,7.68l9.455-1.327 L508.645,69.119z M538.992,71.865l-7.242,4.281l24.082-6.643L538.992,71.865z M714.849,74.976l2.317,0.653l1.052-2.519 L714.849,74.976z M508.904,68.843l2.297,6.582l10.076-1.414l-11.253-6.357L508.904,68.843z M491.506,74.385l1.15,0.708 l-0.034-1.059L491.506,74.385z M559.959,68.696l11.534,6.289l0.172-0.16l-0.58-9.715L559.959,68.696z M623.384,74.604l0.305,0.135 l7.371-9.69l-0.314-1.022l-6.726-3.844L623.384,74.604z M695.604,69.896l5.057,4.697l1.074-2.967L695.604,69.896z M571.415,65.003 l0.569,9.525l15.984-14.859L571.415,65.003z M607.018,67.299l16.036,7.158l0.638-14.46L612.674,53.7L607.018,67.299z M479.377,61.685l3.121,12.698l8.234-0.207L479.377,61.685z M479.21,61l11.946,13.142l1.448-0.456L492.028,62.6l-12.14-3.125 l-0.979,0.304L479.21,61z M510.263,67.402l11.562,6.533l4.19-0.588l-3.447-7.749l-11.626,1.083L510.263,67.402z M492.369,62.687 l0.566,10.896l15.561-4.89l-0.711-2.039L492.369,62.687z M522.92,65.565l3.442,7.732l2.71-0.379l1.887-8.101L522.92,65.565z M531.311,64.784l-1.883,8.084l9.452-1.326l12.279-7.258l-2.111-1.151L531.311,64.784z M702.175,71.399l4.258,1.202l-1.818-7.938 L702.175,71.399z M589.799,59.981l14.984,11.816l1.799-4.325L589.799,59.981z M652.234,61.496l3.024,10.024l13.604-6.52 l0.963-2.378l-13.337-3.762l-2.481,0.574L652.234,61.496z M551.504,64.471l-11.759,6.95l17.882-2.508l-1.065-1.684L551.504,64.471 z M695.064,69.394l6.786,1.914l2.571-7.102l-17.742-2.602L695.064,69.394z M672.708,63.552l3.129,7.314l5.057-5.121l-7.937-2.239 L672.708,63.552z M558.205,69.202l0.451,0.715l0.542-0.993L558.205,69.202z M686.622,67.012l7.733,2.182l-8.31-7.718 L686.622,67.012z M557.166,67.558l0.824,1.304l0.345-0.048l0.753-0.208L557.166,67.558z M508.176,66.755l0.604,1.73l0.944-1.001 l-1.048-0.592l-0.034,0.003l-0.021-0.026L508.176,66.755z M563.445,61.792l-3.563,6.576l11.183-3.604l-0.218-3.661L563.445,61.792 z M556.797,66.974l2.558,1.393l-0.248-6.171l-4.456,0.415l-0.443,0.261L556.797,66.974z M559.441,62.165l0.237,5.875l3.364-6.21 L559.441,62.165z M509.262,66.837l0.699,0.395l0.476-0.504L509.262,66.837z M589.154,59.325l17.558,7.837l5.598-13.46 L589.154,59.325z M681.533,65.576l4.74,1.337l-0.577-5.554L681.533,65.576z M551.841,64.271l4.353,2.373l-2.275-3.601 L551.841,64.271z M507.634,65.203l1.149,1.342l2.002-0.187l8.233-8.735l-0.713-1.601l-13.453,1.207L507.634,65.203z M508.043,66.374l0.194,0.05l-0.299-0.349L508.043,66.374z M519.166,57.955l-7.875,8.356l11.133-1.037L519.166,57.955z M492.352,62.335l15.301,3.938l-0.315-0.899l-6.654-7.771l-8.537,0.766L492.352,62.335z M673.71,63.369l7.454,2.104l4.168-4.223 L673.71,63.369z M519.417,57.69l3.359,7.551l8.264-0.77l2.282-9.797l-12.087,1.084L519.417,57.69z M670.151,62.714l-0.839,2.07 l0.72-0.344l0.17-0.774l2.021-0.368L670.151,62.714z M631.165,64.268l0.142,0.455l0.199-0.26L631.165,64.268z M571.181,61.072 l0.214,3.586l15.735-5.071L571.181,61.072z M501.093,57.566l5.94,6.935l-2.526-7.242L501.093,57.566z M533.648,54.738 l-2.258,9.701l17.13-1.595L533.648,54.738z M670.482,63.958l-0.065,0.299l0.967-0.463L670.482,63.958z M631.03,63.803l0.654,0.374 l5.005-10.686l-5.73-6.12l-4.239,1.446L631.03,63.803z M637.002,53.614l-4.947,10.556l19.288-4.464l-0.757-2.512l-12.717-3.587 l0.032-0.116L637.002,53.614z M549.648,63.077l1.849,1.008l2.242-1.326l-0.038-0.06L549.648,63.077z M624.036,59.807l6.575,3.758 l-4.21-14.638l-1.915,0.653L624.036,59.807z M670.279,62.401l2.694,0.761l12.317-2.246l-12.038-5.857L670.279,62.401z M533.986,54.539l15.133,8.25l4.38-0.407l-7.104-11.246L533.986,54.539z M546.733,51.042l7.14,11.304l0.671-0.062l4.459-2.637 l-0.477-11.839L546.733,51.042z M657.171,58.703l12.782,3.607l2.935-7.244L657.171,58.703z M480.868,59.38l11.143,2.868 l-0.199-3.849L480.868,59.38z M559.02,60.029l-3.691,2.181l3.764-0.35L559.02,60.029z M559.347,59.834l0.081,1.994l3.809-0.354 l3.139-5.794L559.347,59.834z M566.937,55.349l-3.299,6.088l7.188-0.669l-0.444-7.456L566.937,55.349z M651.77,59.953l0.35,1.161 l1.335-1.55L651.77,59.953z M570.707,53.12l0.454,7.616l17.181-1.6l-6.451-9.849l-3.793-0.536L570.707,53.12z M477.62,59.252 l1.114,1.227l-0.228-0.927l0.763-0.236l-0.373-0.096l0.958-0.085l11.804-3.667l-0.403-7.772l-6.878-1.133L477.62,59.252z M650.969,57.302l0.702,2.329l2.153-0.499l0.708-0.824L650.969,57.302z M612.999,53.499l10.709,6.12l0.438-9.923L612.999,53.499z M558.858,47.716l0.474,11.737l7.354-4.347l3.426-6.323l-0.069-1.171l-7.128-1.008L558.858,47.716z M590.871,50.558l-2.009,8.492 l22.838-5.546L590.871,50.558z M654.891,58.409l-0.513,0.595l1.439-0.333L654.891,58.409z M491.676,55.813l-10.229,3.177 l10.346-0.928L491.676,55.813z M471.482,50.074l5.917,8.876l6.627-12.445l-6.564-1.081L471.482,50.074z M582.334,49.351 l6.229,9.51l1.974-8.35L582.334,49.351z M655.133,58.127l1.365,0.386l16.125-3.731l-10.704-4.542L655.133,58.127z M492.007,55.71 l0.12,2.322l8.287-0.742l-2.836-3.31L492.007,55.71z M650.854,56.92l3.922,1.107l6.68-7.763l-12.109,1.659L650.854,56.92z M518.659,55.99l0.609,1.368l1.464-1.553L518.659,55.99z M497.929,53.872l2.896,3.381l3.569-0.32l-1.596-4.574L497.929,53.872z M503.119,52.259l1.62,4.643l13.422-1.204l-1.716-3.855l-7.835-1.29L503.119,52.259z M638.437,53.417l12.034,3.396l-1.463-4.844 L638.437,53.417z M516.842,51.908l1.673,3.758l2.564-0.23l2.309-2.449L516.842,51.908z M523.788,53.052l-2.204,2.338l10.622-0.953 L523.788,53.052z M491.594,47.751l0.396,7.613l5.351-1.662l-4.991-5.827L491.594,47.751z M570.15,49.419l-2.902,5.354l3.111-1.839 L570.15,49.419z M524.066,52.757l9.168,1.509l-3.773-7.233L524.066,52.757z M533.703,42.758l0.004,11.381l9.723-7.697 l-1.799-2.848l-7.297-1.032L533.703,42.758z M543.609,46.727l-9.32,7.38l11.918-3.268L543.609,46.727z M529.705,46.774 l3.671,7.035l-0.006-10.923L529.705,46.774z M492.864,47.96l4.825,5.633l4.998-1.553l-0.912-2.613L492.864,47.96z M590.948,50.229 l21.154,2.991L599.57,41.126l-6.208-1.102L590.948,50.229z M647.067,45.534l-9.598,7.677l11.44-1.567L647.067,45.534z M600.163,41.231l12.412,11.979l6.742-8.58L600.163,41.231z M631.307,47.253l5.519,5.891l3.159-8.852L631.307,47.253z M619.879,44.455l-6.805,8.663l11.088-3.782l0.232-5.273L619.879,44.455z M640.391,44.155l-3.145,8.804l9.523-7.617l-6.214-1.243 L640.391,44.155z M570.452,48.86l0.232,3.883l6.88-4.067l-6.513-0.921L570.452,48.86z M516.68,51.541l6.986,1.15l5.631-5.973 l-1.163-2.229l-12.821,3.982L516.68,51.541z M502.153,49.49l0.854,2.451l4.862-1.51L502.153,49.49z M647.409,45.507l1.838,6.09 l11.877-1.626L647.409,45.507z M509.327,50.33l6.955,1.146l-1.293-2.905L509.327,50.33z M543.874,46.517l2.671,4.229l11.968-3.282 l-0.06-1.489l-11.788-1.667L543.874,46.517z M502.026,49.128l6.56,1.08l6.267-1.947l-3.992-8.968l-10.986,3.663L502.026,49.128z M582.088,48.977l8.527,1.206l2.416-10.217l-0.053-0.009l-12.109,7.158L582.088,48.977z M624.731,44.046l-0.228,5.173l1.805-0.616 l-1.311-4.557H624.731z M492.524,47.563l9.125,1.502l-2.139-6.131l-8.104-9.792l-7.571,4.279l3.101,3.619l3.925-7.372 l0.662,12.727L492.524,47.563z M578.561,48.478l3.084,0.437l-1.066-1.629L578.561,48.478z M625.347,44.046l1.28,4.449l4.08-1.392 l-2.862-3.057H625.347z M571.223,47.44l6.806,0.962l2.365-1.399l-2.884-4.403l-4.306,1.181L571.223,47.44z M570.381,47.66 l0.034,0.564l0.281-0.52L570.381,47.66z M511.229,39.295l3.946,8.866l12.8-3.976l-1.42-2.723L511.229,39.295z M491.576,47.407 l0.433,0.072l-0.456-0.534L491.576,47.407z M570.361,47.318l0.506,0.072l1.888-3.485l-2.556,0.701L570.361,47.318z M558.79,46.021 l0.055,1.351l3.23-0.886L558.79,46.021z M484.544,46.25l6.692,1.102l-0.042-0.825l-4.193-4.893L484.544,46.25z M563.729,46.38 l6.292,0.89l-0.153-2.574L563.729,46.38z M628.306,44.046l2.749,2.938l8.613-2.938H628.306z M577.851,42.507l2.834,4.325 l11.786-6.966l-3.031-0.538L577.851,42.507z M528.46,44.387l1.08,2.072l3.21-3.404L528.46,44.387z M558.776,45.68l4.116,0.582 l6.956-1.907l-0.514-8.593l-9.11-1.616l-1.874,0.936L558.776,45.68z M542.067,43.656l1.627,2.576l2.514-1.991L542.067,43.656z M477.511,45.092l6.683,1.1l2.573-4.833l-3.26-3.806l-10.577,1.322L477.511,45.092z M487.172,41.315l3.993,4.662l-0.575-11.082 L487.172,41.315z M547.028,44.019l11.411,1.613l-0.416-10.32L547.028,44.019z M569.675,35.821l0.503,8.442l2.8-0.768l2.316-4.275 l-1.779-2.717L569.675,35.821z M609.312,35.046l9.599,9.156l0.521-0.045l0.395-9.973l-1.418-1.809L609.312,35.046z M599.73,40.812 l18.6,3.3l-9.392-8.957l-11.555,3.392L599.73,40.812z M623.712,39.574l-3.549,4.518l4.408-0.382h0.33L623.712,39.574z M526.964,41.521l1.338,2.564l4.917-1.527l0.126-0.134L526.964,41.521z M620.146,34.592l-0.373,9.458l3.826-4.869l-0.067-0.232 l0.136,0.145l0.005-0.006L620.146,34.592z M541.831,43.284l4.741,0.67l10.795-8.546l-17.146,5.326L541.831,43.284z M625.252,43.71 h2.278l-3.289-3.513L625.252,43.71z M575.504,39.539l-2.077,3.833l3.889-1.066L575.504,39.539z M535.084,42.33l6.312,0.892 l-1.507-2.385L535.084,42.33z M534.035,42.181l0.271,0.039l5.396-1.677l-1.653-2.619L534.035,42.181z M575.686,39.204l1.971,3.008 l11.012-3.021l-11.837-2.101L575.686,39.204z M526.773,41.154l6.596,0.933l-0.003-9.695l-11.852-1.316L526.773,41.154z M533.7,32.429l0.003,9.614l4.16-4.414l-3.221-5.096L533.7,32.429z M511.361,38.975l15.001,2.122l-5.198-9.966L511.361,38.975z M593.459,39.7l5.678,1.008l-2.124-2.051L593.459,39.7z M538.286,37.671l1.749,2.769l17.324-5.382l-15.035-1.67L538.286,37.671z M590.195,39.121l2.719,0.482l0.234-0.138l0.293-1.234L590.195,39.121z M593.81,38.129l-0.283,1.201l3.207-0.941l-0.854-0.827 L593.81,38.129z M576.998,36.78l12.426,2.205l4.104-1.126l0.494-2.087L583.203,25.33L576.998,36.78z M573.969,36.583l1.508,2.301 l1.005-1.855L573.969,36.583z M620.168,34.073l3.685,4.698l4.276-9.226l-7.512-6.859l-0.228,5.752l6.966,1.31l-7.1,2.084 L620.168,34.073z M596.199,37.405l0.906,0.875l11.553-3.392l-3.271-3.121L596.199,37.405z M594.304,36.042l-0.405,1.715 l1.699-0.466L594.304,36.042z M535.07,32.582l3.03,4.795l3.805-4.037L535.07,32.582z M594.394,35.662l1.556,1.502l9.186-5.637 l-7.326-6.988l-14.25,0.666l10.554,10.186l2.452-10.374l0.327,0.077L594.394,35.662z M573.716,36.197l2.935,0.521l6.164-11.376 l-13.422,4.257L573.716,36.197z M569.654,35.477l3.607,0.64l-3.926-5.992L569.654,35.477z M560.729,33.893l8.586,1.523 l-0.336-5.647L560.729,33.893z M542.613,33.081l15.54,1.727l1.521-0.761l-1.574-0.279l-8.47-8.132L542.613,33.081z M605.683,31.585l3.349,3.193l9.153-2.688l-3.429-4.371l-2.122-0.399L605.683,31.585z M618.756,32.273l1.092,1.392l0.068-1.732 L618.756,32.273z M534.841,32.218l7.354,0.817l7.119-7.552l-11.405-3.305l-4.211,2.243l0.002,5.99L534.841,32.218z M533.699,32.091l0.715,0.08l-0.715-1.13V32.091z M521.779,30.767l11.587,1.287l-0.002-1.544l-2.794-4.424L521.779,30.767z M615.257,27.813l3.275,4.175l1.397-0.411l0.113-2.864L615.257,27.813z M620.377,28.777l-0.107,2.701l5.649-1.658L620.377,28.777z M598.403,24.642l7.028,6.703l6.711-4.118L598.403,24.642z M513.639,24.394l7.604,6.281l9.147-4.873l-4.483-7.097l-2.201-0.374 L513.639,24.394z M530.866,25.927l2.498,3.954l-0.003-5.283L530.866,25.927z M614.944,27.415l5.112,0.961l0.227-5.75l-6.14,3.767 L614.944,27.415z M613.058,27.06l1.386,0.26l-0.588-0.75L613.058,27.06z M598.511,24.325l14.055,2.643l1.081-0.663l-4.722-6.019 l11.287,1.822l-4.58-13.083l-7.034,11.72L598.511,24.325z M609.72,20.754l4.215,5.374l6.055-3.715L609.72,20.754z M526.388,18.838 l4.301,6.806l2.673-1.424v-3.361L526.388,18.838z M538.334,21.951l11.181,3.24l3.607-11.114L538.334,21.951z M510.193,16.032 l3.238,8.094l9.768-5.881L510.193,16.032z M533.696,20.957l0.001,3.085l3.752-1.998L533.696,20.957z M533.696,20.607l4.177,1.211 l15.405-8.205l-19.585-1.211L533.696,20.607z M524.146,18.066l1.892,0.322l7.323,2.122l-0.004-7.989L524.146,18.066z M534.074,12.088l18.405,1.138l-7.335-7.805L534.074,12.088z"/>
    </g>
    <g clip-path="url(#SVGID_2_)">
      <path fill="#008696" d="M605.024,174.604c0,2.436-1.974,4.412-4.408,4.412c-2.437,0-4.411-1.977-4.411-4.412 c0-2.435,1.975-4.408,4.411-4.408C603.051,170.196,605.024,172.17,605.024,174.604"/>
    </g>
    <g clip-path="url(#SVGID_2_)">
      <path fill="#D83127" d="M577.79,100.776c0,2.436-1.974,4.411-4.409,4.411s-4.41-1.975-4.41-4.411c0-2.435,1.975-4.409,4.41-4.409 S577.79,98.341,577.79,100.776"/>
    </g>
    <g clip-path="url(#SVGID_2_)">
      <path fill="#008696" d="M640.616,80.837c0,2.436-1.976,4.411-4.41,4.411c-2.437,0-4.41-1.975-4.41-4.411 c0-2.435,1.974-4.41,4.41-4.41C638.641,76.427,640.616,78.402,640.616,80.837"/>
    </g>
    <g clip-path="url(#SVGID_2_)">
      <path fill="#008696" d="M599.465,37.502c0,2.436-1.976,4.411-4.41,4.411c-2.437,0-4.411-1.975-4.411-4.411 c0-2.435,1.975-4.409,4.411-4.409C597.489,33.093,599.465,35.067,599.465,37.502"/>
    </g>
    <g clip-path="url(#SVGID_2_)">
      <path fill="#008696" d="M694.383,102.308c0,2.436-1.976,4.41-4.411,4.41c-2.435,0-4.41-1.974-4.41-4.41 c0-2.436,1.976-4.409,4.41-4.409C692.407,97.898,694.383,99.872,694.383,102.308"/>
    </g>
    <g clip-path="url(#SVGID_2_)">
      <path fill="#D83127" d="M694.383,140.182c0,2.436-1.976,4.41-4.411,4.41c-2.435,0-4.41-1.975-4.41-4.41 c0-2.435,1.976-4.41,4.41-4.41C692.407,135.771,694.383,137.747,694.383,140.182"/>
    </g>
    <g clip-path="url(#SVGID_2_)">
      <path fill="#008696" d="M694.383,174.604c0,2.436-1.976,4.412-4.411,4.412c-2.435,0-4.41-1.977-4.41-4.412 c0-2.435,1.976-4.408,4.41-4.408C692.407,170.196,694.383,172.17,694.383,174.604"/>
    </g>
    <g clip-path="url(#SVGID_2_)">
      <path fill="#008696" d="M624.874,127.036c0,2.437-1.976,4.411-4.411,4.411s-4.409-1.974-4.409-4.411 c0-2.435,1.974-4.409,4.409-4.409S624.874,124.602,624.874,127.036"/>
    </g>
    <g clip-path="url(#SVGID_2_)">
      <path fill="#008696" d="M648.857,193.588c0,2.435-1.976,4.412-4.41,4.412c-2.436,0-4.41-1.978-4.41-4.412s1.975-4.409,4.41-4.409 C646.882,189.179,648.857,191.153,648.857,193.588"/>
    </g>
    <g clip-path="url(#SVGID_2_)">
      <path fill="#D83127" d="M624.435,208.612c0,2.436-1.974,4.41-4.409,4.41c-2.437,0-4.41-1.975-4.41-4.41 c0-2.435,1.974-4.409,4.41-4.409C622.461,204.203,624.435,206.178,624.435,208.612"/>
    </g>
    <g clip-path="url(#SVGID_2_)">
      <path fill="#008696" d="M633.087,236.532c0,2.437-1.975,4.41-4.41,4.41c-2.435,0-4.409-1.974-4.409-4.41 c0-2.434,1.975-4.409,4.409-4.409C631.112,232.123,633.087,234.099,633.087,236.532"/>
    </g>
    <g clip-path="url(#SVGID_2_)">
      <path fill="#D83127" d="M618.713,270.427c0,2.436-1.975,4.411-4.41,4.411s-4.41-1.976-4.41-4.411c0-2.437,1.975-4.41,4.41-4.41 S618.713,267.99,618.713,270.427"/>
    </g>
    <g clip-path="url(#SVGID_2_)">
      <path fill="#008696" d="M683.906,199.332c0,2.436-1.975,4.409-4.41,4.409c-2.437,0-4.41-1.974-4.41-4.409 c0-2.437,1.974-4.409,4.41-4.409C681.932,194.923,683.906,196.896,683.906,199.332"/>
    </g>
    <g clip-path="url(#SVGID_2_)">
      <path fill="#008696" d="M537.949,54.486c0,2.436-1.976,4.411-4.409,4.411c-2.437,0-4.412-1.975-4.412-4.411 c0-2.435,1.976-4.41,4.412-4.41C535.974,50.076,537.949,52.051,537.949,54.486"/>
    </g>
    <g clip-path="url(#SVGID_2_)">
      <path fill="#008696" d="M475.665,107.148c0,2.436-1.974,4.411-4.408,4.411c-2.436,0-4.411-1.975-4.411-4.411 c0-2.435,1.976-4.41,4.411-4.41C473.691,102.738,475.665,104.713,475.665,107.148"/>
    </g>
    <g clip-path="url(#SVGID_2_)">
      <path fill="#008696" d="M560.869,69.228c0,1.56-1.266,2.823-2.823,2.823c-1.561,0-2.824-1.263-2.824-2.823 c0-1.558,1.264-2.822,2.824-2.822C559.604,66.406,560.869,67.67,560.869,69.228"/>
    </g>
    <g clip-path="url(#SVGID_2_)">
      <path fill="#D83127" d="M530.885,77.415c0,1.56-1.263,2.823-2.821,2.823c-1.56,0-2.823-1.263-2.823-2.823 c0-1.559,1.264-2.822,2.823-2.822C529.622,74.593,530.885,75.856,530.885,77.415"/>
    </g>
    <g clip-path="url(#SVGID_2_)">
      <path fill="#008696" d="M555.716,13.42c0,1.559-1.264,2.822-2.821,2.822c-1.561,0-2.824-1.264-2.824-2.822 s1.264-2.822,2.824-2.822C554.452,10.598,555.716,11.862,555.716,13.42"/>
    </g>
    <g clip-path="url(#SVGID_2_)">
      <path fill="#008696" d="M536.192,13.42c0,1.559-1.265,2.822-2.823,2.822c-1.561,0-2.824-1.264-2.824-2.822 s1.264-2.822,2.824-2.822C534.928,10.598,536.192,11.862,536.192,13.42"/>
    </g>
    <g clip-path="url(#SVGID_2_)">
      <path fill="#008696" d="M512.75,15.502c0,1.56-1.264,2.824-2.822,2.824c-1.56,0-2.824-1.264-2.824-2.824 c0-1.559,1.265-2.822,2.824-2.822C511.486,12.68,512.75,13.943,512.75,15.502"/>
    </g>
    <g clip-path="url(#SVGID_2_)">
      <path fill="#008696" d="M512.75,39.572c0,1.56-1.264,2.824-2.822,2.824c-1.56,0-2.824-1.264-2.824-2.824 c0-1.559,1.265-2.821,2.824-2.821C511.486,36.751,512.75,38.014,512.75,39.572"/>
    </g>
    <g clip-path="url(#SVGID_2_)">
      <path fill="#008696" d="M542.864,104.451c0,1.558-1.264,2.822-2.821,2.822c-1.561,0-2.824-1.264-2.824-2.822 c0-1.559,1.264-2.823,2.824-2.823C541.601,101.628,542.864,102.892,542.864,104.451"/>
    </g>
    <g clip-path="url(#SVGID_2_)">
      <path fill="#D83127" d="M494.27,32.926c0,1.559-1.265,2.823-2.822,2.823c-1.561,0-2.824-1.264-2.824-2.823 s1.264-2.822,2.824-2.822C493.005,30.104,494.27,31.367,494.27,32.926"/>
    </g>
    <g clip-path="url(#SVGID_2_)">
      <path fill="#008696" d="M474.078,50.037c0,1.559-1.263,2.823-2.821,2.823c-1.561,0-2.824-1.264-2.824-2.823 c0-1.559,1.264-2.822,2.824-2.822C472.815,47.215,474.078,48.479,474.078,50.037"/>
    </g>
    <g clip-path="url(#SVGID_2_)">
      <path fill="#008696" d="M479.048,74.592c0,1.559-1.264,2.823-2.822,2.823c-1.56,0-2.823-1.264-2.823-2.823 c0-1.558,1.264-2.822,2.823-2.822C477.784,71.77,479.048,73.034,479.048,74.592"/>
    </g>
    <g clip-path="url(#SVGID_2_)">
      <path fill="#008696" d="M458.451,93.105c0,1.56-1.262,2.823-2.82,2.823c-1.561,0-2.824-1.263-2.824-2.823 c0-1.558,1.264-2.822,2.824-2.822C457.189,90.283,458.451,91.547,458.451,93.105"/>
    </g>
    <g clip-path="url(#SVGID_2_)">
      <path fill="#008696" d="M451.834,117.455c0,1.558-1.264,2.823-2.821,2.823c-1.561,0-2.825-1.265-2.825-2.823 c0-1.559,1.265-2.822,2.825-2.822C450.57,114.632,451.834,115.896,451.834,117.455"/>
    </g>
    <g clip-path="url(#SVGID_2_)">
      <path fill="#D83127" d="M466.55,130.801c0,1.56-1.264,2.823-2.821,2.823c-1.562,0-2.824-1.263-2.824-2.823 c0-1.559,1.263-2.822,2.824-2.822C465.286,127.979,466.55,129.242,466.55,130.801"/>
    </g>
    <g clip-path="url(#SVGID_2_)">
      <path fill="#008696" d="M480.238,136.662c0,1.56-1.263,2.823-2.822,2.823s-2.822-1.263-2.822-2.823 c0-1.558,1.263-2.822,2.822-2.822S480.238,135.104,480.238,136.662"/>
    </g>
    <g clip-path="url(#SVGID_2_)">
      <path fill="#008696" d="M501.581,130.801c0,1.56-1.262,2.823-2.82,2.823c-1.562,0-2.824-1.263-2.824-2.823 c0-1.559,1.263-2.822,2.824-2.822C500.319,127.979,501.581,129.242,501.581,130.801"/>
    </g>
    <g clip-path="url(#SVGID_2_)">
      <path fill="#D83127" d="M498.833,104.326c0,1.558-1.265,2.822-2.823,2.822c-1.56,0-2.822-1.264-2.822-2.822 c0-1.559,1.263-2.822,2.822-2.822C497.568,101.503,498.833,102.767,498.833,104.326"/>
    </g>
    <g clip-path="url(#SVGID_2_)">
      <path fill="#008696" d="M523.314,140.182c0,1.559-1.264,2.823-2.823,2.823s-2.823-1.264-2.823-2.823 c0-1.558,1.264-2.822,2.823-2.822S523.314,138.624,523.314,140.182"/>
    </g>
    <g clip-path="url(#SVGID_2_)">
      <path fill="#008696" d="M518.652,124.25c0,1.56-1.262,2.823-2.821,2.823c-1.561,0-2.823-1.264-2.823-2.823 c0-1.559,1.263-2.822,2.823-2.822C517.391,121.429,518.652,122.692,518.652,124.25"/>
    </g>
    <g clip-path="url(#SVGID_2_)">
      <path fill="#008696" d="M481.532,59.665c0,1.56-1.265,2.823-2.822,2.823c-1.561,0-2.824-1.264-2.824-2.823 c0-1.559,1.264-2.822,2.824-2.822C480.268,56.842,481.532,58.106,481.532,59.665"/>
    </g>
    <g clip-path="url(#SVGID_2_)">
      <path fill="#008696" d="M511.709,66.934c0,1.56-1.264,2.824-2.822,2.824c-1.561,0-2.825-1.264-2.825-2.824 c0-1.559,1.265-2.822,2.825-2.822C510.445,64.111,511.709,65.375,511.709,66.934"/>
    </g>
    <g clip-path="url(#SVGID_2_)">
      <path fill="#008696" d="M493.926,74.335c0,1.558-1.264,2.822-2.822,2.822s-2.822-1.264-2.822-2.822 c0-1.559,1.264-2.822,2.822-2.822S493.926,72.776,493.926,74.335"/>
    </g>
    <g clip-path="url(#SVGID_2_)">
      <path fill="#008696" d="M528.062,114.631c0,1.559-1.264,2.824-2.82,2.824c-1.562,0-2.825-1.265-2.825-2.824 c0-1.559,1.264-2.823,2.825-2.823C526.799,111.809,528.062,113.073,528.062,114.631"/>
    </g>
    <g clip-path="url(#SVGID_2_)">
      <path fill="#008696" d="M561.003,33.611c0,1.559-1.265,2.823-2.821,2.823c-1.561,0-2.825-1.264-2.825-2.823 c0-1.558,1.265-2.822,2.825-2.822C559.738,30.789,561.003,32.053,561.003,33.611"/>
    </g>
    <g clip-path="url(#SVGID_2_)">
      <path fill="#D83127" d="M536.361,42.395c0,1.56-1.264,2.823-2.821,2.823c-1.562,0-2.825-1.263-2.825-2.823 c0-1.558,1.264-2.822,2.825-2.822C535.098,39.573,536.361,40.837,536.361,42.395"/>
    </g>
    <g clip-path="url(#SVGID_2_)">
      <path fill="#008696" d="M585.984,25.055c0,1.56-1.264,2.823-2.821,2.823c-1.562,0-2.825-1.263-2.825-2.823 c0-1.558,1.264-2.821,2.825-2.821C584.721,22.234,585.984,23.498,585.984,25.055"/>
    </g>
    <g clip-path="url(#SVGID_2_)">
      <path fill="#008696" d="M600.699,25.055c0,1.56-1.264,2.823-2.822,2.823c-1.56,0-2.823-1.263-2.823-2.823 c0-1.558,1.264-2.821,2.823-2.821C599.436,22.234,600.699,23.498,600.699,25.055"/>
    </g>
    <g clip-path="url(#SVGID_2_)">
      <path fill="#D83127" d="M618.496,8.63c0,1.559-1.263,2.823-2.823,2.823c-1.56,0-2.823-1.264-2.823-2.823s1.264-2.822,2.823-2.822 C617.233,5.808,618.496,7.071,618.496,8.63"/>
    </g>
    <g clip-path="url(#SVGID_2_)">
      <path fill="#008696" d="M631.158,29.505c0,1.558-1.266,2.823-2.822,2.823c-1.561,0-2.824-1.265-2.824-2.823 c0-1.56,1.264-2.823,2.824-2.823C629.893,26.683,631.158,27.946,631.158,29.505"/>
    </g>
    <g clip-path="url(#SVGID_2_)">
      <path fill="#008696" d="M643.504,43.394c0,1.559-1.264,2.823-2.821,2.823c-1.561,0-2.825-1.265-2.825-2.823 s1.265-2.822,2.825-2.822C642.24,40.572,643.504,41.835,643.504,43.394"/>
    </g>
    <g clip-path="url(#SVGID_2_)">
      <path fill="#D83127" d="M707.473,64.069c0,1.56-1.264,2.824-2.821,2.824c-1.562,0-2.824-1.264-2.824-2.824 c0-1.559,1.263-2.822,2.824-2.822C706.209,61.247,707.473,62.51,707.473,64.069"/>
    </g>
    <g clip-path="url(#SVGID_2_)">
      <path fill="#008696" d="M721.382,72.729c0,1.56-1.264,2.823-2.823,2.823c-1.559,0-2.823-1.263-2.823-2.823 c0-1.559,1.265-2.822,2.823-2.822C720.118,69.907,721.382,71.17,721.382,72.729"/>
    </g>
    <g clip-path="url(#SVGID_2_)">
      <path fill="#008696" d="M732.812,128.374c0,1.56-1.263,2.823-2.822,2.823s-2.823-1.263-2.823-2.823 c0-1.557,1.264-2.821,2.823-2.821S732.812,126.817,732.812,128.374"/>
    </g>
    <g clip-path="url(#SVGID_2_)">
      <path fill="#008696" d="M709.076,123.815c0,1.56-1.263,2.824-2.821,2.824c-1.56,0-2.823-1.264-2.823-2.824 c0-1.558,1.264-2.822,2.823-2.822C707.813,120.993,709.076,122.257,709.076,123.815"/>
    </g>
    <g clip-path="url(#SVGID_2_)">
      <path fill="#008696" d="M714.156,90.282c0,1.56-1.265,2.823-2.821,2.823c-1.562,0-2.824-1.264-2.824-2.823 c0-1.557,1.263-2.821,2.824-2.821C712.892,87.46,714.156,88.725,714.156,90.282"/>
    </g>
    <g clip-path="url(#SVGID_2_)">
      <path fill="#008696" d="M751.483,98.679c0,1.56-1.263,2.824-2.82,2.824c-1.562,0-2.825-1.264-2.825-2.824 c0-1.558,1.263-2.822,2.825-2.822C750.221,95.857,751.483,97.121,751.483,98.679"/>
    </g>
    <g clip-path="url(#SVGID_2_)">
      <path fill="#D83127" d="M729.989,100.776c0,1.56-1.265,2.824-2.821,2.824c-1.562,0-2.825-1.265-2.825-2.824 c0-1.558,1.263-2.822,2.825-2.822C728.725,97.954,729.989,99.218,729.989,100.776"/>
    </g>
    <g clip-path="url(#SVGID_2_)">
      <path fill="#D83127" d="M661.343,90.282c0,1.56-1.265,2.823-2.823,2.823c-1.56,0-2.823-1.264-2.823-2.823 c0-1.557,1.264-2.821,2.823-2.821C660.078,87.46,661.343,88.725,661.343,90.282"/>
    </g>
    <g clip-path="url(#SVGID_2_)">
      <path fill="#008696" d="M724.949,140.811c0,1.559-1.264,2.823-2.82,2.823c-1.562,0-2.826-1.264-2.826-2.823 c0-1.558,1.265-2.822,2.826-2.822C723.686,137.989,724.949,139.253,724.949,140.811"/>
    </g>
    <g clip-path="url(#SVGID_2_)">
      <path fill="#D83127" d="M716.98,180.764c0,1.561-1.264,2.822-2.823,2.822s-2.822-1.262-2.822-2.822 c0-1.558,1.263-2.821,2.822-2.821S716.98,179.206,716.98,180.764"/>
    </g>
    <g clip-path="url(#SVGID_2_)">
      <path fill="#008696" d="M716.98,153.102c0,1.56-1.264,2.823-2.823,2.823s-2.822-1.264-2.822-2.823 c0-1.559,1.263-2.823,2.822-2.823S716.98,151.542,716.98,153.102"/>
    </g>
    <g clip-path="url(#SVGID_2_)">
      <path fill="#008696" d="M664.693,50.037c0,1.559-1.263,2.823-2.82,2.823c-1.561,0-2.825-1.264-2.825-2.823 c0-1.559,1.265-2.822,2.825-2.822C663.431,47.215,664.693,48.479,664.693,50.037"/>
    </g>
    <g clip-path="url(#SVGID_2_)">
      <path fill="#008696" d="M688.652,60.988c0,1.559-1.265,2.824-2.825,2.824c-1.558,0-2.821-1.265-2.821-2.824 c0-1.558,1.264-2.821,2.821-2.821C687.388,58.167,688.652,59.431,688.652,60.988"/>
    </g>
    <g clip-path="url(#SVGID_2_)">
      <path fill="#D83127" d="M673.164,63.811c0,1.56-1.263,2.823-2.821,2.823c-1.561,0-2.824-1.263-2.824-2.823 c0-1.558,1.264-2.821,2.824-2.821C671.901,60.99,673.164,62.253,673.164,63.811"/>
    </g>
    <g clip-path="url(#SVGID_2_)">
      <path fill="#008696" d="M633.814,64.276c0,1.56-1.262,2.823-2.822,2.823c-1.56,0-2.822-1.264-2.822-2.823 c0-1.558,1.263-2.822,2.822-2.822C632.553,61.454,633.814,62.718,633.814,64.276"/>
    </g>
    <g clip-path="url(#SVGID_2_)">
      <path fill="#008696" d="M648.045,139.698c0,1.56-1.264,2.823-2.823,2.823c-1.561,0-2.823-1.263-2.823-2.823 c0-1.558,1.263-2.822,2.823-2.822C646.781,136.876,648.045,138.141,648.045,139.698"/>
    </g>
    <g clip-path="url(#SVGID_2_)">
      <path fill="#008696" d="M645.962,168.088c0,1.56-1.264,2.823-2.821,2.823c-1.561,0-2.825-1.264-2.825-2.823 s1.265-2.821,2.825-2.821C644.698,165.267,645.962,166.528,645.962,168.088"/>
    </g>
    <g clip-path="url(#SVGID_2_)">
      <path fill="#D83127" d="M625.339,156.965c0,1.561-1.263,2.823-2.821,2.823c-1.561,0-2.824-1.263-2.824-2.823 c0-1.559,1.264-2.821,2.824-2.821C624.076,154.144,625.339,155.406,625.339,156.965"/>
    </g>
    <g clip-path="url(#SVGID_2_)">
      <path fill="#008696" d="M577.771,153.843c0,1.56-1.263,2.823-2.822,2.823c-1.561,0-2.822-1.264-2.822-2.823 c0-1.559,1.262-2.822,2.822-2.822C576.509,151.021,577.771,152.284,577.771,153.843"/>
    </g>
    <g clip-path="url(#SVGID_2_)">
      <path fill="#008696" d="M675.306,179.543c0,1.56-1.265,2.824-2.823,2.824c-1.56,0-2.824-1.265-2.824-2.824 c0-1.559,1.265-2.823,2.824-2.823C674.041,176.72,675.306,177.984,675.306,179.543"/>
    </g>
    <g clip-path="url(#SVGID_2_)">
      <path fill="#D83127" d="M677.387,221.548c0,1.561-1.263,2.823-2.821,2.823c-1.561,0-2.824-1.263-2.824-2.823 c0-1.557,1.264-2.822,2.824-2.822C676.124,218.726,677.387,219.991,677.387,221.548"/>
    </g>
    <g clip-path="url(#SVGID_2_)">
      <path fill="#008696" d="M693.44,220.508c0,1.559-1.264,2.822-2.822,2.822c-1.561,0-2.824-1.264-2.824-2.822 s1.264-2.823,2.824-2.823C692.177,217.685,693.44,218.949,693.44,220.508"/>
    </g>
    <g clip-path="url(#SVGID_2_)">
      <path fill="#008696" d="M701.865,213.124c0,1.561-1.264,2.823-2.823,2.823s-2.823-1.263-2.823-2.823 c0-1.558,1.264-2.82,2.823-2.82S701.865,211.566,701.865,213.124"/>
    </g>
    <g clip-path="url(#SVGID_2_)">
      <path fill="#008696" d="M709.078,195.97c0,1.561-1.264,2.825-2.82,2.825c-1.562,0-2.826-1.265-2.826-2.825 c0-1.557,1.264-2.821,2.826-2.821C707.814,193.148,709.078,194.413,709.078,195.97"/>
    </g>
    <g clip-path="url(#SVGID_2_)">
      <path fill="#008696" d="M661.343,208.612c0,1.56-1.265,2.824-2.823,2.824c-1.56,0-2.823-1.265-2.823-2.824 c0-1.558,1.264-2.822,2.823-2.822C660.078,205.79,661.343,207.055,661.343,208.612"/>
    </g>
    <g clip-path="url(#SVGID_2_)">
      <path fill="#008696" d="M649.979,221.548c0,1.561-1.262,2.823-2.821,2.823s-2.823-1.263-2.823-2.823 c0-1.557,1.264-2.822,2.823-2.822S649.979,219.991,649.979,221.548"/>
    </g>
    <g clip-path="url(#SVGID_2_)">
      <path fill="#008696" d="M652.062,236.532c0,1.56-1.266,2.823-2.821,2.823c-1.561,0-2.824-1.264-2.824-2.823 c0-1.559,1.264-2.821,2.824-2.821C650.796,233.711,652.062,234.974,652.062,236.532"/>
    </g>
    <g clip-path="url(#SVGID_2_)">
      <path fill="#008696" d="M601.145,285.37c0,1.559-1.265,2.821-2.823,2.821c-1.56,0-2.823-1.263-2.823-2.821 c0-1.56,1.264-2.823,2.823-2.823C599.88,282.547,601.145,283.811,601.145,285.37"/>
    </g>
    <g clip-path="url(#SVGID_2_)">
      <path fill="#008696" d="M634.31,277.924c0,1.56-1.263,2.823-2.821,2.823c-1.561,0-2.824-1.264-2.824-2.823 c0-1.558,1.264-2.82,2.824-2.82C633.047,275.104,634.31,276.366,634.31,277.924"/>
    </g>
    <g clip-path="url(#SVGID_2_)">
      <path fill="#008696" d="M587.01,275.101c0,1.56-1.264,2.825-2.821,2.825c-1.561,0-2.824-1.266-2.824-2.825 c0-1.557,1.264-2.821,2.824-2.821C585.746,272.279,587.01,273.544,587.01,275.101"/>
    </g>
    <g clip-path="url(#SVGID_2_)">
      <path fill="#008696" d="M599.062,262.082c0,1.559-1.266,2.823-2.824,2.823c-1.56,0-2.822-1.265-2.822-2.823 c0-1.558,1.263-2.822,2.822-2.822C597.797,259.26,599.062,260.524,599.062,262.082"/>
    </g>
    <g clip-path="url(#SVGID_2_)">
      <path fill="#008696" d="M661.593,227.858c0,1.559-1.263,2.822-2.821,2.822c-1.561,0-2.824-1.264-2.824-2.822 c0-1.56,1.264-2.822,2.824-2.822C660.33,225.036,661.593,226.299,661.593,227.858"/>
    </g>
    <g clip-path="url(#SVGID_2_)">
      <path fill="#008696" d="M582.221,134.907c0,1.56-1.265,2.823-2.822,2.823c-1.561,0-2.823-1.264-2.823-2.823 c0-1.559,1.263-2.822,2.823-2.822C580.956,132.085,582.221,133.349,582.221,134.907"/>
    </g>
    <g clip-path="url(#SVGID_2_)">
      <path fill="#D83127" d="M538.417,145.858c0,1.56-1.265,2.824-2.823,2.824c-1.561,0-2.824-1.264-2.824-2.824 c0-1.557,1.264-2.821,2.824-2.821C537.152,143.037,538.417,144.301,538.417,145.858"/>
    </g>
    <g clip-path="url(#SVGID_2_)">
      <path fill="#008696" d="M558.92,170.911c0,1.56-1.264,2.823-2.822,2.823c-1.56,0-2.823-1.264-2.823-2.823 c0-1.559,1.264-2.822,2.823-2.822C557.656,168.089,558.92,169.353,558.92,170.911"/>
    </g>
    <g clip-path="url(#SVGID_2_)">
      <path fill="#D83127" d="M579.826,181.636c0,1.56-1.265,2.824-2.823,2.824c-1.56,0-2.823-1.265-2.823-2.824 c0-1.559,1.264-2.822,2.823-2.822C578.562,178.813,579.826,180.077,579.826,181.636"/>
    </g>
    <g clip-path="url(#SVGID_2_)">
      <path fill="#008696" d="M556.838,151.319c0,1.56-1.265,2.823-2.823,2.823c-1.56,0-2.823-1.264-2.823-2.823 c0-1.558,1.264-2.821,2.823-2.821C555.573,148.498,556.838,149.762,556.838,151.319"/>
    </g>
    <g clip-path="url(#SVGID_2_)">
      <path fill="#008696" d="M550.451,129.415c0,1.56-1.265,2.824-2.822,2.824c-1.56,0-2.823-1.264-2.823-2.824 c0-1.558,1.264-2.822,2.823-2.822C549.187,126.593,550.451,127.856,550.451,129.415"/>
    </g>
    <g clip-path="url(#SVGID_2_)">
      <path fill="#008696" d="M591.247,60.39c0,1.56-1.264,2.823-2.822,2.823c-1.561,0-2.822-1.264-2.822-2.823 c0-1.558,1.262-2.821,2.822-2.821C589.983,57.568,591.247,58.832,591.247,60.39"/>
    </g>
    <g clip-path="url(#SVGID_2_)">
      <path fill="#008696" d="M615.414,53.46c0,1.559-1.263,2.822-2.821,2.822c-1.56,0-2.822-1.263-2.822-2.822s1.263-2.822,2.822-2.822 C614.151,50.638,615.414,51.901,615.414,53.46"/>
    </g>
    <g clip-path="url(#SVGID_2_)">
      <path fill="#008696" d="M562.357,47.214c0,1.56-1.264,2.823-2.822,2.823c-1.561,0-2.824-1.263-2.824-2.823 c0-1.559,1.264-2.822,2.824-2.822C561.094,44.392,562.357,45.655,562.357,47.214"/>
    </g>
    <g clip-path="url(#SVGID_2_)">
      <path fill="#D83127" d="M583.161,47.214c0,1.56-1.264,2.823-2.821,2.823c-1.561,0-2.825-1.263-2.825-2.823 c0-1.559,1.265-2.822,2.825-2.822C581.897,44.392,583.161,45.655,583.161,47.214"/>
    </g>
    <g clip-path="url(#SVGID_2_)">
      <path fill="#008696" d="M574.689,75.105c0,1.56-1.263,2.823-2.82,2.823c-1.562,0-2.824-1.263-2.824-2.823 c0-1.558,1.263-2.822,2.824-2.822C573.427,72.283,574.689,73.547,574.689,75.105"/>
    </g>
    <g clip-path="url(#SVGID_2_)">
      <path fill="#008696" d="M605.538,92.064c0,1.559-1.262,2.823-2.821,2.823s-2.823-1.264-2.823-2.823s1.264-2.823,2.823-2.823 S605.538,90.505,605.538,92.064"/>
    </g>
    <g clip-path="url(#SVGID_2_)">
      <path fill="#008696" d="M645.188,114.631c0,1.559-1.262,2.824-2.822,2.824c-1.559,0-2.822-1.265-2.822-2.824 c0-1.559,1.264-2.823,2.822-2.823C643.926,111.809,645.188,113.073,645.188,114.631"/>
    </g>
    <g clip-path="url(#SVGID_2_)">
      <path fill="#008696" d="M577.514,199.332c0,1.559-1.264,2.822-2.822,2.822c-1.56,0-2.823-1.264-2.823-2.822 c0-1.56,1.264-2.823,2.823-2.823C576.25,196.509,577.514,197.772,577.514,199.332"/>
    </g>
    <g clip-path="url(#SVGID_2_)">
      <path fill="#008696" d="M579.596,214.861c0,1.561-1.264,2.823-2.821,2.823c-1.562,0-2.824-1.263-2.824-2.823 c0-1.558,1.263-2.819,2.824-2.819C578.332,212.042,579.596,213.304,579.596,214.861"/>
    </g>
    <g clip-path="url(#SVGID_2_)">
      <path fill="#D83127" d="M594.069,215.903c0,1.56-1.264,2.822-2.822,2.822c-1.56,0-2.824-1.263-2.824-2.822 s1.265-2.822,2.824-2.822C592.806,213.081,594.069,214.344,594.069,215.903"/>
    </g>
    <g clip-path="url(#SVGID_2_)">
      <path fill="#008696" d="M605.481,230.438c0,1.559-1.265,2.822-2.823,2.822c-1.56,0-2.823-1.264-2.823-2.822 c0-1.56,1.264-2.823,2.823-2.823C604.217,227.615,605.481,228.879,605.481,230.438"/>
    </g>
    <g clip-path="url(#SVGID_2_)">
      <path fill="#008696" d="M609.646,251.175c0,1.559-1.265,2.823-2.822,2.823c-1.561,0-2.824-1.265-2.824-2.823 c0-1.558,1.264-2.821,2.824-2.821C608.381,248.354,609.646,249.617,609.646,251.175"/>
    </g>
    <g clip-path="url(#SVGID_2_)">
      <path fill="#008696" d="M642.859,263.123c0,1.561-1.264,2.823-2.822,2.823c-1.561,0-2.823-1.263-2.823-2.823 c0-1.558,1.263-2.822,2.823-2.822C641.596,260.301,642.859,261.565,642.859,263.123"/>
    </g>
  </g>
  <rect x="807.878" y="129.578" width="1.393" height="1.393" style="fill: rgb(216, 216, 216);"/>
</svg>