<?xml version="1.0" encoding="UTF-8" standalone="no"?>
<!-- Created with Inkscape (http://www.inkscape.org/) -->

<svg xmlns:dc="http://purl.org/dc/elements/1.1/" xmlns:cc="http://creativecommons.org/ns#" xmlns:rdf="http://www.w3.org/1999/02/22-rdf-syntax-ns#" xmlns:svg="http://www.w3.org/2000/svg" xmlns="http://www.w3.org/2000/svg" xmlns:sodipodi="http://sodipodi.sourceforge.net/DTD/sodipodi-0.dtd" xmlns:inkscape="http://www.inkscape.org/namespaces/inkscape" width="1001" height="194.5451" id="svg2" version="1.1" inkscape:version="0.48.5 r10040" sodipodi:docname="Facebook_2015.svg">
  <defs id="defs4" />
  <sodipodi:namedview id="base" pagecolor="#ffffff" bordercolor="#666666" borderopacity="1.0" inkscape:pageopacity="0.0" inkscape:pageshadow="2" inkscape:zoom="0.57490236" inkscape:cx="919.03809" inkscape:cy="111.30234" inkscape:document-units="px" inkscape:current-layer="layer1" showgrid="true" fit-margin-left="0.5" fit-margin-bottom="0.5" fit-margin-top="0.5" fit-margin-right="0.5" inkscape:window-width="1366" inkscape:window-height="706" inkscape:window-x="-8" inkscape:window-y="-8" inkscape:window-maximized="1">
    <inkscape:grid type="xygrid" id="grid2996" empspacing="5" visible="true" enabled="true" snapvisiblegridlinesonly="true" originx="69.525073px" originy="855.86854px" />
  </sodipodi:namedview>
  <metadata id="metadata7">
    <rdf:RDF>
      <cc:Work rdf:about="">
        <dc:format>image/svg+xml</dc:format>
        <dc:type rdf:resource="http://purl.org/dc/dcmitype/StillImage" />
        <dc:title></dc:title>
      </cc:Work>
    </rdf:RDF>
  </metadata>
  <g inkscape:label="Layer 1" inkscape:groupmode="layer" id="layer1" transform="translate(69.525073,-1713.6856)">
    <g id="g3503">
      <path style="fill:#4867aa;fill-opacity:1;stroke:none" d="m -5.6743522,1904.7472 -37.6827558,0 0,-93.9338 -25.667965,0 0,-30.5831 25.667965,0 0,-21.7619 c 0,-25.7882 11.352547,-44.2828 48.93155,-44.2828 7.948396,0 20.426566,1.6017 20.426566,1.6017 l 0,28.3986 -13.107046,0 c -13.3538181,0 -18.5683142,4.0616 -18.5683142,15.2915 l 0,20.7529 31.1742782,0 -2.775679,30.5831 -28.3985992,0 z" id="path3025" inkscape:connector-curvature="0" sodipodi:nodetypes="ccccccccccscccccc" />
      <path inkscape:connector-curvature="0" style="fill:#4867aa;fill-opacity:1;stroke:none" d="m 80.784363,1777.7867 c -0.547951,0 -1.113804,0.02 -1.672514,0.034 -34.940773,0 -50.926333,26.2821 -50.926333,63.5897 0,46.9984 20.736165,65.8083 51.199396,65.8083 17.428712,0 28.879508,-7.3355 35.839578,-21.0259 l 0,18.5684 35.83958,0 0,-124.517 -35.83958,0 0,19.1485 c -5.68228,-12.32 -17.453724,-21.4608 -34.440127,-21.606 z m 9.113492,29.4226 c 14.675575,0 23.483455,10.2368 23.483455,27.6476 l 0.0341,17.7832 c 0,11.7347 -7.2751,25.4632 -23.517589,25.4632 -24.970604,0 -24.302647,-26.9618 -24.302647,-35.9419 0,-30.2068 13.303301,-34.9521 24.302647,-34.9521 z" id="path3027" />
      <path style="fill:#4867aa;fill-opacity:1;stroke:none" d="m 165.53936,1842.5084 c 0,-15.1311 -0.72454,-64.641 63.78005,-64.641 25.89278,0 36.70447,8.2335 36.70447,8.2335 l -8.6903,26.9526 c 0,0 -10.79773,-5.9455 -24.86747,-5.9455 -18.02155,0 -29.51999,10.4463 -29.51999,28.8272 l 0.0206,13.18 c 0,17.6626 11.09367,29.452 29.53641,29.452 12.81731,0 24.63192,-6.002 24.63192,-6.002 l 8.66826,26.3908 c 0,0 -9.88614,8.2844 -36.30389,8.2844 -61.41768,0 -63.96007,-44.4204 -63.96007,-64.732 z" id="path3029" inkscape:connector-curvature="0" sodipodi:nodetypes="ccccccccccccc" />
      <path id="path3031" d="m 476.16727,1777.8207 c 34.94078,0 51.17823,26.282 51.17823,63.5896 0,46.9984 -20.73616,65.8083 -51.19939,65.8083 -17.42872,0 -30.3131,-7.3354 -37.27317,-21.0258 l 0,18.5683 -35.38902,-0.014 0,-186.7754 37.57353,-3.2768 0,83.0113 c 5.42303,-14.5229 23.24499,-19.8855 35.10982,-19.8855 z m -10.53411,29.3886 c -14.67557,0 -24.57571,10.2368 -24.57571,27.6476 l -0.0341,17.7832 c -0.0225,11.7347 6.856,25.4632 24.60985,25.4632 24.9706,0 24.30264,-26.9618 24.30264,-35.9419 0,-30.2068 -13.3033,-34.9521 -24.30264,-34.9521 z" style="fill:#4867aa;fill-opacity:1;stroke:none" inkscape:connector-curvature="0" sodipodi:nodetypes="csscccccccscsssss" />
      <path inkscape:connector-curvature="0" style="fill:#4867aa;fill-opacity:1;stroke:none" d="m 331.21768,1777.9232 c -39.63015,0 -60.55182,21.6073 -60.55182,60.0057 l 0,7.1337 c 0,49.8367 29.38116,62.6681 64.40884,62.6681 34.04758,0 49.45862,-9.523 49.45862,-9.523 l -7.03139,-25.3609 c 0,0 -18.12777,7.7141 -37.92168,7.7141 -20.51984,0 -29.34553,-5.2309 -31.6071,-24.9511 l 79.56387,0 0,-20.3433 c 0,-41.6517 -23.48105,-57.3433 -56.31934,-57.3433 z m 0.95572,25.3949 c 13.7177,0 22.60632,8.4118 22.11814,27.9207 l -46.25012,0 c 0.80261,-20.5335 10.38834,-27.9207 24.13198,-27.9207 z" id="path3033" />
      <path inkscape:connector-curvature="0" style="fill:#4867aa;fill-opacity:1;stroke:none" d="m 602.26729,1777.7525 c -40.69701,0 -62.12194,22.9337 -62.12194,64.0334 0,56.3895 36.93175,65.4669 62.1902,65.4669 36.97521,0 61.57581,-19.9072 61.57581,-64.9549 0,-46.8876 -27.66135,-64.5454 -61.64407,-64.5454 z m -0.512,29.5591 c 17.89507,0 24.98531,13.3927 24.98531,28.6376 l 0,13.107 c 0,18.469 -9.92216,29.1496 -25.05357,29.1496 -14.1518,0 -24.09785,-9.9915 -24.09785,-29.1496 l 0,-13.107 c 0,-20.4319 11.83513,-28.6376 24.16611,-28.6376 z" id="path3035" />
      <path id="path3037" d="m 738.76488,1777.7525 c -40.69701,0 -62.12194,22.9337 -62.12194,64.0334 0,56.3895 36.93175,65.4669 62.1902,65.4669 36.97521,0 61.57581,-19.9072 61.57581,-64.9549 0,-46.8876 -27.66135,-64.5454 -61.64407,-64.5454 z m -0.512,29.5591 c 17.89508,0 24.98531,13.3927 24.98531,28.6376 l 0,13.107 c 0,18.469 -9.92215,29.1496 -25.05357,29.1496 -14.1518,0 -24.09785,-9.9915 -24.09785,-29.1496 l 0,-13.107 c 0,-20.4319 11.83514,-28.6376 24.16611,-28.6376 z" style="fill:#4867aa;fill-opacity:1;stroke:none" inkscape:connector-curvature="0" />
      <path style="fill:#4867aa;fill-opacity:1;stroke:none" d="m 814.60825,1904.7472 0,-186.7754 37.68276,-3.2768 0,125.1886 37.38589,-59.6533 39.79611,0 -39.00071,61.7834 40.50261,62.7335 -39.90889,0 -38.77501,-60.9137 0,60.9137 z" id="path3039" inkscape:connector-curvature="0" sodipodi:nodetypes="cccccccccccc" />
    </g>
  </g>
</svg>
