<?xml version="1.0" encoding="utf-8"?>
<svg viewBox="34.332 76.155 303.995 98.002" width="303.995" height="98.002" xmlns="http://www.w3.org/2000/svg">
  <path d="M 98.584 128.886 C 98.791 129.593 98.894 130.369 98.894 131.216 C 97.747 131.129 95.897 131.086 93.344 131.086 C 90.617 131.086 88.697 131.129 87.584 131.216 C 87.584 130.223 87.701 129.446 87.934 128.886 C 88.667 128.799 89.204 128.653 89.544 128.446 C 89.877 128.239 90.044 127.933 90.044 127.526 C 90.044 127.086 89.841 126.409 89.434 125.496 L 87.984 122.066 C 83.437 122.066 79.711 122.139 76.804 122.286 L 75.924 124.576 C 75.544 125.543 75.354 126.349 75.354 126.996 C 75.354 127.583 75.531 128.029 75.884 128.336 C 76.231 128.643 76.771 128.826 77.504 128.886 C 77.744 129.593 77.864 130.369 77.864 131.216 C 76.864 131.129 75.367 131.086 73.374 131.086 C 72.521 131.086 71.257 131.129 69.584 131.216 C 69.584 130.309 69.704 129.546 69.944 128.926 C 70.704 128.779 71.297 128.406 71.724 127.806 C 72.151 127.206 72.731 126.026 73.464 124.266 L 82.614 101.296 C 83.227 101.149 83.944 101.076 84.764 101.076 L 95.064 124.396 C 95.624 125.629 96.077 126.546 96.424 127.146 C 96.777 127.746 97.107 128.173 97.414 128.426 C 97.727 128.673 98.117 128.826 98.584 128.886 Z M 77.774 119.826 L 87.014 119.826 L 84.154 113.136 C 83.361 111.376 82.684 109.629 82.124 107.896 C 81.597 109.596 80.997 111.343 80.324 113.136 L 77.774 119.826 Z" transform="matrix(1, 0, 0, 1, 0, 0)" style="fill: rgb(0, 133, 150); white-space: pre;"/>
  <path d="M 113.874 114.786 C 113.827 115.926 113.917 117.273 114.144 118.826 C 113.697 119.013 113.177 119.099 112.584 119.086 C 112.504 118.079 112.25 117.336 111.824 116.856 C 111.404 116.376 110.754 116.136 109.874 116.136 L 108.814 116.136 L 108.814 127.626 C 108.814 128.239 108.867 128.696 108.974 128.996 C 109.074 129.303 109.26 129.519 109.534 129.646 C 109.807 129.773 110.23 129.853 110.804 129.886 C 110.917 130.173 110.974 130.596 110.974 131.156 C 109.967 131.109 108.774 131.086 107.394 131.086 C 105.794 131.086 104.524 131.109 103.584 131.156 C 103.584 130.596 103.64 130.173 103.754 129.886 C 104.327 129.853 104.757 129.773 105.044 129.646 C 105.33 129.519 105.534 129.303 105.654 128.996 C 105.774 128.696 105.834 128.239 105.834 127.626 L 105.834 116.136 L 104.954 116.136 C 104.26 116.136 103.72 116.246 103.334 116.466 C 102.94 116.693 102.647 117.009 102.454 117.416 C 102.26 117.823 102.084 118.379 101.924 119.086 C 101.237 119.086 100.734 119.006 100.414 118.846 C 100.72 117.293 100.874 115.939 100.874 114.786 C 101.88 114.839 104.047 114.866 107.374 114.866 C 110.7 114.866 112.867 114.839 113.874 114.786 ZM 122.345 129.816 C 123.132 129.816 123.765 129.716 124.245 129.516 C 124.725 129.316 125.112 128.999 125.405 128.566 C 125.705 128.133 125.982 127.516 126.235 126.716 C 126.875 126.829 127.355 127.046 127.675 127.366 C 127.355 128.326 127.108 129.583 126.935 131.136 C 125.522 131.103 123.825 131.086 121.845 131.086 C 118.658 131.086 116.475 131.109 115.295 131.156 C 115.295 130.563 115.342 130.139 115.435 129.886 C 115.882 129.853 116.222 129.773 116.455 129.646 C 116.688 129.519 116.852 129.283 116.945 128.936 C 117.045 128.596 117.095 128.096 117.095 127.436 L 117.095 118.296 C 117.095 117.703 117.045 117.253 116.945 116.946 C 116.852 116.646 116.688 116.433 116.455 116.306 C 116.222 116.173 115.882 116.093 115.435 116.066 C 115.355 115.773 115.315 115.346 115.315 114.786 C 116.388 114.839 117.468 114.866 118.555 114.866 C 119.768 114.866 120.855 114.839 121.815 114.786 C 121.815 115.366 121.768 115.793 121.675 116.066 C 121.228 116.093 120.892 116.173 120.665 116.306 C 120.445 116.433 120.285 116.653 120.185 116.966 C 120.092 117.273 120.045 117.733 120.045 118.346 L 120.045 127.416 C 120.045 128.069 120.102 128.566 120.215 128.906 C 120.322 129.239 120.525 129.473 120.825 129.606 C 121.118 129.746 121.555 129.816 122.135 129.816 L 122.345 129.816 ZM 144.425 129.886 C 144.538 130.273 144.595 130.696 144.595 131.156 C 143.968 131.109 142.958 131.086 141.565 131.086 C 140.078 131.086 139.031 131.109 138.425 131.156 C 138.425 130.616 138.488 130.193 138.615 129.886 C 139.015 129.839 139.308 129.759 139.495 129.646 C 139.675 129.533 139.765 129.366 139.765 129.146 C 139.765 128.906 139.655 128.536 139.435 128.036 L 138.645 126.166 C 136.165 126.166 134.131 126.206 132.545 126.286 L 132.065 127.536 C 131.858 128.063 131.755 128.503 131.755 128.856 C 131.755 129.176 131.851 129.419 132.045 129.586 C 132.231 129.753 132.525 129.853 132.925 129.886 C 133.058 130.273 133.125 130.696 133.125 131.156 C 132.578 131.109 131.761 131.086 130.675 131.086 C 130.208 131.086 129.518 131.109 128.605 131.156 C 128.605 130.663 128.671 130.246 128.805 129.906 C 129.218 129.826 129.541 129.623 129.775 129.296 C 130.008 128.969 130.325 128.326 130.725 127.366 L 135.715 114.836 C 136.048 114.756 136.438 114.716 136.885 114.716 L 142.505 127.436 C 142.811 128.109 143.058 128.609 143.245 128.936 C 143.438 129.263 143.618 129.496 143.785 129.636 C 143.958 129.769 144.171 129.853 144.425 129.886 Z M 133.075 124.946 L 138.115 124.946 L 136.555 121.296 C 136.121 120.336 135.751 119.383 135.445 118.436 C 135.158 119.363 134.831 120.316 134.465 121.296 L 133.075 124.946 ZM 151.624 131.306 C 150.644 131.306 149.754 131.179 148.954 130.926 C 148.154 130.679 147.324 130.309 146.464 129.816 C 146.624 128.903 146.704 127.703 146.704 126.216 C 147.164 126.089 147.747 126.026 148.454 126.026 C 148.534 127.386 148.83 128.376 149.344 128.996 C 149.857 129.623 150.687 129.936 151.834 129.936 C 152.794 129.936 153.51 129.723 153.984 129.296 C 154.457 128.876 154.694 128.336 154.694 127.676 C 154.694 127.149 154.547 126.693 154.254 126.306 C 153.954 125.926 153.58 125.603 153.134 125.336 C 152.687 125.076 152.087 124.769 151.334 124.416 C 150.36 123.969 149.567 123.549 148.954 123.156 C 148.347 122.763 147.834 122.239 147.414 121.586 C 146.987 120.926 146.774 120.109 146.774 119.136 C 146.774 117.709 147.237 116.606 148.164 115.826 C 149.09 115.039 150.33 114.646 151.884 114.646 C 152.704 114.646 153.504 114.746 154.284 114.946 C 155.07 115.146 155.694 115.399 156.154 115.706 C 156.154 117.239 156.204 118.333 156.304 118.986 C 155.904 119.199 155.32 119.306 154.554 119.306 C 154.327 118.026 153.997 117.146 153.564 116.666 C 153.13 116.186 152.53 115.946 151.764 115.946 C 150.997 115.946 150.394 116.129 149.954 116.496 C 149.514 116.863 149.294 117.383 149.294 118.056 C 149.294 118.616 149.45 119.096 149.764 119.496 C 150.077 119.896 150.464 120.233 150.924 120.506 C 151.39 120.773 152.024 121.099 152.824 121.486 C 153.797 121.953 154.587 122.376 155.194 122.756 C 155.807 123.143 156.324 123.653 156.744 124.286 C 157.17 124.913 157.384 125.683 157.384 126.596 C 157.384 127.496 157.17 128.296 156.744 128.996 C 156.324 129.703 155.68 130.263 154.814 130.676 C 153.947 131.096 152.884 131.306 151.624 131.306 ZM 170.961 114.816 C 173.621 114.816 175.784 115.363 177.451 116.456 C 179.124 117.556 179.961 119.593 179.961 122.566 C 179.961 124.933 179.437 126.746 178.391 128.006 C 177.344 129.259 176.157 130.086 174.831 130.486 C 173.497 130.886 172.201 131.086 170.941 131.086 C 167.754 131.086 165.571 131.109 164.391 131.156 C 164.391 130.563 164.437 130.139 164.531 129.886 C 164.977 129.853 165.317 129.773 165.551 129.646 C 165.784 129.519 165.947 129.283 166.041 128.936 C 166.141 128.596 166.191 128.096 166.191 127.436 L 166.191 118.296 C 166.191 117.703 166.141 117.253 166.041 116.946 C 165.947 116.646 165.784 116.433 165.551 116.306 C 165.317 116.173 164.977 116.093 164.531 116.066 C 164.451 115.773 164.411 115.346 164.411 114.786 C 165.257 114.839 166.531 114.866 168.231 114.866 C 168.804 114.866 169.234 114.856 169.521 114.836 L 170.961 114.816 Z M 171.231 129.816 C 172.924 129.816 174.277 129.306 175.291 128.286 C 176.311 127.273 176.821 125.493 176.821 122.946 C 176.821 120.533 176.241 118.766 175.081 117.646 C 173.921 116.526 172.461 115.966 170.701 115.966 C 170.094 115.966 169.574 116.046 169.141 116.206 L 169.141 127.416 C 169.141 128.069 169.197 128.566 169.311 128.906 C 169.417 129.239 169.621 129.473 169.921 129.606 C 170.214 129.746 170.651 129.816 171.231 129.816 ZM 196.496 129.886 C 196.609 130.273 196.666 130.696 196.666 131.156 C 196.039 131.109 195.029 131.086 193.636 131.086 C 192.149 131.086 191.102 131.109 190.496 131.156 C 190.496 130.616 190.559 130.193 190.686 129.886 C 191.086 129.839 191.379 129.759 191.566 129.646 C 191.746 129.533 191.836 129.366 191.836 129.146 C 191.836 128.906 191.726 128.536 191.506 128.036 L 190.716 126.166 C 188.236 126.166 186.202 126.206 184.616 126.286 L 184.136 127.536 C 183.929 128.063 183.826 128.503 183.826 128.856 C 183.826 129.176 183.922 129.419 184.116 129.586 C 184.302 129.753 184.596 129.853 184.996 129.886 C 185.129 130.273 185.196 130.696 185.196 131.156 C 184.649 131.109 183.832 131.086 182.746 131.086 C 182.279 131.086 181.589 131.109 180.676 131.156 C 180.676 130.663 180.742 130.246 180.876 129.906 C 181.289 129.826 181.612 129.623 181.846 129.296 C 182.079 128.969 182.396 128.326 182.796 127.366 L 187.786 114.836 C 188.119 114.756 188.509 114.716 188.956 114.716 L 194.576 127.436 C 194.882 128.109 195.129 128.609 195.316 128.936 C 195.509 129.263 195.689 129.496 195.856 129.636 C 196.029 129.769 196.242 129.853 196.496 129.886 Z M 185.146 124.946 L 190.186 124.946 L 188.626 121.296 C 188.192 120.336 187.822 119.383 187.516 118.436 C 187.229 119.363 186.902 120.316 186.536 121.296 L 185.146 124.946 ZM 216.294 114.866 C 217.234 114.866 218.017 114.839 218.644 114.786 C 218.644 115.346 218.604 115.773 218.524 116.066 C 218.137 116.079 217.844 116.186 217.644 116.386 C 217.444 116.586 217.3 116.926 217.214 117.406 C 217.127 117.886 217.084 118.573 217.084 119.466 L 217.084 131.086 C 216.73 131.199 216.274 131.256 215.714 131.256 L 206.284 118.796 L 206.284 126.386 C 206.284 127.313 206.33 128.019 206.424 128.506 C 206.524 128.993 206.697 129.339 206.944 129.546 C 207.19 129.759 207.547 129.873 208.014 129.886 C 208.107 130.173 208.154 130.596 208.154 131.156 C 207.434 131.109 206.594 131.086 205.634 131.086 C 204.48 131.086 203.617 131.109 203.044 131.156 C 203.044 130.616 203.084 130.193 203.164 129.886 C 203.63 129.873 203.987 129.759 204.234 129.546 C 204.48 129.339 204.657 128.993 204.764 128.506 C 204.864 128.019 204.914 127.313 204.914 126.386 L 204.914 116.996 L 204.744 116.786 C 204.537 116.526 204.334 116.349 204.134 116.256 C 203.934 116.156 203.61 116.093 203.164 116.066 C 203.084 115.726 203.044 115.299 203.044 114.786 C 203.557 114.839 204.277 114.866 205.204 114.866 C 205.99 114.866 206.63 114.839 207.124 114.786 L 215.694 126.266 L 215.694 119.466 C 215.694 118.559 215.644 117.869 215.544 117.396 C 215.45 116.923 215.28 116.586 215.034 116.386 C 214.787 116.186 214.424 116.079 213.944 116.066 C 213.844 115.613 213.794 115.186 213.794 114.786 C 214.5 114.839 215.334 114.866 216.294 114.866 ZM 228.413 131.306 C 226.813 131.306 225.406 130.946 224.193 130.226 C 222.986 129.506 222.053 128.509 221.393 127.236 C 220.726 125.963 220.393 124.526 220.393 122.926 C 220.393 121.293 220.739 119.853 221.433 118.606 C 222.133 117.359 223.089 116.386 224.303 115.686 C 225.523 114.993 226.893 114.646 228.413 114.646 C 229.959 114.646 231.346 114.989 232.573 115.676 C 233.799 116.363 234.753 117.323 235.433 118.556 C 236.113 119.789 236.453 121.213 236.453 122.826 C 236.453 124.426 236.113 125.873 235.433 127.166 C 234.753 128.453 233.803 129.463 232.583 130.196 C 231.369 130.936 229.979 131.306 228.413 131.306 Z M 228.843 129.936 C 229.756 129.936 230.546 129.656 231.213 129.096 C 231.886 128.536 232.403 127.763 232.763 126.776 C 233.123 125.796 233.303 124.679 233.303 123.426 C 233.303 122.053 233.076 120.799 232.623 119.666 C 232.163 118.526 231.526 117.626 230.713 116.966 C 229.899 116.299 228.979 115.966 227.953 115.966 C 227.106 115.966 226.346 116.226 225.673 116.746 C 224.999 117.266 224.476 118.006 224.103 118.966 C 223.723 119.926 223.533 121.039 223.533 122.306 C 223.533 123.666 223.743 124.926 224.163 126.086 C 224.576 127.246 225.183 128.176 225.983 128.876 C 226.783 129.583 227.736 129.936 228.843 129.936 ZM 251.058 114.786 C 251.011 115.926 251.101 117.273 251.328 118.826 C 250.881 119.013 250.361 119.099 249.768 119.086 C 249.688 118.079 249.434 117.336 249.008 116.856 C 248.588 116.376 247.938 116.136 247.058 116.136 L 245.998 116.136 L 245.998 127.626 C 245.998 128.239 246.051 128.696 246.158 128.996 C 246.258 129.303 246.444 129.519 246.718 129.646 C 246.991 129.773 247.414 129.853 247.988 129.886 C 248.101 130.173 248.158 130.596 248.158 131.156 C 247.151 131.109 245.958 131.086 244.578 131.086 C 242.978 131.086 241.708 131.109 240.768 131.156 C 240.768 130.596 240.824 130.173 240.938 129.886 C 241.511 129.853 241.941 129.773 242.228 129.646 C 242.514 129.519 242.718 129.303 242.838 128.996 C 242.958 128.696 243.018 128.239 243.018 127.626 L 243.018 116.136 L 242.138 116.136 C 241.444 116.136 240.904 116.246 240.518 116.466 C 240.124 116.693 239.831 117.009 239.638 117.416 C 239.444 117.823 239.268 118.379 239.108 119.086 C 238.421 119.086 237.918 119.006 237.598 118.846 C 237.904 117.293 238.058 115.939 238.058 114.786 C 239.064 114.839 241.231 114.866 244.558 114.866 C 247.884 114.866 250.051 114.839 251.058 114.786 ZM 254.249 118.296 C 254.249 117.703 254.203 117.253 254.109 116.946 C 254.009 116.646 253.849 116.433 253.629 116.306 C 253.403 116.173 253.066 116.093 252.619 116.066 C 252.526 115.726 252.479 115.299 252.479 114.786 C 253.339 114.839 254.433 114.866 255.759 114.866 C 256.946 114.866 258.019 114.839 258.979 114.786 C 258.979 115.026 258.973 115.259 258.959 115.486 C 258.939 115.713 258.899 115.906 258.839 116.066 C 258.386 116.093 258.049 116.173 257.829 116.306 C 257.603 116.433 257.443 116.646 257.349 116.946 C 257.249 117.253 257.199 117.703 257.199 118.296 L 257.199 127.626 C 257.199 128.239 257.249 128.696 257.349 128.996 C 257.443 129.303 257.603 129.519 257.829 129.646 C 258.049 129.773 258.386 129.853 258.839 129.886 C 258.933 130.139 258.979 130.563 258.979 131.156 C 258.099 131.109 257.053 131.086 255.839 131.086 C 254.493 131.086 253.373 131.109 252.479 131.156 C 252.479 130.616 252.526 130.193 252.619 129.886 C 253.066 129.853 253.403 129.773 253.629 129.646 C 253.849 129.519 254.009 129.303 254.109 128.996 C 254.203 128.696 254.249 128.239 254.249 127.626 L 254.249 118.296 Z M 256.049 113.496 C 255.509 113.496 255.053 113.433 254.679 113.306 C 255.213 112.293 255.669 111.253 256.049 110.186 C 256.563 110.053 257.053 109.986 257.519 109.986 C 257.946 109.986 258.369 110.043 258.789 110.156 C 257.956 111.116 257.043 112.229 256.049 113.496 ZM 268.794 131.306 C 267.274 131.306 265.92 130.949 264.734 130.236 C 263.554 129.523 262.634 128.526 261.974 127.246 C 261.32 125.966 260.994 124.509 260.994 122.876 C 260.994 121.116 261.37 119.616 262.124 118.376 C 262.877 117.136 263.867 116.206 265.094 115.586 C 266.327 114.959 267.657 114.646 269.084 114.646 C 270.024 114.646 270.924 114.749 271.784 114.956 C 272.637 115.163 273.504 115.476 274.384 115.896 C 274.21 116.809 274.124 118.049 274.124 119.616 C 273.784 119.776 273.254 119.856 272.534 119.856 C 272.507 118.369 272.217 117.333 271.664 116.746 C 271.11 116.159 270.307 115.866 269.254 115.866 C 267.54 115.866 266.267 116.476 265.434 117.696 C 264.6 118.909 264.184 120.419 264.184 122.226 C 264.184 123.639 264.407 124.906 264.854 126.026 C 265.307 127.146 265.964 128.026 266.824 128.666 C 267.69 129.306 268.724 129.626 269.924 129.626 C 270.624 129.626 271.344 129.513 272.084 129.286 C 272.817 129.059 273.52 128.739 274.194 128.326 C 274.307 128.419 274.41 128.556 274.504 128.736 C 274.604 128.909 274.667 129.069 274.694 129.216 C 273.814 129.916 272.91 130.439 271.984 130.786 C 271.057 131.133 269.994 131.306 268.794 131.306 ZM 278.653 118.296 C 278.653 117.703 278.606 117.253 278.513 116.946 C 278.413 116.646 278.253 116.433 278.033 116.306 C 277.806 116.173 277.47 116.093 277.023 116.066 C 276.93 115.726 276.883 115.299 276.883 114.786 C 277.743 114.839 278.836 114.866 280.163 114.866 C 281.35 114.866 282.423 114.839 283.383 114.786 C 283.383 115.026 283.376 115.259 283.363 115.486 C 283.343 115.713 283.303 115.906 283.243 116.066 C 282.79 116.093 282.453 116.173 282.233 116.306 C 282.006 116.433 281.846 116.646 281.753 116.946 C 281.653 117.253 281.603 117.703 281.603 118.296 L 281.603 127.626 C 281.603 128.239 281.653 128.696 281.753 128.996 C 281.846 129.303 282.006 129.519 282.233 129.646 C 282.453 129.773 282.79 129.853 283.243 129.886 C 283.336 130.139 283.383 130.563 283.383 131.156 C 282.503 131.109 281.456 131.086 280.243 131.086 C 278.896 131.086 277.776 131.109 276.883 131.156 C 276.883 130.616 276.93 130.193 277.023 129.886 C 277.47 129.853 277.806 129.773 278.033 129.646 C 278.253 129.519 278.413 129.303 278.513 128.996 C 278.606 128.696 278.653 128.239 278.653 127.626 L 278.653 118.296 ZM 300.877 129.886 C 300.991 130.273 301.047 130.696 301.047 131.156 C 300.421 131.109 299.411 131.086 298.017 131.086 C 296.531 131.086 295.484 131.109 294.877 131.156 C 294.877 130.616 294.941 130.193 295.067 129.886 C 295.467 129.839 295.761 129.759 295.947 129.646 C 296.127 129.533 296.217 129.366 296.217 129.146 C 296.217 128.906 296.107 128.536 295.887 128.036 L 295.097 126.166 C 292.617 126.166 290.584 126.206 288.997 126.286 L 288.517 127.536 C 288.311 128.063 288.207 128.503 288.207 128.856 C 288.207 129.176 288.304 129.419 288.497 129.586 C 288.684 129.753 288.977 129.853 289.377 129.886 C 289.511 130.273 289.577 130.696 289.577 131.156 C 289.031 131.109 288.214 131.086 287.127 131.086 C 286.661 131.086 285.971 131.109 285.057 131.156 C 285.057 130.663 285.124 130.246 285.257 129.906 C 285.671 129.826 285.994 129.623 286.227 129.296 C 286.461 128.969 286.777 128.326 287.177 127.366 L 292.167 114.836 C 292.501 114.756 292.891 114.716 293.337 114.716 L 298.957 127.436 C 299.264 128.109 299.511 128.609 299.697 128.936 C 299.891 129.263 300.071 129.496 300.237 129.636 C 300.411 129.769 300.624 129.853 300.877 129.886 Z M 289.527 124.946 L 294.567 124.946 L 293.007 121.296 C 292.574 120.336 292.204 119.383 291.897 118.436 C 291.611 119.363 291.284 120.316 290.917 121.296 L 289.527 124.946 Z" transform="matrix(1, 0, 0, 1, 0, 0)" style="fill: rgb(0, 133, 150); white-space: pre;"/>
  <path d="M 74.559 145.454 C 74.619 145.554 74.669 145.654 74.709 145.754 C 74.749 145.861 74.789 145.971 74.829 146.084 C 74.869 145.971 74.912 145.861 74.959 145.754 C 75.006 145.654 75.056 145.554 75.109 145.454 L 78.019 140.164 C 78.072 140.071 78.126 140.014 78.179 139.994 C 78.239 139.974 78.319 139.964 78.419 139.964 L 79.279 139.964 L 79.279 148.564 L 78.259 148.564 L 78.259 142.244 C 78.259 142.164 78.262 142.074 78.269 141.974 C 78.269 141.881 78.272 141.784 78.279 141.684 L 75.339 147.054 C 75.239 147.234 75.099 147.324 74.919 147.324 L 74.749 147.324 C 74.569 147.324 74.429 147.234 74.329 147.054 L 71.319 141.664 C 71.332 141.771 71.342 141.874 71.349 141.974 C 71.349 142.074 71.349 142.164 71.349 142.244 L 71.349 148.564 L 70.329 148.564 L 70.329 139.964 L 71.189 139.964 C 71.296 139.964 71.376 139.974 71.429 139.994 C 71.489 140.014 71.542 140.071 71.589 140.164 L 74.559 145.454 ZM 85.665 144.674 L 85.665 148.564 L 85.195 148.564 C 85.088 148.564 85.001 148.547 84.935 148.514 C 84.875 148.481 84.835 148.414 84.815 148.314 L 84.695 147.744 C 84.535 147.891 84.378 148.021 84.225 148.134 C 84.071 148.247 83.911 148.344 83.745 148.424 C 83.578 148.504 83.398 148.564 83.205 148.604 C 83.018 148.644 82.808 148.664 82.575 148.664 C 82.341 148.664 82.121 148.631 81.915 148.564 C 81.708 148.497 81.528 148.397 81.375 148.264 C 81.221 148.131 81.101 147.964 81.015 147.764 C 80.921 147.564 80.875 147.324 80.875 147.044 C 80.875 146.804 80.941 146.574 81.075 146.354 C 81.208 146.134 81.421 145.937 81.715 145.764 C 82.008 145.591 82.391 145.447 82.865 145.334 C 83.345 145.227 83.928 145.167 84.615 145.154 L 84.615 144.674 C 84.615 144.201 84.515 143.844 84.315 143.604 C 84.108 143.364 83.808 143.244 83.415 143.244 C 83.155 143.244 82.935 143.277 82.755 143.344 C 82.581 143.411 82.428 143.484 82.295 143.564 C 82.168 143.644 82.058 143.717 81.965 143.784 C 81.865 143.851 81.771 143.884 81.685 143.884 C 81.611 143.884 81.548 143.864 81.495 143.824 C 81.441 143.791 81.398 143.744 81.365 143.684 L 81.175 143.344 C 81.508 143.017 81.868 142.774 82.255 142.614 C 82.641 142.454 83.071 142.374 83.545 142.374 C 83.885 142.374 84.188 142.431 84.455 142.544 C 84.715 142.657 84.935 142.814 85.115 143.014 C 85.295 143.214 85.431 143.457 85.525 143.744 C 85.618 144.024 85.665 144.334 85.665 144.674 Z M 82.895 147.914 C 83.081 147.914 83.251 147.894 83.405 147.854 C 83.565 147.814 83.711 147.761 83.845 147.694 C 83.985 147.621 84.118 147.534 84.245 147.434 C 84.371 147.334 84.495 147.221 84.615 147.094 L 84.615 145.824 C 84.121 145.844 83.705 145.884 83.365 145.944 C 83.018 146.004 82.738 146.084 82.525 146.184 C 82.305 146.284 82.148 146.404 82.055 146.544 C 81.955 146.677 81.905 146.827 81.905 146.994 C 81.905 147.154 81.931 147.294 81.985 147.414 C 82.031 147.527 82.101 147.621 82.195 147.694 C 82.281 147.767 82.385 147.824 82.505 147.864 C 82.625 147.897 82.755 147.914 82.895 147.914 ZM 88.346 150.624 L 87.286 150.624 L 87.286 142.484 L 87.916 142.484 C 88.07 142.484 88.166 142.557 88.206 142.704 L 88.296 143.424 C 88.556 143.111 88.853 142.857 89.186 142.664 C 89.52 142.471 89.906 142.374 90.346 142.374 C 90.693 142.374 91.006 142.441 91.286 142.574 C 91.573 142.714 91.816 142.914 92.016 143.174 C 92.216 143.434 92.37 143.757 92.476 144.144 C 92.583 144.537 92.636 144.984 92.636 145.484 C 92.636 145.931 92.576 146.347 92.456 146.734 C 92.336 147.121 92.166 147.454 91.946 147.734 C 91.72 148.021 91.443 148.244 91.116 148.404 C 90.79 148.564 90.423 148.644 90.016 148.644 C 89.643 148.644 89.323 148.584 89.056 148.464 C 88.79 148.337 88.553 148.161 88.346 147.934 L 88.346 150.624 Z M 89.986 143.244 C 89.64 143.244 89.336 143.324 89.076 143.484 C 88.81 143.644 88.566 143.871 88.346 144.164 L 88.346 147.104 C 88.546 147.364 88.763 147.547 88.996 147.654 C 89.23 147.767 89.49 147.824 89.776 147.824 C 90.343 147.824 90.776 147.621 91.076 147.214 C 91.383 146.807 91.536 146.231 91.536 145.484 C 91.536 145.091 91.503 144.751 91.436 144.464 C 91.363 144.184 91.26 143.951 91.126 143.764 C 90.993 143.584 90.833 143.451 90.646 143.364 C 90.453 143.284 90.233 143.244 89.986 143.244 ZM 96.308 142.394 C 96.675 142.394 97.011 142.454 97.318 142.574 C 97.625 142.694 97.891 142.871 98.118 143.104 C 98.338 143.331 98.511 143.614 98.638 143.954 C 98.765 144.294 98.828 144.677 98.828 145.104 C 98.828 145.277 98.811 145.391 98.778 145.444 C 98.738 145.497 98.668 145.524 98.568 145.524 L 94.528 145.524 C 94.535 145.911 94.588 146.247 94.688 146.534 C 94.781 146.814 94.911 147.051 95.078 147.244 C 95.245 147.431 95.445 147.571 95.678 147.664 C 95.911 147.757 96.171 147.804 96.458 147.804 C 96.725 147.804 96.958 147.774 97.158 147.714 C 97.351 147.654 97.518 147.587 97.658 147.514 C 97.798 147.441 97.915 147.374 98.008 147.314 C 98.101 147.254 98.181 147.224 98.248 147.224 C 98.335 147.224 98.401 147.257 98.448 147.324 L 98.748 147.714 C 98.621 147.874 98.465 148.014 98.278 148.134 C 98.091 148.247 97.895 148.344 97.688 148.424 C 97.475 148.497 97.258 148.554 97.038 148.594 C 96.811 148.627 96.588 148.644 96.368 148.644 C 95.948 148.644 95.561 148.574 95.208 148.434 C 94.855 148.294 94.548 148.087 94.288 147.814 C 94.035 147.541 93.835 147.201 93.688 146.794 C 93.541 146.387 93.468 145.924 93.468 145.404 C 93.468 144.977 93.535 144.581 93.668 144.214 C 93.795 143.847 93.981 143.527 94.228 143.254 C 94.475 142.987 94.771 142.777 95.118 142.624 C 95.471 142.471 95.868 142.394 96.308 142.394 Z M 96.338 143.174 C 95.818 143.174 95.411 143.324 95.118 143.624 C 94.818 143.924 94.635 144.337 94.568 144.864 L 97.868 144.864 C 97.868 144.617 97.835 144.391 97.768 144.184 C 97.701 143.977 97.601 143.797 97.468 143.644 C 97.335 143.497 97.175 143.384 96.988 143.304 C 96.795 143.217 96.578 143.174 96.338 143.174 ZM 104.654 144.674 L 104.654 148.564 L 104.184 148.564 C 104.077 148.564 103.99 148.547 103.924 148.514 C 103.864 148.481 103.824 148.414 103.804 148.314 L 103.684 147.744 C 103.524 147.891 103.367 148.021 103.214 148.134 C 103.06 148.247 102.9 148.344 102.734 148.424 C 102.567 148.504 102.387 148.564 102.194 148.604 C 102.007 148.644 101.797 148.664 101.564 148.664 C 101.33 148.664 101.11 148.631 100.904 148.564 C 100.697 148.497 100.517 148.397 100.364 148.264 C 100.21 148.131 100.09 147.964 100.004 147.764 C 99.91 147.564 99.864 147.324 99.864 147.044 C 99.864 146.804 99.93 146.574 100.064 146.354 C 100.197 146.134 100.41 145.937 100.704 145.764 C 100.997 145.591 101.38 145.447 101.854 145.334 C 102.334 145.227 102.917 145.167 103.604 145.154 L 103.604 144.674 C 103.604 144.201 103.504 143.844 103.304 143.604 C 103.097 143.364 102.797 143.244 102.404 143.244 C 102.144 143.244 101.924 143.277 101.744 143.344 C 101.57 143.411 101.417 143.484 101.284 143.564 C 101.157 143.644 101.047 143.717 100.954 143.784 C 100.854 143.851 100.76 143.884 100.674 143.884 C 100.6 143.884 100.537 143.864 100.484 143.824 C 100.43 143.791 100.387 143.744 100.354 143.684 L 100.164 143.344 C 100.497 143.017 100.857 142.774 101.244 142.614 C 101.63 142.454 102.06 142.374 102.534 142.374 C 102.874 142.374 103.177 142.431 103.444 142.544 C 103.704 142.657 103.924 142.814 104.104 143.014 C 104.284 143.214 104.42 143.457 104.514 143.744 C 104.607 144.024 104.654 144.334 104.654 144.674 Z M 101.884 147.914 C 102.07 147.914 102.24 147.894 102.394 147.854 C 102.554 147.814 102.7 147.761 102.834 147.694 C 102.974 147.621 103.107 147.534 103.234 147.434 C 103.36 147.334 103.484 147.221 103.604 147.094 L 103.604 145.824 C 103.11 145.844 102.694 145.884 102.354 145.944 C 102.007 146.004 101.727 146.084 101.514 146.184 C 101.294 146.284 101.137 146.404 101.044 146.544 C 100.944 146.677 100.894 146.827 100.894 146.994 C 100.894 147.154 100.92 147.294 100.974 147.414 C 101.02 147.527 101.09 147.621 101.184 147.694 C 101.27 147.767 101.374 147.824 101.494 147.864 C 101.614 147.897 101.744 147.914 101.884 147.914 ZM 107.335 148.564 L 106.275 148.564 L 106.275 142.484 L 106.905 142.484 C 107.059 142.484 107.155 142.557 107.195 142.704 L 107.275 143.364 C 107.542 143.077 107.839 142.844 108.165 142.664 C 108.492 142.484 108.869 142.394 109.295 142.394 C 109.629 142.394 109.922 142.447 110.175 142.554 C 110.429 142.667 110.642 142.824 110.815 143.024 C 110.982 143.224 111.109 143.467 111.195 143.754 C 111.282 144.034 111.325 144.347 111.325 144.694 L 111.325 148.564 L 110.265 148.564 L 110.265 144.694 C 110.265 144.234 110.159 143.877 109.945 143.624 C 109.739 143.371 109.419 143.244 108.985 143.244 C 108.665 143.244 108.369 143.321 108.095 143.474 C 107.822 143.621 107.569 143.824 107.335 144.084 L 107.335 148.564 ZM 117.855 148.564 L 117.215 148.564 C 117.068 148.564 116.975 148.491 116.935 148.344 L 116.835 147.604 C 116.575 147.917 116.278 148.171 115.945 148.364 C 115.611 148.551 115.228 148.644 114.795 148.644 C 114.448 148.644 114.131 148.577 113.845 148.444 C 113.565 148.311 113.325 148.114 113.125 147.854 C 112.925 147.594 112.768 147.271 112.655 146.884 C 112.548 146.497 112.495 146.051 112.495 145.544 C 112.495 145.097 112.555 144.681 112.675 144.294 C 112.795 143.907 112.968 143.574 113.195 143.294 C 113.421 143.007 113.698 142.784 114.025 142.624 C 114.345 142.457 114.711 142.374 115.125 142.374 C 115.498 142.374 115.815 142.437 116.075 142.564 C 116.341 142.691 116.578 142.867 116.785 143.094 L 116.785 139.724 L 117.855 139.724 L 117.855 148.564 Z M 115.145 147.784 C 115.498 147.784 115.805 147.704 116.065 147.544 C 116.325 147.384 116.565 147.157 116.785 146.864 L 116.785 143.924 C 116.591 143.664 116.378 143.481 116.145 143.374 C 115.911 143.267 115.651 143.214 115.365 143.214 C 114.798 143.214 114.361 143.414 114.055 143.814 C 113.755 144.221 113.605 144.797 113.605 145.544 C 113.605 145.944 113.638 146.284 113.705 146.564 C 113.771 146.844 113.871 147.077 114.005 147.264 C 114.138 147.444 114.298 147.574 114.485 147.654 C 114.678 147.741 114.898 147.784 115.145 147.784 ZM 122.11 142.394 C 122.55 142.394 122.95 142.467 123.31 142.614 C 123.67 142.761 123.973 142.971 124.22 143.244 C 124.473 143.517 124.667 143.847 124.8 144.234 C 124.933 144.614 125 145.044 125 145.524 C 125 146.004 124.933 146.434 124.8 146.814 C 124.667 147.201 124.473 147.531 124.22 147.804 C 123.973 148.077 123.67 148.284 123.31 148.424 C 122.95 148.571 122.55 148.644 122.11 148.644 C 121.663 148.644 121.26 148.571 120.9 148.424 C 120.547 148.284 120.243 148.077 119.99 147.804 C 119.737 147.531 119.543 147.201 119.41 146.814 C 119.27 146.434 119.2 146.004 119.2 145.524 C 119.2 145.044 119.27 144.614 119.41 144.234 C 119.543 143.847 119.737 143.517 119.99 143.244 C 120.243 142.971 120.547 142.761 120.9 142.614 C 121.26 142.467 121.663 142.394 122.11 142.394 Z M 122.11 147.814 C 122.71 147.814 123.157 147.614 123.45 147.214 C 123.743 146.807 123.89 146.244 123.89 145.524 C 123.89 144.804 123.743 144.241 123.45 143.834 C 123.157 143.434 122.71 143.234 122.11 143.234 C 121.803 143.234 121.537 143.284 121.31 143.384 C 121.09 143.491 120.903 143.641 120.75 143.834 C 120.603 144.034 120.493 144.277 120.42 144.564 C 120.347 144.844 120.31 145.164 120.31 145.524 C 120.31 145.884 120.347 146.207 120.42 146.494 C 120.493 146.781 120.603 147.021 120.75 147.214 C 120.903 147.407 121.09 147.554 121.31 147.654 C 121.537 147.761 121.803 147.814 122.11 147.814 ZM 131.095 142.394 C 131.535 142.394 131.935 142.467 132.295 142.614 C 132.655 142.761 132.958 142.971 133.205 143.244 C 133.458 143.517 133.651 143.847 133.785 144.234 C 133.918 144.614 133.985 145.044 133.985 145.524 C 133.985 146.004 133.918 146.434 133.785 146.814 C 133.651 147.201 133.458 147.531 133.205 147.804 C 132.958 148.077 132.655 148.284 132.295 148.424 C 131.935 148.571 131.535 148.644 131.095 148.644 C 130.648 148.644 130.245 148.571 129.885 148.424 C 129.531 148.284 129.228 148.077 128.975 147.804 C 128.721 147.531 128.528 147.201 128.395 146.814 C 128.255 146.434 128.185 146.004 128.185 145.524 C 128.185 145.044 128.255 144.614 128.395 144.234 C 128.528 143.847 128.721 143.517 128.975 143.244 C 129.228 142.971 129.531 142.761 129.885 142.614 C 130.245 142.467 130.648 142.394 131.095 142.394 Z M 131.095 147.814 C 131.695 147.814 132.141 147.614 132.435 147.214 C 132.728 146.807 132.875 146.244 132.875 145.524 C 132.875 144.804 132.728 144.241 132.435 143.834 C 132.141 143.434 131.695 143.234 131.095 143.234 C 130.788 143.234 130.521 143.284 130.295 143.384 C 130.075 143.491 129.888 143.641 129.735 143.834 C 129.588 144.034 129.478 144.277 129.405 144.564 C 129.331 144.844 129.295 145.164 129.295 145.524 C 129.295 145.884 129.331 146.207 129.405 146.494 C 129.478 146.781 129.588 147.021 129.735 147.214 C 129.888 147.407 130.075 147.554 130.295 147.654 C 130.521 147.761 130.788 147.814 131.095 147.814 ZM 137.739 142.484 L 138.799 142.484 L 138.799 149.014 C 138.799 149.261 138.769 149.487 138.709 149.694 C 138.643 149.907 138.543 150.091 138.409 150.244 C 138.269 150.397 138.089 150.521 137.869 150.614 C 137.649 150.701 137.389 150.744 137.089 150.744 C 136.956 150.744 136.836 150.734 136.729 150.714 C 136.623 150.694 136.513 150.664 136.399 150.624 L 136.449 150.054 C 136.456 150.001 136.476 149.967 136.509 149.954 C 136.536 149.941 136.579 149.934 136.639 149.934 C 136.673 149.934 136.706 149.934 136.739 149.934 C 136.773 149.934 136.816 149.934 136.869 149.934 C 137.183 149.934 137.406 149.864 137.539 149.724 C 137.673 149.577 137.739 149.341 137.739 149.014 L 137.739 142.484 Z M 139.039 140.574 C 139.039 140.681 139.019 140.777 138.979 140.864 C 138.939 140.957 138.883 141.037 138.809 141.104 C 138.743 141.177 138.663 141.234 138.569 141.274 C 138.476 141.314 138.379 141.334 138.279 141.334 C 138.173 141.334 138.076 141.314 137.989 141.274 C 137.896 141.234 137.816 141.177 137.749 141.104 C 137.676 141.037 137.619 140.957 137.579 140.864 C 137.539 140.777 137.519 140.681 137.519 140.574 C 137.519 140.474 137.539 140.377 137.579 140.284 C 137.619 140.191 137.676 140.107 137.749 140.034 C 137.816 139.967 137.896 139.914 137.989 139.874 C 138.076 139.834 138.173 139.814 138.279 139.814 C 138.379 139.814 138.476 139.834 138.569 139.874 C 138.663 139.914 138.743 139.967 138.809 140.034 C 138.883 140.107 138.939 140.191 138.979 140.284 C 139.019 140.377 139.039 140.474 139.039 140.574 ZM 143.126 142.394 C 143.566 142.394 143.966 142.467 144.326 142.614 C 144.686 142.761 144.989 142.971 145.236 143.244 C 145.489 143.517 145.683 143.847 145.816 144.234 C 145.949 144.614 146.016 145.044 146.016 145.524 C 146.016 146.004 145.949 146.434 145.816 146.814 C 145.683 147.201 145.489 147.531 145.236 147.804 C 144.989 148.077 144.686 148.284 144.326 148.424 C 143.966 148.571 143.566 148.644 143.126 148.644 C 142.679 148.644 142.276 148.571 141.916 148.424 C 141.563 148.284 141.259 148.077 141.006 147.804 C 140.753 147.531 140.559 147.201 140.426 146.814 C 140.286 146.434 140.216 146.004 140.216 145.524 C 140.216 145.044 140.286 144.614 140.426 144.234 C 140.559 143.847 140.753 143.517 141.006 143.244 C 141.259 142.971 141.563 142.761 141.916 142.614 C 142.276 142.467 142.679 142.394 143.126 142.394 Z M 143.126 147.814 C 143.726 147.814 144.173 147.614 144.466 147.214 C 144.759 146.807 144.906 146.244 144.906 145.524 C 144.906 144.804 144.759 144.241 144.466 143.834 C 144.173 143.434 143.726 143.234 143.126 143.234 C 142.819 143.234 142.553 143.284 142.326 143.384 C 142.106 143.491 141.919 143.641 141.766 143.834 C 141.619 144.034 141.509 144.277 141.436 144.564 C 141.363 144.844 141.326 145.164 141.326 145.524 C 141.326 145.884 141.363 146.207 141.436 146.494 C 141.509 146.781 141.619 147.021 141.766 147.214 C 141.919 147.407 142.106 147.554 142.326 147.654 C 142.553 147.761 142.819 147.814 143.126 147.814 ZM 148.396 148.564 L 147.336 148.564 L 147.336 142.484 L 147.946 142.484 C 148.059 142.484 148.139 142.507 148.186 142.554 C 148.226 142.594 148.256 142.671 148.276 142.784 L 148.346 143.724 C 148.552 143.304 148.809 142.974 149.116 142.734 C 149.422 142.494 149.782 142.374 150.196 142.374 C 150.362 142.374 150.512 142.394 150.646 142.434 C 150.786 142.474 150.912 142.527 151.026 142.594 L 150.886 143.394 C 150.859 143.494 150.799 143.544 150.706 143.544 C 150.646 143.544 150.559 143.524 150.446 143.484 C 150.332 143.444 150.169 143.424 149.956 143.424 C 149.589 143.424 149.279 143.534 149.026 143.754 C 148.779 143.967 148.569 144.281 148.396 144.694 L 148.396 148.564 ZM 153.23 148.564 L 152.17 148.564 L 152.17 142.484 L 152.8 142.484 C 152.953 142.484 153.05 142.557 153.09 142.704 L 153.17 143.364 C 153.436 143.077 153.733 142.844 154.06 142.664 C 154.386 142.484 154.763 142.394 155.19 142.394 C 155.523 142.394 155.816 142.447 156.07 142.554 C 156.323 142.667 156.536 142.824 156.71 143.024 C 156.876 143.224 157.003 143.467 157.09 143.754 C 157.176 144.034 157.22 144.347 157.22 144.694 L 157.22 148.564 L 156.16 148.564 L 156.16 144.694 C 156.16 144.234 156.053 143.877 155.84 143.624 C 155.633 143.371 155.313 143.244 154.88 143.244 C 154.56 143.244 154.263 143.321 153.99 143.474 C 153.716 143.621 153.463 143.824 153.23 144.084 L 153.23 148.564 ZM 163.299 144.674 L 163.299 148.564 L 162.829 148.564 C 162.722 148.564 162.636 148.547 162.569 148.514 C 162.509 148.481 162.469 148.414 162.449 148.314 L 162.329 147.744 C 162.169 147.891 162.012 148.021 161.859 148.134 C 161.706 148.247 161.546 148.344 161.379 148.424 C 161.212 148.504 161.032 148.564 160.839 148.604 C 160.652 148.644 160.442 148.664 160.209 148.664 C 159.976 148.664 159.756 148.631 159.549 148.564 C 159.342 148.497 159.162 148.397 159.009 148.264 C 158.856 148.131 158.736 147.964 158.649 147.764 C 158.556 147.564 158.509 147.324 158.509 147.044 C 158.509 146.804 158.576 146.574 158.709 146.354 C 158.842 146.134 159.056 145.937 159.349 145.764 C 159.642 145.591 160.026 145.447 160.499 145.334 C 160.979 145.227 161.562 145.167 162.249 145.154 L 162.249 144.674 C 162.249 144.201 162.149 143.844 161.949 143.604 C 161.742 143.364 161.442 143.244 161.049 143.244 C 160.789 143.244 160.569 143.277 160.389 143.344 C 160.216 143.411 160.062 143.484 159.929 143.564 C 159.802 143.644 159.692 143.717 159.599 143.784 C 159.499 143.851 159.406 143.884 159.319 143.884 C 159.246 143.884 159.182 143.864 159.129 143.824 C 159.076 143.791 159.032 143.744 158.999 143.684 L 158.809 143.344 C 159.142 143.017 159.502 142.774 159.889 142.614 C 160.276 142.454 160.706 142.374 161.179 142.374 C 161.519 142.374 161.822 142.431 162.089 142.544 C 162.349 142.657 162.569 142.814 162.749 143.014 C 162.929 143.214 163.066 143.457 163.159 143.744 C 163.252 144.024 163.299 144.334 163.299 144.674 Z M 160.529 147.914 C 160.716 147.914 160.886 147.894 161.039 147.854 C 161.199 147.814 161.346 147.761 161.479 147.694 C 161.619 147.621 161.752 147.534 161.879 147.434 C 162.006 147.334 162.129 147.221 162.249 147.094 L 162.249 145.824 C 161.756 145.844 161.339 145.884 160.999 145.944 C 160.652 146.004 160.372 146.084 160.159 146.184 C 159.939 146.284 159.782 146.404 159.689 146.544 C 159.589 146.677 159.539 146.827 159.539 146.994 C 159.539 147.154 159.566 147.294 159.619 147.414 C 159.666 147.527 159.736 147.621 159.829 147.694 C 159.916 147.767 160.019 147.824 160.139 147.864 C 160.259 147.897 160.389 147.914 160.529 147.914 ZM 165.041 139.724 L 166.101 139.724 L 166.101 148.564 L 165.041 148.564 L 165.041 139.724 ZM 168.112 142.484 L 169.172 142.484 L 169.172 148.564 L 168.112 148.564 L 168.112 142.484 Z M 169.412 140.574 C 169.412 140.681 169.392 140.777 169.352 140.864 C 169.312 140.957 169.255 141.037 169.182 141.104 C 169.115 141.177 169.035 141.234 168.942 141.274 C 168.848 141.314 168.752 141.334 168.652 141.334 C 168.545 141.334 168.448 141.314 168.362 141.274 C 168.268 141.234 168.188 141.177 168.122 141.104 C 168.048 141.037 167.992 140.957 167.952 140.864 C 167.912 140.777 167.892 140.681 167.892 140.574 C 167.892 140.474 167.912 140.377 167.952 140.284 C 167.992 140.191 168.048 140.107 168.122 140.034 C 168.188 139.967 168.268 139.914 168.362 139.874 C 168.448 139.834 168.545 139.814 168.652 139.814 C 168.752 139.814 168.848 139.834 168.942 139.874 C 169.035 139.914 169.115 139.967 169.182 140.034 C 169.255 140.107 169.312 140.191 169.352 140.284 C 169.392 140.377 169.412 140.474 169.412 140.574 ZM 174.782 143.094 L 174.542 143.484 C 174.489 143.577 174.412 143.624 174.312 143.624 C 174.252 143.624 174.186 143.601 174.112 143.554 C 174.039 143.507 173.946 143.457 173.832 143.404 C 173.726 143.351 173.596 143.301 173.442 143.254 C 173.289 143.207 173.109 143.184 172.902 143.184 C 172.722 143.184 172.559 143.207 172.412 143.254 C 172.272 143.301 172.149 143.364 172.042 143.444 C 171.942 143.524 171.866 143.617 171.812 143.724 C 171.759 143.831 171.732 143.947 171.732 144.074 C 171.732 144.227 171.776 144.357 171.862 144.464 C 171.956 144.564 172.076 144.654 172.222 144.734 C 172.369 144.807 172.536 144.874 172.722 144.934 C 172.916 144.987 173.109 145.047 173.302 145.114 C 173.502 145.181 173.696 145.254 173.882 145.334 C 174.069 145.414 174.239 145.514 174.392 145.634 C 174.539 145.754 174.656 145.901 174.742 146.074 C 174.836 146.247 174.882 146.457 174.882 146.704 C 174.882 146.984 174.832 147.244 174.732 147.484 C 174.632 147.717 174.482 147.921 174.282 148.094 C 174.089 148.274 173.849 148.414 173.562 148.514 C 173.282 148.614 172.956 148.664 172.582 148.664 C 172.156 148.664 171.772 148.594 171.432 148.454 C 171.086 148.314 170.792 148.137 170.552 147.924 L 170.802 147.514 C 170.836 147.461 170.876 147.421 170.922 147.394 C 170.962 147.367 171.019 147.354 171.092 147.354 C 171.166 147.354 171.242 147.381 171.322 147.434 C 171.402 147.494 171.499 147.557 171.612 147.624 C 171.726 147.691 171.862 147.751 172.022 147.804 C 172.189 147.864 172.392 147.894 172.632 147.894 C 172.846 147.894 173.029 147.867 173.182 147.814 C 173.336 147.761 173.466 147.687 173.572 147.594 C 173.679 147.501 173.756 147.394 173.802 147.274 C 173.856 147.154 173.882 147.027 173.882 146.894 C 173.882 146.721 173.836 146.581 173.742 146.474 C 173.656 146.361 173.536 146.267 173.382 146.194 C 173.236 146.114 173.069 146.044 172.882 145.984 C 172.689 145.931 172.496 145.871 172.302 145.804 C 172.102 145.737 171.906 145.664 171.712 145.584 C 171.526 145.504 171.359 145.401 171.212 145.274 C 171.059 145.154 170.939 145.001 170.852 144.814 C 170.759 144.634 170.712 144.414 170.712 144.154 C 170.712 143.921 170.762 143.697 170.862 143.484 C 170.956 143.271 171.096 143.084 171.282 142.924 C 171.462 142.757 171.689 142.627 171.962 142.534 C 172.229 142.441 172.532 142.394 172.872 142.394 C 173.272 142.394 173.632 142.454 173.952 142.574 C 174.272 142.701 174.549 142.874 174.782 143.094 ZM 177.328 148.564 L 176.268 148.564 L 176.268 142.484 L 176.898 142.484 C 177.052 142.484 177.148 142.557 177.188 142.704 L 177.268 143.334 C 177.488 143.054 177.738 142.827 178.018 142.654 C 178.298 142.481 178.622 142.394 178.988 142.394 C 179.402 142.394 179.735 142.507 179.988 142.734 C 180.242 142.961 180.425 143.267 180.538 143.654 C 180.618 143.434 180.728 143.244 180.868 143.084 C 181.008 142.924 181.165 142.794 181.338 142.694 C 181.505 142.587 181.688 142.511 181.888 142.464 C 182.082 142.417 182.278 142.394 182.478 142.394 C 182.798 142.394 183.082 142.444 183.328 142.544 C 183.582 142.644 183.795 142.794 183.968 142.994 C 184.142 143.187 184.275 143.427 184.368 143.714 C 184.455 144.001 184.498 144.327 184.498 144.694 L 184.498 148.564 L 183.438 148.564 L 183.438 144.694 C 183.438 144.221 183.332 143.861 183.118 143.614 C 182.912 143.367 182.612 143.244 182.218 143.244 C 182.038 143.244 181.872 143.274 181.718 143.334 C 181.558 143.394 181.418 143.484 181.298 143.604 C 181.178 143.724 181.085 143.877 181.018 144.064 C 180.945 144.244 180.908 144.454 180.908 144.694 L 180.908 148.564 L 179.838 148.564 L 179.838 144.694 C 179.838 144.207 179.742 143.844 179.548 143.604 C 179.348 143.364 179.062 143.244 178.688 143.244 C 178.422 143.244 178.175 143.314 177.948 143.454 C 177.728 143.594 177.522 143.787 177.328 144.034 L 177.328 148.564 ZM 188.577 142.394 C 189.017 142.394 189.417 142.467 189.777 142.614 C 190.137 142.761 190.44 142.971 190.687 143.244 C 190.94 143.517 191.133 143.847 191.267 144.234 C 191.4 144.614 191.467 145.044 191.467 145.524 C 191.467 146.004 191.4 146.434 191.267 146.814 C 191.133 147.201 190.94 147.531 190.687 147.804 C 190.44 148.077 190.137 148.284 189.777 148.424 C 189.417 148.571 189.017 148.644 188.577 148.644 C 188.13 148.644 187.727 148.571 187.367 148.424 C 187.013 148.284 186.71 148.077 186.457 147.804 C 186.203 147.531 186.01 147.201 185.877 146.814 C 185.737 146.434 185.667 146.004 185.667 145.524 C 185.667 145.044 185.737 144.614 185.877 144.234 C 186.01 143.847 186.203 143.517 186.457 143.244 C 186.71 142.971 187.013 142.761 187.367 142.614 C 187.727 142.467 188.13 142.394 188.577 142.394 Z M 188.577 147.814 C 189.177 147.814 189.623 147.614 189.917 147.214 C 190.21 146.807 190.357 146.244 190.357 145.524 C 190.357 144.804 190.21 144.241 189.917 143.834 C 189.623 143.434 189.177 143.234 188.577 143.234 C 188.27 143.234 188.003 143.284 187.777 143.384 C 187.557 143.491 187.37 143.641 187.217 143.834 C 187.07 144.034 186.96 144.277 186.887 144.564 C 186.813 144.844 186.777 145.164 186.777 145.524 C 186.777 145.884 186.813 146.207 186.887 146.494 C 186.96 146.781 187.07 147.021 187.217 147.214 C 187.37 147.407 187.557 147.554 187.777 147.654 C 188.003 147.761 188.27 147.814 188.577 147.814 ZM 195.221 139.724 L 196.281 139.724 L 196.281 148.564 L 195.221 148.564 L 195.221 139.724 ZM 200.632 142.394 C 201.072 142.394 201.472 142.467 201.832 142.614 C 202.192 142.761 202.495 142.971 202.742 143.244 C 202.995 143.517 203.189 143.847 203.322 144.234 C 203.455 144.614 203.522 145.044 203.522 145.524 C 203.522 146.004 203.455 146.434 203.322 146.814 C 203.189 147.201 202.995 147.531 202.742 147.804 C 202.495 148.077 202.192 148.284 201.832 148.424 C 201.472 148.571 201.072 148.644 200.632 148.644 C 200.185 148.644 199.782 148.571 199.422 148.424 C 199.069 148.284 198.765 148.077 198.512 147.804 C 198.259 147.531 198.065 147.201 197.932 146.814 C 197.792 146.434 197.722 146.004 197.722 145.524 C 197.722 145.044 197.792 144.614 197.932 144.234 C 198.065 143.847 198.259 143.517 198.512 143.244 C 198.765 142.971 199.069 142.761 199.422 142.614 C 199.782 142.467 200.185 142.394 200.632 142.394 Z M 200.632 147.814 C 201.232 147.814 201.679 147.614 201.972 147.214 C 202.265 146.807 202.412 146.244 202.412 145.524 C 202.412 144.804 202.265 144.241 201.972 143.834 C 201.679 143.434 201.232 143.234 200.632 143.234 C 200.325 143.234 200.059 143.284 199.832 143.384 C 199.612 143.491 199.425 143.641 199.272 143.834 C 199.125 144.034 199.015 144.277 198.942 144.564 C 198.869 144.844 198.832 145.164 198.832 145.524 C 198.832 145.884 198.869 146.207 198.942 146.494 C 199.015 146.781 199.125 147.021 199.272 147.214 C 199.425 147.407 199.612 147.554 199.832 147.654 C 200.059 147.761 200.325 147.814 200.632 147.814 ZM 209.262 143.184 L 208.982 143.564 C 208.948 143.611 208.918 143.644 208.892 143.664 C 208.858 143.691 208.812 143.704 208.752 143.704 C 208.692 143.704 208.625 143.677 208.552 143.624 C 208.485 143.577 208.398 143.524 208.292 143.464 C 208.178 143.404 208.045 143.351 207.892 143.304 C 207.738 143.251 207.552 143.224 207.332 143.224 C 207.032 143.224 206.768 143.277 206.542 143.384 C 206.315 143.491 206.125 143.644 205.972 143.844 C 205.818 144.044 205.702 144.284 205.622 144.564 C 205.542 144.851 205.502 145.171 205.502 145.524 C 205.502 145.891 205.545 146.217 205.632 146.504 C 205.712 146.791 205.828 147.031 205.982 147.224 C 206.135 147.417 206.322 147.564 206.542 147.664 C 206.755 147.771 206.998 147.824 207.272 147.824 C 207.532 147.824 207.745 147.791 207.912 147.724 C 208.085 147.664 208.225 147.597 208.332 147.524 C 208.445 147.444 208.538 147.374 208.612 147.314 C 208.685 147.254 208.758 147.224 208.832 147.224 C 208.918 147.224 208.985 147.257 209.032 147.324 L 209.332 147.714 C 209.065 148.034 208.735 148.271 208.342 148.424 C 207.948 148.571 207.532 148.644 207.092 148.644 C 206.712 148.644 206.358 148.574 206.032 148.434 C 205.705 148.294 205.422 148.094 205.182 147.834 C 204.942 147.567 204.752 147.237 204.612 146.844 C 204.472 146.457 204.402 146.017 204.402 145.524 C 204.402 145.071 204.465 144.651 204.592 144.264 C 204.718 143.884 204.905 143.554 205.152 143.274 C 205.392 142.994 205.688 142.777 206.042 142.624 C 206.402 142.471 206.812 142.394 207.272 142.394 C 207.692 142.394 208.065 142.461 208.392 142.594 C 208.725 142.734 209.015 142.931 209.262 143.184 ZM 214.903 144.674 L 214.903 148.564 L 214.433 148.564 C 214.327 148.564 214.24 148.547 214.173 148.514 C 214.113 148.481 214.073 148.414 214.053 148.314 L 213.933 147.744 C 213.773 147.891 213.617 148.021 213.463 148.134 C 213.31 148.247 213.15 148.344 212.983 148.424 C 212.817 148.504 212.637 148.564 212.443 148.604 C 212.257 148.644 212.047 148.664 211.813 148.664 C 211.58 148.664 211.36 148.631 211.153 148.564 C 210.947 148.497 210.767 148.397 210.613 148.264 C 210.46 148.131 210.34 147.964 210.253 147.764 C 210.16 147.564 210.113 147.324 210.113 147.044 C 210.113 146.804 210.18 146.574 210.313 146.354 C 210.447 146.134 210.66 145.937 210.953 145.764 C 211.247 145.591 211.63 145.447 212.103 145.334 C 212.583 145.227 213.167 145.167 213.853 145.154 L 213.853 144.674 C 213.853 144.201 213.753 143.844 213.553 143.604 C 213.347 143.364 213.047 143.244 212.653 143.244 C 212.393 143.244 212.173 143.277 211.993 143.344 C 211.82 143.411 211.667 143.484 211.533 143.564 C 211.407 143.644 211.297 143.717 211.203 143.784 C 211.103 143.851 211.01 143.884 210.923 143.884 C 210.85 143.884 210.787 143.864 210.733 143.824 C 210.68 143.791 210.637 143.744 210.603 143.684 L 210.413 143.344 C 210.747 143.017 211.107 142.774 211.493 142.614 C 211.88 142.454 212.31 142.374 212.783 142.374 C 213.123 142.374 213.427 142.431 213.693 142.544 C 213.953 142.657 214.173 142.814 214.353 143.014 C 214.533 143.214 214.67 143.457 214.763 143.744 C 214.857 144.024 214.903 144.334 214.903 144.674 Z M 212.133 147.914 C 212.32 147.914 212.49 147.894 212.643 147.854 C 212.803 147.814 212.95 147.761 213.083 147.694 C 213.223 147.621 213.357 147.534 213.483 147.434 C 213.61 147.334 213.733 147.221 213.853 147.094 L 213.853 145.824 C 213.36 145.844 212.943 145.884 212.603 145.944 C 212.257 146.004 211.977 146.084 211.763 146.184 C 211.543 146.284 211.387 146.404 211.293 146.544 C 211.193 146.677 211.143 146.827 211.143 146.994 C 211.143 147.154 211.17 147.294 211.223 147.414 C 211.27 147.527 211.34 147.621 211.433 147.694 C 211.52 147.767 211.623 147.824 211.743 147.864 C 211.863 147.897 211.993 147.914 212.133 147.914 ZM 216.645 139.724 L 217.705 139.724 L 217.705 148.564 L 216.645 148.564 L 216.645 139.724 ZM 222.971 148.564 L 221.911 148.564 L 221.911 142.484 L 222.541 142.484 C 222.694 142.484 222.791 142.557 222.831 142.704 L 222.911 143.364 C 223.178 143.077 223.474 142.844 223.801 142.664 C 224.128 142.484 224.504 142.394 224.931 142.394 C 225.264 142.394 225.558 142.447 225.811 142.554 C 226.064 142.667 226.278 142.824 226.451 143.024 C 226.618 143.224 226.744 143.467 226.831 143.754 C 226.918 144.034 226.961 144.347 226.961 144.694 L 226.961 148.564 L 225.901 148.564 L 225.901 144.694 C 225.901 144.234 225.794 143.877 225.581 143.624 C 225.374 143.371 225.054 143.244 224.621 143.244 C 224.301 143.244 224.004 143.321 223.731 143.474 C 223.458 143.621 223.204 143.824 222.971 144.084 L 222.971 148.564 ZM 231.04 142.394 C 231.48 142.394 231.88 142.467 232.24 142.614 C 232.6 142.761 232.904 142.971 233.15 143.244 C 233.404 143.517 233.597 143.847 233.73 144.234 C 233.864 144.614 233.93 145.044 233.93 145.524 C 233.93 146.004 233.864 146.434 233.73 146.814 C 233.597 147.201 233.404 147.531 233.15 147.804 C 232.904 148.077 232.6 148.284 232.24 148.424 C 231.88 148.571 231.48 148.644 231.04 148.644 C 230.594 148.644 230.19 148.571 229.83 148.424 C 229.477 148.284 229.174 148.077 228.92 147.804 C 228.667 147.531 228.474 147.201 228.34 146.814 C 228.2 146.434 228.13 146.004 228.13 145.524 C 228.13 145.044 228.2 144.614 228.34 144.234 C 228.474 143.847 228.667 143.517 228.92 143.244 C 229.174 142.971 229.477 142.761 229.83 142.614 C 230.19 142.467 230.594 142.394 231.04 142.394 Z M 231.04 147.814 C 231.64 147.814 232.087 147.614 232.38 147.214 C 232.674 146.807 232.82 146.244 232.82 145.524 C 232.82 144.804 232.674 144.241 232.38 143.834 C 232.087 143.434 231.64 143.234 231.04 143.234 C 230.734 143.234 230.467 143.284 230.24 143.384 C 230.02 143.491 229.834 143.641 229.68 143.834 C 229.534 144.034 229.424 144.277 229.35 144.564 C 229.277 144.844 229.24 145.164 229.24 145.524 C 229.24 145.884 229.277 146.207 229.35 146.494 C 229.424 146.781 229.534 147.021 229.68 147.214 C 229.834 147.407 230.02 147.554 230.24 147.654 C 230.467 147.761 230.734 147.814 231.04 147.814 ZM 240.775 148.564 L 237.725 148.564 L 237.725 139.964 L 240.475 139.964 C 241.002 139.964 241.455 140.017 241.835 140.124 C 242.215 140.224 242.528 140.371 242.775 140.564 C 243.022 140.757 243.205 140.994 243.325 141.274 C 243.445 141.547 243.505 141.861 243.505 142.214 C 243.505 142.421 243.472 142.624 243.405 142.824 C 243.338 143.017 243.238 143.197 243.105 143.364 C 242.972 143.537 242.802 143.687 242.595 143.814 C 242.395 143.947 242.158 144.057 241.885 144.144 C 242.512 144.264 242.985 144.491 243.305 144.824 C 243.625 145.151 243.785 145.581 243.785 146.114 C 243.785 146.481 243.718 146.814 243.585 147.114 C 243.452 147.414 243.258 147.671 243.005 147.884 C 242.745 148.104 242.428 148.271 242.055 148.384 C 241.682 148.504 241.255 148.564 240.775 148.564 Z M 240.745 144.644 L 238.895 144.644 L 238.895 147.644 L 240.755 147.644 C 241.088 147.644 241.372 147.604 241.605 147.524 C 241.845 147.451 242.042 147.344 242.195 147.204 C 242.348 147.064 242.462 146.901 242.535 146.714 C 242.608 146.521 242.645 146.311 242.645 146.084 C 242.645 145.644 242.488 145.294 242.175 145.034 C 241.862 144.774 241.385 144.644 240.745 144.644 Z M 238.895 140.884 L 238.895 143.814 L 240.425 143.814 C 240.758 143.814 241.045 143.781 241.285 143.714 C 241.525 143.641 241.722 143.541 241.875 143.414 C 242.035 143.281 242.152 143.124 242.225 142.944 C 242.305 142.764 242.345 142.564 242.345 142.344 C 242.345 141.844 242.192 141.474 241.885 141.234 C 241.585 141.001 241.115 140.884 240.475 140.884 L 238.895 140.884 ZM 246.386 148.564 L 245.326 148.564 L 245.326 142.484 L 245.936 142.484 C 246.049 142.484 246.129 142.507 246.176 142.554 C 246.216 142.594 246.246 142.671 246.266 142.784 L 246.336 143.724 C 246.543 143.304 246.799 142.974 247.106 142.734 C 247.413 142.494 247.773 142.374 248.186 142.374 C 248.353 142.374 248.503 142.394 248.636 142.434 C 248.776 142.474 248.903 142.527 249.016 142.594 L 248.876 143.394 C 248.849 143.494 248.789 143.544 248.696 143.544 C 248.636 143.544 248.549 143.524 248.436 143.484 C 248.323 143.444 248.159 143.424 247.946 143.424 C 247.579 143.424 247.269 143.534 247.016 143.754 C 246.769 143.967 246.559 144.281 246.386 144.694 L 246.386 148.564 ZM 254.392 144.674 L 254.392 148.564 L 253.922 148.564 C 253.816 148.564 253.729 148.547 253.662 148.514 C 253.602 148.481 253.562 148.414 253.542 148.314 L 253.422 147.744 C 253.262 147.891 253.106 148.021 252.952 148.134 C 252.799 148.247 252.639 148.344 252.472 148.424 C 252.306 148.504 252.126 148.564 251.932 148.604 C 251.746 148.644 251.536 148.664 251.302 148.664 C 251.069 148.664 250.849 148.631 250.642 148.564 C 250.436 148.497 250.256 148.397 250.102 148.264 C 249.949 148.131 249.829 147.964 249.742 147.764 C 249.649 147.564 249.602 147.324 249.602 147.044 C 249.602 146.804 249.669 146.574 249.802 146.354 C 249.936 146.134 250.149 145.937 250.442 145.764 C 250.736 145.591 251.119 145.447 251.592 145.334 C 252.072 145.227 252.656 145.167 253.342 145.154 L 253.342 144.674 C 253.342 144.201 253.242 143.844 253.042 143.604 C 252.836 143.364 252.536 143.244 252.142 143.244 C 251.882 143.244 251.662 143.277 251.482 143.344 C 251.309 143.411 251.156 143.484 251.022 143.564 C 250.896 143.644 250.786 143.717 250.692 143.784 C 250.592 143.851 250.499 143.884 250.412 143.884 C 250.339 143.884 250.276 143.864 250.222 143.824 C 250.169 143.791 250.126 143.744 250.092 143.684 L 249.902 143.344 C 250.236 143.017 250.596 142.774 250.982 142.614 C 251.369 142.454 251.799 142.374 252.272 142.374 C 252.612 142.374 252.916 142.431 253.182 142.544 C 253.442 142.657 253.662 142.814 253.842 143.014 C 254.022 143.214 254.159 143.457 254.252 143.744 C 254.346 144.024 254.392 144.334 254.392 144.674 Z M 251.622 147.914 C 251.809 147.914 251.979 147.894 252.132 147.854 C 252.292 147.814 252.439 147.761 252.572 147.694 C 252.712 147.621 252.846 147.534 252.972 147.434 C 253.099 147.334 253.222 147.221 253.342 147.094 L 253.342 145.824 C 252.849 145.844 252.432 145.884 252.092 145.944 C 251.746 146.004 251.466 146.084 251.252 146.184 C 251.032 146.284 250.876 146.404 250.782 146.544 C 250.682 146.677 250.632 146.827 250.632 146.994 C 250.632 147.154 250.659 147.294 250.712 147.414 C 250.759 147.527 250.829 147.621 250.922 147.694 C 251.009 147.767 251.112 147.824 251.232 147.864 C 251.352 147.897 251.482 147.914 251.622 147.914 ZM 259.734 143.094 L 259.494 143.484 C 259.441 143.577 259.364 143.624 259.264 143.624 C 259.204 143.624 259.137 143.601 259.064 143.554 C 258.991 143.507 258.897 143.457 258.784 143.404 C 258.677 143.351 258.547 143.301 258.394 143.254 C 258.241 143.207 258.061 143.184 257.854 143.184 C 257.674 143.184 257.511 143.207 257.364 143.254 C 257.224 143.301 257.101 143.364 256.994 143.444 C 256.894 143.524 256.817 143.617 256.764 143.724 C 256.711 143.831 256.684 143.947 256.684 144.074 C 256.684 144.227 256.727 144.357 256.814 144.464 C 256.907 144.564 257.027 144.654 257.174 144.734 C 257.321 144.807 257.487 144.874 257.674 144.934 C 257.867 144.987 258.061 145.047 258.254 145.114 C 258.454 145.181 258.647 145.254 258.834 145.334 C 259.021 145.414 259.191 145.514 259.344 145.634 C 259.491 145.754 259.607 145.901 259.694 146.074 C 259.787 146.247 259.834 146.457 259.834 146.704 C 259.834 146.984 259.784 147.244 259.684 147.484 C 259.584 147.717 259.434 147.921 259.234 148.094 C 259.041 148.274 258.801 148.414 258.514 148.514 C 258.234 148.614 257.907 148.664 257.534 148.664 C 257.107 148.664 256.724 148.594 256.384 148.454 C 256.037 148.314 255.744 148.137 255.504 147.924 L 255.754 147.514 C 255.787 147.461 255.827 147.421 255.874 147.394 C 255.914 147.367 255.971 147.354 256.044 147.354 C 256.117 147.354 256.194 147.381 256.274 147.434 C 256.354 147.494 256.451 147.557 256.564 147.624 C 256.677 147.691 256.814 147.751 256.974 147.804 C 257.141 147.864 257.344 147.894 257.584 147.894 C 257.797 147.894 257.981 147.867 258.134 147.814 C 258.287 147.761 258.417 147.687 258.524 147.594 C 258.631 147.501 258.707 147.394 258.754 147.274 C 258.807 147.154 258.834 147.027 258.834 146.894 C 258.834 146.721 258.787 146.581 258.694 146.474 C 258.607 146.361 258.487 146.267 258.334 146.194 C 258.187 146.114 258.021 146.044 257.834 145.984 C 257.641 145.931 257.447 145.871 257.254 145.804 C 257.054 145.737 256.857 145.664 256.664 145.584 C 256.477 145.504 256.311 145.401 256.164 145.274 C 256.011 145.154 255.891 145.001 255.804 144.814 C 255.711 144.634 255.664 144.414 255.664 144.154 C 255.664 143.921 255.714 143.697 255.814 143.484 C 255.907 143.271 256.047 143.084 256.234 142.924 C 256.414 142.757 256.641 142.627 256.914 142.534 C 257.181 142.441 257.484 142.394 257.824 142.394 C 258.224 142.394 258.584 142.454 258.904 142.574 C 259.224 142.701 259.501 142.874 259.734 143.094 ZM 261.34 142.484 L 262.4 142.484 L 262.4 148.564 L 261.34 148.564 L 261.34 142.484 Z M 262.64 140.574 C 262.64 140.681 262.62 140.777 262.58 140.864 C 262.54 140.957 262.483 141.037 262.41 141.104 C 262.343 141.177 262.263 141.234 262.17 141.274 C 262.077 141.314 261.98 141.334 261.88 141.334 C 261.773 141.334 261.677 141.314 261.59 141.274 C 261.497 141.234 261.417 141.177 261.35 141.104 C 261.277 141.037 261.22 140.957 261.18 140.864 C 261.14 140.777 261.12 140.681 261.12 140.574 C 261.12 140.474 261.14 140.377 261.18 140.284 C 261.22 140.191 261.277 140.107 261.35 140.034 C 261.417 139.967 261.497 139.914 261.59 139.874 C 261.677 139.834 261.773 139.814 261.88 139.814 C 261.98 139.814 262.077 139.834 262.17 139.874 C 262.263 139.914 262.343 139.967 262.41 140.034 C 262.483 140.107 262.54 140.191 262.58 140.284 C 262.62 140.377 262.64 140.474 262.64 140.574 ZM 264.411 139.724 L 265.471 139.724 L 265.471 148.564 L 264.411 148.564 L 264.411 139.724 Z" transform="matrix(1, 0, 0, 1, 0, 0)" style="fill: rgb(212, 0, 0); white-space: pre;"/>
</svg>